{"glyphs":{"0":{"ha":819,"x_min":49,"x_max":771,"o":"m 411 890 q 555 865 489 890 q 669 784 621 839 q 744 644 717 729 q 771 439 771 558 q 742 235 771 321 q 663 94 713 150 q 547 12 613 39 q 410 -15 482 -15 q 266 10 332 -15 q 151 92 200 36 q 76 233 103 147 q 49 439 49 319 q 78 638 49 553 q 158 779 108 724 q 274 863 208 835 q 411 890 340 890 m 239 439 q 253 285 239 346 q 291 188 267 224 q 347 137 315 151 q 411 122 378 122 q 476 138 444 122 q 530 189 507 153 q 567 286 553 225 q 581 439 581 347 q 567 592 581 532 q 530 688 553 653 q 476 738 507 724 q 411 753 444 753 q 347 738 378 753 q 291 688 315 724 q 253 591 267 651 q 239 439 239 531 z "},"1":{"ha":568,"x_min":65,"x_max":453,"o":"m 301 875 l 453 875 l 453 0 l 271 0 l 271 706 l 108 628 l 65 765 l 301 875 z "},"2":{"ha":681,"x_min":51,"x_max":621,"o":"m 308 749 q 224 733 264 749 q 140 681 185 717 l 64 797 q 181 866 118 842 q 331 890 244 890 q 449 871 397 890 q 538 817 501 851 q 592 735 574 782 q 611 633 611 689 q 546 441 611 542 q 358 225 481 340 l 271 143 l 621 143 l 621 0 l 85 0 l 51 122 l 176 247 q 293 370 246 317 q 369 467 340 424 q 411 546 399 510 q 424 618 424 582 q 391 715 424 682 q 308 749 358 749 z "},"3":{"ha":694,"x_min":47,"x_max":617,"o":"m 68 828 q 175 875 118 860 q 306 890 232 890 q 421 872 369 890 q 509 823 472 854 q 566 750 546 792 q 586 660 586 708 q 543 526 586 578 q 440 451 500 475 q 568 378 519 435 q 617 243 617 322 q 592 128 617 176 q 523 47 567 79 q 419 0 479 15 q 292 -15 360 -15 q 158 -1 221 -15 q 47 38 94 13 l 88 168 q 171 137 131 149 q 264 125 211 125 q 381 156 336 125 q 426 247 426 188 q 385 338 426 306 q 263 371 343 371 l 163 371 l 163 507 l 235 507 q 356 541 313 507 q 399 638 399 575 q 362 722 399 692 q 272 751 325 751 q 199 740 235 751 q 126 704 164 729 l 68 828 z "},"4":{"ha":775,"x_min":28,"x_max":738,"o":"m 396 875 l 610 875 l 610 344 l 738 344 l 738 201 l 610 201 l 610 0 l 433 0 l 433 201 l 28 201 l 28 319 l 396 875 m 358 557 l 217 344 l 433 344 l 433 542 l 442 710 l 439 710 l 358 557 z "},"5":{"ha":736,"x_min":76,"x_max":653,"o":"m 615 878 l 615 735 l 310 732 l 290 557 q 322 560 310 560 q 353 560 333 560 q 465 544 411 560 q 561 495 519 528 q 628 411 603 463 q 653 289 653 360 q 631 172 653 226 q 566 75 610 117 q 454 9 522 33 q 294 -15 386 -15 q 172 -1 228 -15 q 76 32 117 13 l 115 167 q 190 139 151 150 q 278 128 229 128 q 415 169 368 128 q 463 278 463 211 q 409 392 463 354 q 272 429 356 429 q 199 424 236 429 q 128 413 161 419 l 171 875 l 615 878 z "},"6":{"ha":758,"x_min":51,"x_max":710,"o":"m 456 890 q 548 883 504 890 q 632 856 592 875 l 590 717 q 531 741 563 732 q 460 750 499 750 q 369 733 408 750 q 303 684 331 715 q 261 610 276 653 q 242 518 246 568 q 327 568 278 551 q 429 585 376 585 q 542 565 490 585 q 631 508 593 546 q 689 417 668 471 q 710 297 710 364 q 688 171 710 228 q 624 72 665 114 q 524 8 582 31 q 394 -15 465 -15 q 272 6 333 -15 q 163 78 211 28 q 83 208 114 128 q 51 407 51 289 q 86 628 51 536 q 178 778 121 719 q 308 863 235 836 q 456 890 381 890 m 242 314 q 252 238 242 274 q 282 176 263 203 q 329 135 301 150 q 393 121 357 121 q 448 135 424 121 q 490 172 472 149 q 516 226 507 196 q 525 292 525 257 q 488 408 525 371 q 388 446 451 446 q 312 428 343 446 q 264 388 281 411 q 247 357 253 374 q 242 314 242 340 z "},"7":{"ha":688,"x_min":68,"x_max":633,"o":"m 633 875 l 633 757 l 264 -32 l 104 36 l 456 742 l 68 742 l 68 875 l 633 875 z "},"8":{"ha":722,"x_min":42,"x_max":679,"o":"m 368 890 q 496 871 442 890 q 586 819 550 851 q 640 747 622 788 q 657 664 657 707 q 615 544 657 594 q 501 464 572 493 q 571 432 539 451 q 627 386 603 413 q 665 326 651 360 q 679 250 679 292 q 656 140 679 189 q 590 57 632 92 q 488 3 547 22 q 357 -15 429 -15 q 228 3 286 -15 q 128 54 169 21 q 64 133 86 88 q 42 235 42 179 q 54 311 42 278 q 90 370 67 344 q 144 415 113 396 q 213 450 175 435 q 111 528 151 478 q 71 646 71 579 q 90 735 71 692 q 146 814 108 779 q 239 869 183 849 q 368 890 294 890 m 249 657 q 285 573 249 606 q 371 525 321 540 q 447 575 415 542 q 478 651 478 608 q 447 730 478 703 q 363 757 415 757 q 279 727 310 757 q 249 657 249 697 m 351 378 q 263 326 297 360 q 228 239 228 292 q 263 153 228 186 q 364 121 299 121 q 458 156 421 121 q 494 240 494 192 q 454 328 494 293 q 351 378 414 363 z "},"9":{"ha":749,"x_min":53,"x_max":697,"o":"m 313 -15 q 190 -3 242 -15 q 103 28 139 8 l 142 163 q 210 136 172 147 q 296 125 247 125 q 449 188 397 125 q 507 360 500 251 q 437 317 479 335 q 342 300 394 300 q 225 319 278 300 q 134 375 172 339 q 74 465 96 411 q 53 586 53 518 q 76 710 53 654 q 141 807 99 767 q 243 869 183 847 q 378 890 303 890 q 497 867 439 890 q 599 794 554 844 q 670 665 643 744 q 697 475 697 586 q 667 255 697 347 q 586 103 638 163 q 464 14 535 43 q 313 -15 393 -15 m 507 567 q 498 640 507 606 q 472 699 489 674 q 429 740 454 725 q 374 754 404 754 q 274 714 311 754 q 238 594 238 674 q 277 476 238 514 q 379 439 317 439 q 445 454 415 439 q 490 493 475 469 q 507 567 507 518 z "},"\u0000":{"ha":0,"x_min":0,"x_max":0,"o":""},"\r":{"ha":1425,"x_min":0,"x_max":0,"o":""}," ":{"ha":319,"x_min":0,"x_max":0,"o":""},"!":{"ha":364,"x_min":76,"x_max":286,"o":"m 86 986 l 279 986 l 254 311 l 108 311 l 86 986 m 76 93 q 108 168 76 138 q 182 199 140 199 q 256 168 225 199 q 286 93 286 138 q 256 15 286 44 q 182 -15 225 -15 q 108 15 140 -15 q 76 93 76 44 z "},"\"":{"ha":507,"x_min":60,"x_max":447,"o":"m 290 897 l 447 897 l 425 575 l 311 575 l 290 897 m 60 897 l 217 897 l 196 575 l 82 575 l 60 897 z "},"#":{"ha":858,"x_min":49,"x_max":814,"o":"m 358 631 l 324 413 l 504 413 l 539 631 l 358 631 m 604 1028 l 718 1028 l 672 746 l 814 746 l 814 631 l 654 631 l 618 413 l 767 413 l 767 297 l 603 297 l 554 0 l 439 0 l 486 297 l 306 297 l 257 0 l 143 0 l 189 297 l 49 297 l 49 413 l 210 413 l 244 631 l 97 631 l 97 746 l 265 746 l 308 1028 l 422 1028 l 378 744 l 560 744 l 604 1028 z "},"%":{"ha":1117,"x_min":39,"x_max":1076,"o":"m 206 0 l 813 1042 l 924 1042 l 317 0 l 206 0 m 1076 250 q 1061 149 1076 197 q 1016 64 1046 100 q 941 6 986 28 q 838 -15 896 -15 q 736 6 781 -15 q 662 64 692 28 q 617 149 632 100 q 601 250 601 197 q 617 351 601 303 q 665 435 633 399 q 740 492 696 471 q 842 514 785 514 q 941 492 897 514 q 1015 435 985 471 q 1061 351 1046 399 q 1076 250 1076 303 m 935 250 q 930 309 935 281 q 915 360 925 338 q 886 396 904 382 q 842 410 868 410 q 798 397 817 410 q 767 362 779 383 q 749 311 754 340 q 743 250 743 282 q 748 189 743 218 q 765 138 753 160 q 794 102 776 115 q 838 89 813 89 q 911 135 888 89 q 935 250 935 181 m 514 778 q 499 676 514 725 q 453 592 483 628 q 377 534 422 556 q 274 513 332 513 q 173 534 217 513 q 99 592 129 556 q 54 676 69 628 q 39 778 39 725 q 55 878 39 831 q 102 963 71 926 q 177 1020 133 999 q 278 1042 221 1042 q 378 1020 335 1042 q 453 963 422 999 q 499 878 483 926 q 514 778 514 831 m 372 778 q 367 833 372 806 q 351 881 363 860 q 322 915 340 901 q 278 928 304 928 q 234 915 253 928 q 203 882 215 903 q 186 834 192 861 q 181 778 181 807 q 185 717 181 746 q 201 665 190 688 q 231 630 213 643 q 274 617 249 617 q 348 663 324 617 q 372 778 372 708 z "},"&":{"ha":947,"x_min":39,"x_max":954,"o":"m 215 267 q 264 158 215 194 q 392 122 313 122 q 492 143 450 122 q 556 189 535 164 l 325 426 q 248 367 281 406 q 215 267 215 329 m 39 260 q 86 410 39 344 q 242 526 133 476 q 184 608 210 560 q 158 711 158 657 q 228 872 158 813 q 419 931 299 931 q 518 915 472 931 q 597 871 564 899 q 650 803 631 843 q 669 718 669 764 q 629 600 669 649 q 533 524 589 551 l 446 614 q 490 656 472 629 q 507 718 507 682 q 481 781 507 756 q 417 807 454 807 q 349 782 371 807 q 326 718 326 757 q 353 631 326 672 q 432 535 379 590 l 653 308 q 689 383 669 340 q 721 468 708 426 l 858 413 q 808 297 838 354 q 756 204 779 239 l 954 0 l 740 0 l 651 90 q 542 18 613 50 q 369 -14 472 -14 q 126 60 214 -14 q 39 260 39 133 z "},"'":{"ha":278,"x_min":60,"x_max":217,"o":"m 60 897 l 217 897 l 196 575 l 82 575 l 60 897 z "},"(":{"ha":428,"x_min":58,"x_max":383,"o":"m 282 -212 q 199 -93 239 -157 q 127 45 158 -29 q 77 204 96 119 q 58 388 58 289 q 77 572 58 485 q 127 734 96 658 q 199 873 158 810 q 285 986 240 936 l 383 928 q 267 681 314 817 q 221 388 221 546 q 232 239 221 308 q 265 103 243 169 q 316 -25 286 38 q 383 -151 346 -87 l 282 -212 z "},")":{"ha":428,"x_min":44,"x_max":369,"o":"m 143 986 q 230 870 189 933 q 302 732 271 807 q 351 571 333 657 q 369 388 369 485 q 351 203 369 289 q 301 43 332 118 q 228 -95 269 -32 q 144 -212 188 -158 l 44 -150 q 110 -26 81 -87 q 162 102 140 36 q 195 238 183 168 q 207 388 207 308 q 161 680 207 546 q 44 931 115 814 l 143 986 z "},"*":{"ha":518,"x_min":21,"x_max":511,"o":"m 78 568 l 139 649 l 222 715 l 118 718 l 21 749 l 54 853 l 150 825 l 243 768 l 208 868 l 208 965 l 324 965 l 324 868 l 290 768 l 383 824 l 476 853 l 511 749 l 415 717 l 310 715 l 392 650 l 451 568 l 360 500 l 303 582 l 267 683 l 229 581 l 168 500 l 78 568 z "},"+":{"ha":769,"x_min":44,"x_max":725,"o":"m 725 479 l 725 360 l 444 360 l 444 79 l 325 79 l 325 360 l 44 360 l 44 479 l 325 479 l 325 760 l 444 760 l 444 479 l 725 479 z "},",":{"ha":331,"x_min":51,"x_max":289,"o":"m 150 -15 q 78 26 103 -6 q 53 103 53 58 q 82 178 53 146 q 165 211 111 211 q 208 203 186 211 q 249 175 231 194 q 278 124 267 156 q 289 46 289 92 q 274 -45 289 -1 q 232 -126 258 -89 q 172 -194 206 -164 q 104 -242 139 -224 l 51 -169 q 127 -107 93 -146 q 171 -19 161 -68 l 150 -15 z "},"-":{"ha":389,"x_min":42,"x_max":347,"o":"m 347 472 l 347 332 l 42 332 l 42 472 l 347 472 z "},".":{"ha":324,"x_min":65,"x_max":286,"o":"m 65 99 q 74 143 65 122 q 99 179 83 164 q 134 203 114 194 q 176 211 154 211 q 253 179 221 211 q 286 99 286 147 q 253 15 286 46 q 176 -15 221 -15 q 99 15 132 -15 q 65 99 65 46 z "},"/":{"ha":510,"x_min":-1,"x_max":514,"o":"m -1 -151 l 379 1042 l 514 1042 l 133 -151 l -1 -151 z "},":":{"ha":340,"x_min":60,"x_max":281,"o":"m 60 101 q 93 182 60 150 q 171 214 126 214 q 249 182 217 214 q 281 101 281 150 q 249 19 281 49 q 171 -11 217 -11 q 93 19 126 -11 q 60 101 60 49 m 60 522 q 69 567 60 546 q 93 603 78 588 q 128 626 108 618 q 171 635 149 635 q 249 603 217 635 q 281 522 281 571 q 249 439 281 469 q 171 408 217 408 q 93 439 126 408 q 60 522 60 469 z "},";":{"ha":338,"x_min":54,"x_max":292,"o":"m 61 508 q 70 553 61 532 q 94 589 79 574 q 130 613 110 604 q 172 621 150 621 q 249 589 217 621 q 282 508 282 557 q 249 425 282 456 q 172 394 217 394 q 94 425 128 394 q 61 508 61 456 m 153 -15 q 81 26 106 -6 q 56 103 56 58 q 85 178 56 146 q 168 211 114 211 q 211 203 189 211 q 251 175 233 194 q 281 124 269 156 q 292 46 292 92 q 276 -45 292 -1 q 235 -126 261 -89 q 175 -194 208 -164 q 107 -242 142 -224 l 54 -169 q 130 -107 96 -146 q 174 -19 164 -68 l 153 -15 z "},"<":{"ha":668,"x_min":81,"x_max":586,"o":"m 81 301 l 81 403 l 586 685 l 586 543 l 224 353 l 586 163 l 586 21 l 81 301 z "},"=":{"ha":622,"x_min":44,"x_max":576,"o":"m 576 319 l 576 201 l 44 201 l 44 319 l 576 319 m 576 596 l 576 478 l 44 478 l 44 596 l 576 596 z "},">":{"ha":668,"x_min":81,"x_max":586,"o":"m 81 21 l 81 163 l 444 353 l 81 543 l 81 685 l 586 403 l 586 301 l 81 21 z "},"?":{"ha":613,"x_min":69,"x_max":560,"o":"m 288 993 q 403 975 353 993 q 489 926 454 957 q 542 851 524 894 q 560 757 560 807 q 524 626 560 683 q 426 508 488 569 q 375 458 396 479 q 341 422 354 438 q 322 390 328 406 q 315 356 315 375 q 324 307 315 329 l 174 286 q 164 323 168 301 q 160 367 160 344 q 167 420 160 396 q 188 467 174 444 q 220 513 201 490 q 264 561 239 535 q 345 656 318 617 q 372 747 372 694 q 344 817 372 788 q 263 846 317 846 q 199 836 228 846 q 136 803 169 826 l 69 928 q 168 976 113 958 q 288 993 224 993 m 157 93 q 188 168 157 138 q 263 199 219 199 q 335 168 304 199 q 367 93 367 138 q 335 15 367 44 q 263 -15 304 -15 q 188 15 219 -15 q 157 93 157 44 z "},"@":{"ha":1342,"x_min":61,"x_max":1283,"o":"m 769 76 l 767 76 q 671 8 722 32 q 547 -15 619 -15 q 408 34 458 -15 q 358 157 358 83 q 383 265 358 218 q 451 342 407 311 q 558 390 496 374 q 696 406 621 406 l 779 406 l 785 440 q 786 453 786 447 q 786 464 786 458 q 688 546 786 546 q 601 531 649 546 q 500 489 553 517 l 460 606 q 589 658 524 639 q 725 676 654 676 q 897 631 832 676 q 963 485 963 586 q 958 431 963 460 l 922 207 q 918 168 918 183 q 969 115 918 115 q 1041 145 1008 115 q 1097 224 1074 175 q 1133 332 1119 272 q 1146 453 1146 392 q 1119 608 1146 536 q 1042 733 1093 681 q 918 817 992 786 q 750 847 844 847 q 533 809 633 847 q 358 695 432 771 q 240 507 283 619 q 197 246 197 394 q 238 42 197 125 q 342 -92 278 -42 q 486 -165 406 -143 q 647 -187 567 -187 q 799 -173 736 -187 q 917 -136 861 -158 l 947 -240 q 805 -285 889 -265 q 625 -304 721 -304 q 418 -275 519 -304 q 238 -181 317 -246 q 110 -14 158 -117 q 61 236 61 89 q 119 548 61 413 q 272 775 176 683 q 491 914 368 867 q 744 961 614 961 q 975 924 875 961 q 1144 819 1075 886 q 1248 662 1213 753 q 1283 464 1283 571 q 1259 282 1283 367 q 1187 134 1235 197 q 1069 35 1139 71 q 908 -1 999 -1 q 851 3 879 -1 q 804 14 822 7 l 769 76 m 764 301 l 701 300 q 578 261 618 297 q 539 175 539 225 q 564 123 539 139 q 622 107 589 107 q 690 123 658 107 q 742 163 721 139 l 764 301 z "},"[":{"ha":411,"x_min":90,"x_max":375,"o":"m 90 -224 l 90 1008 l 375 1008 l 375 896 l 242 896 l 242 -110 l 375 -110 l 375 -224 l 90 -224 z "},"\\":{"ha":433,"x_min":0,"x_max":433,"o":"m 303 -122 l 0 1000 l 131 1000 l 433 -122 l 303 -122 z "},"]":{"ha":411,"x_min":36,"x_max":321,"o":"m 36 -224 l 36 -110 l 171 -110 l 171 896 l 36 896 l 36 1008 l 321 1008 l 321 -224 l 36 -224 z "},"^":{"ha":706,"x_min":68,"x_max":638,"o":"m 638 567 l 511 567 l 351 894 l 196 567 l 68 567 l 300 1000 l 403 1000 l 638 567 z "},"_":{"ha":518,"x_min":8,"x_max":510,"o":"m 510 -243 l 510 -347 l 8 -347 l 8 -243 l 510 -243 z "},"{":{"ha":451,"x_min":40,"x_max":419,"o":"m 419 867 q 360 858 383 867 q 324 828 338 849 q 304 775 310 808 q 299 692 299 742 l 299 546 q 274 444 299 482 q 208 388 249 406 l 208 383 q 274 311 249 360 q 299 188 299 263 l 299 42 q 304 -24 299 1 q 324 -65 310 -50 q 361 -87 338 -81 q 419 -99 385 -94 l 419 -215 q 233 -153 304 -212 q 163 10 163 -94 l 163 194 q 133 292 163 257 q 40 331 104 328 l 40 436 q 133 474 103 444 q 163 569 163 503 l 163 771 q 179 853 163 815 q 228 919 196 892 q 309 963 261 947 q 419 979 357 979 l 419 867 z "},"|":{"ha":335,"x_min":100,"x_max":235,"o":"m 100 -319 l 100 1042 l 235 1042 l 235 -319 l 100 -319 z "},"}":{"ha":451,"x_min":32,"x_max":411,"o":"m 32 981 q 138 963 90 979 q 219 918 185 947 q 271 849 253 889 q 289 758 289 808 l 289 569 q 318 472 289 506 q 411 433 347 438 l 411 328 q 318 291 347 321 q 289 194 289 261 l 289 -3 q 222 -155 289 -96 q 32 -215 154 -214 l 32 -101 q 90 -93 67 -101 q 128 -65 114 -85 q 147 -15 142 -46 q 153 64 153 17 l 153 210 q 178 317 153 276 q 243 378 203 358 l 243 382 q 178 451 203 406 q 153 568 153 497 l 153 714 q 147 784 153 757 q 128 828 142 811 q 90 853 114 844 q 32 864 67 861 l 32 981 z "},"~":{"ha":801,"x_min":60,"x_max":740,"o":"m 60 281 q 117 447 60 392 q 263 503 175 503 q 342 488 306 503 q 413 455 379 472 q 478 422 447 438 q 542 407 510 407 q 617 501 617 407 l 740 501 q 691 336 740 393 q 557 279 642 279 q 474 294 514 279 q 398 328 435 310 q 327 363 361 347 q 261 378 293 378 q 203 349 224 378 q 183 281 183 321 l 60 281 z "},"…":{"ha":1118,"x_min":65,"x_max":1081,"o":"m 65 99 q 74 143 65 122 q 99 179 83 164 q 134 203 114 194 q 176 211 154 211 q 253 179 221 211 q 286 99 286 147 q 253 15 286 46 q 176 -15 221 -15 q 99 15 132 -15 q 65 99 65 46 m 463 99 q 472 143 463 122 q 496 179 481 164 q 531 203 511 194 q 574 211 551 211 q 651 179 618 211 q 683 99 683 147 q 651 15 683 46 q 574 -15 618 -15 q 496 15 529 -15 q 463 99 463 46 m 860 99 q 869 143 860 122 q 893 179 878 164 q 928 203 908 194 q 971 211 949 211 q 1048 179 1015 211 q 1081 99 1081 147 q 1048 15 1081 46 q 971 -15 1015 -15 q 893 15 926 -15 q 860 99 860 46 z "},"–":{"ha":694,"x_min":50,"x_max":644,"o":"m 644 376 l 644 261 l 50 261 l 50 376 l 644 376 z "},"—":{"ha":1268,"x_min":50,"x_max":1218,"o":"m 1218 375 l 1218 261 l 50 261 l 50 375 l 1218 375 z "},"‘":{"ha":318,"x_min":31,"x_max":269,"o":"m 171 826 q 242 785 217 817 q 267 710 267 754 q 238 633 267 665 q 154 600 208 600 q 111 608 133 600 q 72 637 89 617 q 42 689 54 657 q 31 767 31 721 q 46 858 31 814 q 88 938 61 901 q 147 1004 114 975 q 217 1053 181 1033 l 269 981 q 193 918 226 957 q 150 831 160 879 l 171 826 z "},"’":{"ha":318,"x_min":49,"x_max":286,"o":"m 147 826 q 76 867 101 836 q 51 943 51 899 q 81 1020 51 988 q 164 1053 110 1053 q 206 1044 185 1053 q 246 1016 228 1036 q 275 965 264 996 q 286 888 286 933 q 271 795 286 839 q 229 715 256 751 q 169 648 203 678 q 101 600 136 618 l 49 672 q 124 735 90 696 q 168 822 158 774 l 147 826 z "},"÷":{"ha":761,"x_min":56,"x_max":706,"o":"m 279 108 q 308 176 279 147 q 378 206 338 206 q 447 176 418 206 q 475 108 475 147 q 447 38 475 67 q 378 10 418 10 q 308 38 338 10 q 279 108 279 67 m 279 578 q 287 614 279 596 q 308 645 294 632 q 340 667 322 658 q 378 675 358 675 q 447 645 418 675 q 475 578 475 615 q 447 508 475 536 q 378 479 418 479 q 308 508 338 479 q 279 578 279 536 m 706 396 l 706 290 l 56 290 l 56 396 l 706 396 z "},"−":{"ha":657,"x_min":56,"x_max":601,"o":"m 601 486 l 601 381 l 56 381 l 56 486 l 601 486 z "},"×":{"ha":618,"x_min":54,"x_max":563,"o":"m 54 243 l 226 415 l 54 589 l 136 671 l 308 499 l 481 669 l 563 588 l 390 415 l 563 244 l 481 163 l 308 333 l 136 161 l 54 243 z "},"$":{"ha":768,"x_min":85,"x_max":679,"o":"m 332 1010 l 453 1010 l 453 860 q 540 840 494 854 q 631 801 586 826 l 581 668 q 490 705 540 690 q 392 719 440 719 q 309 698 342 719 q 276 636 276 676 q 304 576 276 597 q 399 532 332 554 l 463 511 q 624 415 568 476 q 679 260 679 353 q 663 173 679 214 q 616 100 647 132 q 539 47 585 68 q 432 17 493 25 l 432 -142 l 311 -142 l 311 14 q 192 38 246 19 q 89 88 139 56 l 151 219 q 253 171 201 186 q 354 156 306 156 q 456 181 425 156 q 488 247 488 207 q 461 308 488 283 q 368 354 435 332 l 299 376 q 215 412 254 390 q 147 463 176 433 q 101 530 118 492 q 85 618 85 568 q 103 713 85 669 q 155 788 122 757 q 233 838 188 819 q 332 860 278 857 l 332 1010 z "},"A":{"ha":879,"x_min":17,"x_max":864,"o":"m 326 342 l 549 342 l 508 458 q 472 567 489 513 q 440 678 456 622 l 438 678 q 404 570 422 625 q 367 458 386 515 l 326 342 m 343 875 l 540 875 l 864 0 l 663 0 l 594 201 l 283 201 l 215 0 l 17 0 l 343 875 z "},"B":{"ha":792,"x_min":96,"x_max":735,"o":"m 408 875 q 628 815 547 875 q 708 647 708 756 q 694 575 708 607 q 656 520 679 543 q 605 482 633 497 q 547 460 576 467 q 620 437 586 453 q 680 394 654 421 q 720 331 706 368 q 735 247 735 294 q 711 148 735 193 q 644 69 688 103 q 538 18 600 36 q 401 0 476 0 l 96 0 l 96 875 l 408 875 m 286 525 l 376 525 q 476 552 439 525 q 513 633 513 579 q 478 706 513 682 q 381 731 444 731 l 286 731 l 286 525 m 286 144 l 376 144 q 493 172 447 144 q 539 265 539 199 q 490 355 539 328 q 371 382 442 382 l 286 382 l 286 144 z "},"C":{"ha":792,"x_min":56,"x_max":753,"o":"m 528 132 q 636 143 592 132 q 713 174 681 154 l 751 35 q 657 0 718 15 q 508 -15 596 -15 q 326 16 410 -15 q 183 106 243 47 q 89 249 122 165 q 56 439 56 333 q 88 625 56 542 q 180 767 121 708 q 324 858 239 826 q 513 890 408 890 q 659 874 601 890 q 753 838 717 857 l 710 697 q 630 730 674 717 q 532 743 586 743 q 425 726 475 743 q 338 673 375 710 q 278 578 300 636 q 257 439 257 521 q 278 302 257 360 q 335 207 299 244 q 422 151 372 169 q 528 132 471 132 z "},"D":{"ha":908,"x_min":96,"x_max":854,"o":"m 401 875 q 586 849 503 875 q 729 769 669 822 q 822 638 789 717 q 854 456 854 560 q 815 251 854 336 q 710 109 776 165 q 553 26 643 53 q 364 0 464 0 l 96 0 l 96 875 l 401 875 m 286 147 l 351 147 q 465 162 410 147 q 561 212 519 176 q 628 306 603 247 q 653 456 653 365 q 578 658 653 588 q 376 728 503 728 l 286 728 l 286 147 z "},"E":{"ha":718,"x_min":96,"x_max":669,"o":"m 96 875 l 665 875 l 665 728 l 286 728 l 286 528 l 629 528 l 629 382 l 286 382 l 286 147 l 669 147 l 669 0 l 96 0 l 96 875 z "},"F":{"ha":690,"x_min":96,"x_max":651,"o":"m 651 875 l 651 728 l 286 728 l 286 496 l 621 496 l 621 350 l 286 350 l 286 0 l 96 0 l 96 875 l 651 875 z "},"G":{"ha":876,"x_min":56,"x_max":807,"o":"m 515 890 q 661 876 597 890 q 776 839 725 863 l 736 710 q 636 744 688 733 q 535 756 585 756 q 427 738 478 756 q 339 681 376 719 q 279 581 301 642 q 257 436 257 521 q 324 203 257 285 q 517 122 392 122 q 625 136 589 122 l 625 340 l 481 340 l 481 482 l 807 482 l 807 39 q 681 0 753 15 q 515 -15 608 -15 q 334 14 418 -15 q 188 101 250 43 q 91 242 126 158 q 56 436 56 326 q 91 631 56 546 q 188 774 126 717 q 333 860 249 831 q 515 890 417 890 z "},"H":{"ha":906,"x_min":96,"x_max":808,"o":"m 96 0 l 96 875 l 286 875 l 286 528 l 618 528 l 618 875 l 808 875 l 808 0 l 618 0 l 618 378 l 286 378 l 286 0 l 96 0 z "},"I":{"ha":383,"x_min":96,"x_max":286,"o":"m 286 875 l 286 0 l 96 0 l 96 875 l 286 875 z "},"J":{"ha":404,"x_min":-26,"x_max":310,"o":"m 310 875 l 310 160 q 307 62 310 106 q 296 -18 304 18 q 273 -83 288 -54 q 236 -139 258 -112 q 121 -215 190 -193 q -26 -236 51 -236 l -26 -90 q 36 -79 10 -90 q 79 -51 63 -68 q 112 7 104 -29 q 119 88 119 43 l 119 875 l 310 875 z "},"K":{"ha":850,"x_min":96,"x_max":851,"o":"m 96 0 l 96 875 l 286 875 l 286 507 l 588 875 l 824 875 l 497 493 l 851 0 l 617 0 l 358 374 l 286 297 l 286 0 l 96 0 z "},"L":{"ha":650,"x_min":96,"x_max":639,"o":"m 96 875 l 286 875 l 286 150 l 639 150 l 639 0 l 96 0 l 96 875 z "},"M":{"ha":1157,"x_min":89,"x_max":1068,"o":"m 151 875 l 392 875 l 517 476 q 534 419 525 450 q 551 358 543 389 q 567 299 560 328 q 578 244 574 269 l 583 244 q 594 297 588 267 q 610 358 601 326 q 626 421 618 390 q 642 476 635 451 l 763 875 l 1003 875 l 1068 0 l 889 0 q 872 289 881 144 q 861 581 864 433 l 860 694 l 856 694 q 816 535 838 618 q 775 389 794 451 l 651 0 l 504 0 l 378 390 q 333 549 354 465 q 300 694 313 632 l 296 694 q 294 590 296 644 q 291 481 293 535 q 287 374 289 426 q 282 279 285 322 l 265 0 l 89 0 l 151 875 z "},"N":{"ha":931,"x_min":96,"x_max":835,"o":"m 96 875 l 269 875 l 571 414 q 627 322 601 367 q 664 251 653 276 l 667 251 q 658 431 658 342 q 658 613 658 521 l 658 875 l 835 875 l 835 0 l 661 0 l 381 425 q 345 483 363 453 q 313 540 328 513 q 285 591 297 568 q 268 629 274 614 l 265 629 q 273 445 272 533 q 274 265 274 357 l 274 0 l 96 0 l 96 875 z "},"O":{"ha":978,"x_min":56,"x_max":922,"o":"m 492 890 q 664 860 585 890 q 800 772 743 829 q 890 629 857 714 q 922 436 922 544 q 889 247 922 331 q 797 106 856 164 q 659 16 739 47 q 486 -15 579 -15 q 314 15 393 -15 q 178 102 235 44 q 88 244 121 160 q 56 436 56 328 q 89 626 56 542 q 181 769 122 710 q 319 859 239 828 q 492 890 399 890 m 257 436 q 276 301 257 358 q 326 205 294 243 q 401 148 358 167 q 492 129 443 129 q 581 148 539 129 q 654 205 624 167 q 703 301 685 243 q 721 436 721 358 q 702 575 721 517 q 651 672 683 633 q 577 728 619 710 q 486 746 535 746 q 396 726 438 746 q 324 669 354 707 q 275 572 293 631 q 257 436 257 514 z "},"P":{"ha":778,"x_min":96,"x_max":738,"o":"m 96 875 l 403 875 q 541 857 479 875 q 647 804 603 839 q 714 720 690 769 q 738 607 738 671 q 710 478 738 532 q 634 388 682 424 q 522 335 586 353 q 386 318 458 318 l 286 318 l 286 0 l 96 0 l 96 875 m 286 464 l 364 464 q 433 470 400 464 q 490 492 465 476 q 528 534 514 508 q 542 599 542 560 q 496 699 542 667 q 379 731 450 731 l 286 731 l 286 464 z "},"Q":{"ha":978,"x_min":56,"x_max":951,"o":"m 490 890 q 663 860 583 890 q 799 772 742 829 q 890 629 857 714 q 922 436 922 544 q 855 174 922 283 q 665 -3 788 64 l 503 -93 q 562 -105 533 -96 q 622 -124 590 -114 q 687 -143 653 -135 q 763 -151 721 -151 q 831 -140 797 -151 q 885 -112 864 -129 l 951 -240 q 881 -279 928 -260 q 767 -299 833 -299 q 657 -285 708 -299 q 558 -256 606 -272 q 467 -227 511 -240 q 376 -214 422 -214 q 301 -223 335 -214 q 233 -253 268 -232 l 169 -133 l 394 -4 q 147 138 239 24 q 56 436 56 251 q 88 626 56 542 q 179 769 121 710 q 317 859 238 828 q 490 890 397 890 m 257 438 q 275 301 257 360 q 324 203 293 243 q 396 144 354 164 q 486 125 438 125 q 578 145 536 125 q 653 205 621 165 q 703 303 685 244 q 721 438 721 361 q 702 576 721 518 q 652 672 683 635 q 578 728 621 710 q 488 746 535 746 q 397 727 439 746 q 324 669 356 708 q 275 573 293 631 q 257 438 257 515 z "},"R":{"ha":793,"x_min":96,"x_max":772,"o":"m 96 875 l 428 875 q 558 853 501 875 q 651 795 614 832 q 708 709 689 758 q 726 603 726 660 q 710 509 726 550 q 670 438 694 468 q 616 388 646 408 q 558 356 586 368 l 772 0 l 554 0 l 386 322 l 285 322 l 285 0 l 96 0 l 96 875 m 285 468 l 360 468 q 483 499 435 468 q 531 600 531 529 q 492 697 531 663 q 381 731 454 731 l 285 731 l 285 468 z "},"S":{"ha":744,"x_min":57,"x_max":690,"o":"m 379 890 q 529 874 464 890 q 646 831 594 857 l 603 689 q 493 731 546 717 q 390 746 440 746 q 287 719 324 746 q 250 649 250 693 q 282 579 250 603 q 385 533 314 556 l 468 507 q 631 408 572 472 q 690 251 690 344 q 669 147 690 196 q 607 63 649 99 q 503 6 565 26 q 357 -15 440 -15 q 69 49 200 -15 l 113 190 q 229 145 172 161 q 349 129 286 129 q 460 156 422 129 q 497 232 497 183 q 491 265 497 249 q 468 295 485 281 q 423 324 451 310 q 349 353 394 339 l 275 378 q 186 417 226 394 q 117 468 146 439 q 73 537 89 497 q 57 629 57 576 q 78 734 57 686 q 140 817 99 782 q 241 871 181 851 q 379 890 301 890 z "},"T":{"ha":706,"x_min":14,"x_max":693,"o":"m 693 875 l 693 725 l 446 725 l 446 0 l 256 0 l 256 725 l 14 725 l 14 875 l 693 875 z "},"U":{"ha":918,"x_min":93,"x_max":824,"o":"m 93 875 l 283 875 l 283 351 q 327 187 283 243 q 463 131 371 131 q 593 188 553 131 q 633 335 633 244 l 633 875 l 824 875 l 824 349 q 733 75 824 165 q 463 -15 642 -15 q 192 75 290 -15 q 93 356 93 165 l 93 875 z "},"V":{"ha":851,"x_min":8,"x_max":844,"o":"m 210 875 l 356 428 q 372 374 363 406 q 392 310 382 343 q 410 243 401 276 q 425 183 419 210 l 429 183 q 462 305 440 236 q 501 429 483 374 l 649 875 l 844 875 l 532 0 l 325 0 l 8 875 l 210 875 z "},"W":{"ha":1206,"x_min":11,"x_max":1194,"o":"m 204 875 l 300 471 q 310 418 304 453 q 324 344 317 383 q 338 265 332 304 q 349 201 344 226 l 351 201 q 362 266 356 228 q 376 344 368 304 q 391 417 383 383 q 403 471 399 451 l 504 875 l 703 875 l 804 472 q 815 419 808 454 q 831 344 822 385 q 846 265 839 304 q 857 201 853 226 l 860 201 q 871 266 864 228 q 885 343 878 304 q 900 417 893 382 q 911 472 907 453 l 1003 875 l 1194 875 l 971 0 l 763 0 l 650 451 q 624 561 636 507 q 601 674 613 615 l 599 674 q 576 563 588 615 q 551 453 565 510 l 443 0 l 239 0 l 11 875 l 204 875 z "},"X":{"ha":869,"x_min":18,"x_max":851,"o":"m 253 875 l 436 569 l 619 875 l 838 875 l 556 444 l 851 0 l 626 0 l 426 319 l 235 0 l 18 0 l 303 444 l 31 875 l 253 875 z "},"Y":{"ha":815,"x_min":13,"x_max":808,"o":"m 226 875 l 413 535 l 601 875 l 808 875 l 503 361 l 503 0 l 313 0 l 313 361 l 13 875 l 226 875 z "},"Z":{"ha":744,"x_min":35,"x_max":706,"o":"m 693 875 l 693 767 l 269 144 l 706 144 l 706 0 l 35 0 l 35 121 l 450 731 l 50 731 l 50 875 l 693 875 z "},"`":{"ha":299,"x_min":24,"x_max":278,"o":"m 24 1000 l 176 1000 l 278 771 l 171 771 l 24 1000 z "},"a":{"ha":703,"x_min":43,"x_max":629,"o":"m 94 604 q 221 658 154 639 q 363 676 288 676 q 472 663 422 676 q 556 619 521 649 q 610 542 592 589 q 629 431 629 496 l 629 0 l 486 0 l 469 68 l 464 68 q 383 7 432 29 q 268 -15 333 -15 q 172 1 214 -15 q 101 44 131 17 q 58 108 72 71 q 43 189 43 146 q 67 287 43 246 q 135 354 92 328 q 235 393 178 381 q 360 406 293 406 l 443 406 l 443 446 q 415 513 443 492 q 335 535 386 535 q 252 522 294 535 q 158 482 210 510 l 94 604 m 444 290 l 385 289 q 267 260 300 286 q 233 199 233 235 q 262 134 233 151 q 326 117 290 117 q 395 138 363 117 q 444 186 428 158 l 444 290 z "},"b":{"ha":789,"x_min":86,"x_max":740,"o":"m 740 329 q 717 186 740 250 q 651 77 693 122 q 553 8 610 32 q 429 -15 496 -15 q 318 5 364 -15 q 238 61 272 25 l 232 61 l 219 0 l 86 0 l 86 992 l 269 992 l 269 608 q 351 658 304 640 q 450 676 397 676 q 663 585 586 676 q 740 329 740 493 m 550 325 q 510 481 550 428 q 396 535 469 535 q 324 516 357 535 q 271 474 290 497 l 271 169 q 317 135 289 149 q 378 121 346 121 q 442 133 411 121 q 498 171 474 146 q 536 234 522 196 q 550 325 550 272 z "},"c":{"ha":640,"x_min":47,"x_max":600,"o":"m 431 121 q 509 133 475 121 q 565 156 543 144 l 600 28 q 519 -1 572 13 q 404 -15 467 -15 q 264 7 329 -15 q 151 73 199 29 q 75 181 103 117 q 47 329 47 244 q 74 471 47 407 q 147 581 100 535 q 261 651 194 626 q 407 676 328 676 q 498 668 450 676 q 599 632 546 660 l 560 504 q 497 531 531 521 q 428 542 463 542 q 288 489 342 542 q 235 335 235 436 q 252 234 235 275 q 297 168 269 193 q 360 132 325 143 q 431 121 394 121 z "},"d":{"ha":782,"x_min":47,"x_max":696,"o":"m 511 992 l 696 992 l 696 0 l 564 0 l 544 72 l 538 72 q 466 11 513 38 q 344 -15 419 -15 q 228 8 282 -15 q 133 76 174 32 q 70 185 93 121 q 47 331 47 249 q 68 474 47 410 q 128 583 89 538 q 224 652 167 628 q 354 676 281 676 q 444 663 401 676 q 511 626 486 649 l 511 992 m 511 489 q 464 526 493 511 q 400 542 435 542 q 337 531 367 542 q 284 495 307 519 q 247 431 261 471 q 233 335 233 392 q 246 239 233 279 q 279 172 258 199 q 328 133 300 146 q 389 121 357 121 q 465 142 433 121 q 511 193 496 164 l 511 489 z "},"e":{"ha":721,"x_min":47,"x_max":674,"o":"m 674 283 l 233 283 l 233 278 q 289 160 233 199 q 432 121 344 121 q 530 132 488 121 q 607 158 572 143 l 640 29 q 546 -2 603 11 q 411 -15 489 -15 q 270 5 336 -15 q 155 67 204 25 q 76 172 106 108 q 47 325 47 236 q 71 469 47 404 q 138 579 94 533 q 243 651 182 625 q 379 676 304 676 q 594 594 514 676 q 674 365 674 513 l 674 283 m 485 410 q 478 461 485 436 q 458 505 472 486 q 424 535 444 524 q 372 546 403 546 q 281 508 317 546 q 238 407 244 471 l 485 410 z "},"f":{"ha":513,"x_min":22,"x_max":538,"o":"m 354 993 q 453 980 404 993 q 538 946 501 967 l 501 825 q 454 844 478 836 q 403 851 431 851 q 331 823 354 851 q 307 726 307 794 l 307 663 l 474 663 l 474 529 l 307 529 l 307 0 l 124 0 l 124 529 l 22 529 l 22 663 l 124 663 l 124 765 q 186 935 124 876 q 354 993 249 993 z "},"g":{"ha":788,"x_min":36,"x_max":749,"o":"m 76 438 q 98 536 76 492 q 158 612 119 581 q 248 660 196 643 q 363 676 300 676 q 414 673 386 676 q 465 663 442 669 l 749 663 l 749 546 l 689 546 l 603 558 q 633 503 621 536 q 644 436 644 469 q 569 266 644 331 q 361 201 493 201 q 300 207 326 201 q 265 161 265 193 q 281 128 265 139 q 335 117 296 117 l 483 117 q 659 69 593 117 q 725 -85 725 21 q 699 -184 725 -139 q 626 -262 674 -229 q 513 -312 579 -294 q 364 -331 446 -331 q 124 -277 213 -331 q 36 -124 36 -224 q 67 -44 36 -78 q 151 10 97 -10 q 113 49 132 24 q 93 114 93 75 q 121 193 93 160 q 192 246 149 226 q 151 274 171 257 q 114 315 131 292 q 87 369 97 339 q 76 438 76 400 m 254 -22 q 219 -51 233 -33 q 206 -97 206 -69 q 242 -165 206 -137 q 369 -192 279 -192 q 501 -161 460 -192 q 543 -92 543 -131 q 517 -37 543 -53 q 435 -22 490 -22 l 254 -22 m 464 439 q 435 521 464 493 q 361 549 406 549 q 287 521 315 549 q 258 440 258 493 q 288 357 258 385 q 361 329 317 329 q 435 357 407 329 q 464 439 464 385 z "},"h":{"ha":793,"x_min":86,"x_max":707,"o":"m 271 0 l 86 0 l 86 992 l 271 992 l 271 603 q 363 656 311 635 q 476 676 415 676 q 578 659 535 676 q 651 610 622 642 q 693 535 679 579 q 707 440 707 492 l 707 0 l 522 0 l 522 408 q 494 506 522 476 q 414 535 467 535 q 340 517 378 535 q 271 471 301 500 l 271 0 z "},"i":{"ha":383,"x_min":92,"x_max":292,"o":"m 99 0 l 99 663 l 283 663 l 283 0 l 99 0 m 192 804 q 118 831 144 804 q 92 899 92 858 q 118 966 92 939 q 192 993 144 993 q 265 966 238 993 q 292 899 292 939 q 265 831 292 858 q 192 804 239 804 z "},"j":{"ha":376,"x_min":-62,"x_max":285,"o":"m 92 663 l 276 663 l 276 93 q 265 -53 276 15 q 223 -177 253 -121 q 143 -278 193 -233 q 17 -354 93 -322 l -62 -228 q 7 -185 -22 -207 q 55 -128 36 -162 q 83 -44 74 -94 q 92 83 92 7 l 92 663 m 186 804 q 112 831 138 804 q 86 899 86 858 q 113 966 86 939 q 186 993 139 993 q 258 966 232 993 q 285 899 285 939 q 258 831 285 858 q 186 804 232 804 z "},"k":{"ha":733,"x_min":86,"x_max":728,"o":"m 269 222 l 269 0 l 86 0 l 86 992 l 269 992 l 269 403 l 492 663 l 715 663 l 460 383 l 728 0 l 510 0 l 324 276 l 269 222 z "},"l":{"ha":360,"x_min":89,"x_max":271,"o":"m 89 0 l 89 992 l 271 992 l 271 0 l 89 0 z "},"m":{"ha":1186,"x_min":83,"x_max":1101,"o":"m 268 0 l 83 0 l 83 663 l 228 663 l 250 578 q 347 650 294 624 q 467 676 400 676 q 660 574 608 676 q 761 649 704 622 q 883 676 818 676 q 1045 619 989 676 q 1101 454 1101 563 l 1101 0 l 917 0 l 917 433 q 894 508 917 481 q 826 535 871 535 q 751 517 789 535 q 685 465 713 499 l 685 0 l 500 0 l 500 433 q 477 508 500 481 q 410 535 454 535 q 334 515 372 535 q 268 460 296 494 l 268 0 z "},"n":{"ha":783,"x_min":83,"x_max":699,"o":"m 268 0 l 83 0 l 83 663 l 228 663 l 250 578 q 351 651 296 625 q 472 676 406 676 q 640 617 582 676 q 699 443 699 557 l 699 0 l 514 0 l 514 424 q 489 505 514 475 q 415 535 464 535 q 340 515 379 535 q 268 460 300 494 l 268 0 z "},"o":{"ha":776,"x_min":47,"x_max":728,"o":"m 728 336 q 701 189 728 254 q 628 78 675 124 q 519 9 582 33 q 385 -15 457 -15 q 251 7 313 -15 q 144 72 189 29 q 73 178 99 115 q 47 322 47 242 q 74 473 47 407 q 147 584 100 539 q 256 653 193 629 q 390 676 318 676 q 524 654 463 676 q 631 590 586 632 q 702 483 676 547 q 728 336 728 419 m 538 329 q 525 426 538 386 q 492 492 513 467 q 443 528 471 517 q 386 540 415 540 q 331 530 357 540 q 283 495 304 519 q 250 431 263 471 q 238 329 238 390 q 250 235 238 275 q 284 171 263 196 q 333 133 306 146 q 389 121 360 121 q 444 131 418 121 q 492 167 471 142 q 525 231 513 192 q 538 329 538 271 z "},"p":{"ha":778,"x_min":82,"x_max":731,"o":"m 396 -15 q 324 -6 360 -15 q 265 17 289 3 l 265 -319 l 82 -319 l 82 665 l 222 665 l 242 592 q 333 653 282 631 q 449 676 385 676 q 655 588 579 676 q 731 344 731 500 q 704 190 731 257 q 632 76 678 122 q 525 8 586 31 q 396 -15 464 -15 m 399 538 q 318 516 353 538 q 265 472 283 494 l 265 156 q 372 121 308 121 q 433 133 403 121 q 487 170 463 144 q 526 238 511 196 q 540 339 540 279 q 531 418 540 382 q 504 481 522 454 q 460 522 486 507 q 399 538 433 538 z "},"q":{"ha":782,"x_min":47,"x_max":696,"o":"m 511 33 q 440 -3 483 10 q 353 -15 397 -15 q 224 10 281 -15 q 128 81 168 35 q 68 190 89 126 q 47 332 47 254 q 68 470 47 407 q 128 579 89 533 q 225 651 168 625 q 356 676 282 676 q 456 659 404 676 q 540 606 507 642 l 553 663 l 696 663 l 696 -319 l 511 -319 l 511 33 m 511 481 q 463 523 493 504 q 390 542 432 542 q 330 531 358 542 q 280 494 301 519 q 246 431 258 469 q 233 336 233 392 q 280 175 233 229 q 392 121 326 121 q 463 136 432 121 q 511 172 493 151 l 511 481 z "},"r":{"ha":542,"x_min":83,"x_max":550,"o":"m 83 0 l 83 663 l 226 663 l 247 543 q 322 636 271 596 q 451 676 374 676 q 508 669 483 676 q 550 653 533 663 l 519 507 q 481 522 504 515 q 425 528 457 528 q 312 483 357 528 q 267 335 267 438 l 267 0 l 83 0 z "},"s":{"ha":604,"x_min":50,"x_max":557,"o":"m 483 504 q 325 543 401 543 q 256 528 281 543 q 232 486 232 513 q 253 443 232 460 q 340 407 275 426 l 382 394 q 513 322 468 369 q 557 200 557 275 q 481 43 557 101 q 276 -15 406 -15 q 50 32 144 -15 l 92 168 q 176 134 132 147 q 267 121 221 121 q 348 138 322 121 q 374 183 374 156 q 349 228 374 213 q 254 264 324 244 l 211 276 q 89 350 128 304 q 50 472 50 396 q 118 619 50 563 q 308 676 186 676 q 522 633 429 676 l 483 504 z "},"t":{"ha":531,"x_min":17,"x_max":514,"o":"m 479 529 l 303 529 l 303 224 q 324 159 303 176 q 382 142 346 142 q 439 147 410 142 q 486 163 468 153 l 514 33 q 443 11 490 22 q 343 0 396 0 q 171 48 222 0 q 119 192 119 96 l 119 529 l 17 529 l 17 663 l 119 663 l 119 867 l 303 867 l 303 663 l 479 663 l 479 529 z "},"u":{"ha":779,"x_min":83,"x_max":696,"o":"m 511 663 l 696 663 l 696 0 l 558 0 l 539 75 l 533 75 q 498 44 518 60 q 451 15 478 28 q 390 -7 424 1 q 314 -15 356 -15 q 145 44 207 -15 q 83 221 83 104 l 83 663 l 268 663 l 268 236 q 297 150 268 176 q 369 124 325 124 q 455 144 419 124 q 511 193 490 165 l 511 663 z "},"v":{"ha":703,"x_min":14,"x_max":690,"o":"m 494 663 l 690 663 l 456 0 l 242 0 l 14 663 l 211 663 l 308 332 l 349 132 l 354 132 l 394 332 l 494 663 z "},"w":{"ha":1054,"x_min":13,"x_max":1043,"o":"m 13 663 l 206 663 l 290 311 l 315 138 l 321 138 l 350 311 l 432 663 l 626 663 l 710 311 l 739 138 l 744 138 l 774 311 l 856 663 l 1043 663 l 860 0 l 644 0 l 558 358 l 529 518 l 499 358 l 413 0 l 197 0 l 13 663 z "},"x":{"ha":713,"x_min":13,"x_max":701,"o":"m 467 339 l 701 0 l 489 0 l 419 103 l 351 224 l 289 104 l 222 0 l 13 0 l 244 339 l 26 663 l 232 663 l 300 558 l 361 443 l 419 558 l 482 663 l 683 663 l 467 339 z "},"y":{"ha":722,"x_min":10,"x_max":714,"o":"m 10 663 l 211 663 l 329 347 l 374 186 l 379 186 l 422 349 l 525 663 l 714 663 l 471 -24 q 424 -133 450 -81 q 362 -229 399 -185 q 275 -308 325 -274 q 157 -365 225 -343 l 81 -222 q 211 -142 158 -194 q 283 -15 264 -89 l 289 3 l 10 663 z "},"z":{"ha":582,"x_min":29,"x_max":553,"o":"m 546 550 l 236 133 l 553 133 l 553 0 l 29 0 l 29 117 l 339 529 l 47 529 l 47 663 l 546 663 l 546 550 z "},"€":{"ha":783,"x_min":7,"x_max":746,"o":"m 525 132 q 630 143 586 132 q 706 174 674 154 l 744 35 q 652 0 711 15 q 504 -15 593 -15 q 364 5 429 -15 q 247 64 299 25 q 159 161 196 103 q 106 294 122 219 l 7 294 l 7 386 l 92 386 q 90 413 90 401 q 90 439 90 425 l 90 458 l 7 458 l 7 550 l 100 550 q 234 801 128 713 q 508 890 340 890 q 654 874 599 890 q 746 838 710 857 l 703 697 q 624 730 667 717 q 528 743 581 743 q 451 733 488 743 q 384 699 414 722 q 333 638 354 675 q 301 550 311 601 l 635 550 l 635 458 l 290 458 l 290 442 q 290 414 290 426 q 292 386 290 401 l 635 386 l 635 294 l 310 294 q 393 169 335 207 q 525 132 451 132 z "},"‚":{"ha":322,"x_min":44,"x_max":290,"o":"m 144 -12 q 72 26 99 -4 q 44 100 44 56 q 75 178 44 144 q 160 213 106 213 q 204 203 181 213 q 247 175 228 194 q 278 124 265 156 q 290 46 290 92 q 275 -45 290 -1 q 234 -126 260 -89 q 175 -192 208 -162 q 106 -240 142 -222 l 53 -168 q 128 -106 94 -144 q 172 -18 163 -67 l 144 -12 z "},"ƒ":{"ha":786,"x_min":18,"x_max":749,"o":"m 389 44 q 344 -107 376 -46 q 267 -206 311 -168 q 174 -262 224 -243 q 78 -287 125 -281 l 18 -137 q 142 -77 93 -119 q 203 53 190 -35 l 272 531 l 188 531 l 188 663 l 292 663 l 307 764 q 397 967 325 892 q 599 1042 469 1042 q 681 1031 640 1042 q 749 1004 722 1019 l 706 879 q 661 894 685 889 q 614 900 638 900 q 528 863 557 900 q 489 749 500 826 l 476 663 l 646 663 l 646 529 l 457 529 l 389 44 z "},"„":{"ha":661,"x_min":44,"x_max":629,"o":"m 144 -12 q 72 26 99 -4 q 44 100 44 56 q 75 178 44 144 q 160 213 106 213 q 204 203 181 213 q 247 175 228 194 q 278 124 265 156 q 290 46 290 92 q 275 -45 290 -1 q 234 -126 260 -89 q 175 -192 208 -162 q 106 -240 142 -222 l 53 -168 q 128 -106 94 -144 q 172 -18 163 -67 l 144 -12 m 483 -12 q 410 26 438 -4 q 383 100 383 56 q 414 178 383 144 q 499 213 444 213 q 542 203 519 213 q 585 175 565 194 q 617 124 604 156 q 629 46 629 92 q 614 -45 629 -1 q 572 -126 599 -89 q 513 -192 546 -162 q 444 -240 479 -222 l 392 -168 q 467 -106 433 -144 q 511 -18 501 -67 l 483 -12 z "},"†":{"ha":571,"x_min":35,"x_max":536,"o":"m 536 663 l 536 518 l 378 518 l 378 -56 l 193 -56 l 193 518 l 35 518 l 35 663 l 193 663 l 193 875 l 378 875 l 378 663 l 536 663 z "},"‡":{"ha":571,"x_min":35,"x_max":536,"o":"m 536 290 l 536 146 l 378 146 l 378 -56 l 193 -56 l 193 146 l 35 146 l 35 290 l 193 290 l 193 518 l 35 518 l 35 663 l 193 663 l 193 875 l 378 875 l 378 663 l 536 663 l 536 518 l 378 518 l 378 290 l 536 290 z "},"ˆ":{"ha":515,"x_min":31,"x_max":486,"o":"m 486 761 l 349 761 l 261 879 l 171 761 l 31 761 l 208 968 l 311 968 l 486 761 z "},"‰":{"ha":1696,"x_min":39,"x_max":1657,"o":"m 206 0 l 813 1042 l 924 1042 l 317 0 l 206 0 m 1076 250 q 1061 149 1076 197 q 1016 64 1046 100 q 941 6 986 28 q 838 -15 896 -15 q 736 6 781 -15 q 662 64 692 28 q 617 149 632 100 q 601 250 601 197 q 617 351 601 303 q 665 435 633 399 q 740 492 696 471 q 842 514 785 514 q 941 492 897 514 q 1015 435 985 471 q 1061 351 1046 399 q 1076 250 1076 303 m 935 250 q 930 309 935 281 q 915 360 925 338 q 886 396 904 382 q 842 410 868 410 q 798 397 817 410 q 767 362 779 383 q 749 311 754 340 q 743 250 743 282 q 748 189 743 218 q 765 138 753 160 q 794 102 776 115 q 838 89 813 89 q 911 135 888 89 q 935 250 935 181 m 514 778 q 499 676 514 725 q 453 592 483 628 q 377 534 422 556 q 274 513 332 513 q 173 534 217 513 q 99 592 129 556 q 54 676 69 628 q 39 778 39 725 q 55 878 39 831 q 102 963 71 926 q 177 1020 133 999 q 278 1042 221 1042 q 378 1020 335 1042 q 453 963 422 999 q 499 878 483 926 q 514 778 514 831 m 372 778 q 367 833 372 806 q 351 881 363 860 q 322 915 340 901 q 278 928 304 928 q 234 915 253 928 q 203 882 215 903 q 186 834 192 861 q 181 778 181 807 q 185 717 181 746 q 201 665 190 688 q 231 630 213 643 q 274 617 249 617 q 348 663 324 617 q 372 778 372 708 m 1657 250 q 1642 149 1657 197 q 1596 64 1626 100 q 1521 6 1565 28 q 1417 -15 1476 -15 q 1316 6 1360 -15 q 1242 64 1272 28 q 1197 149 1213 100 q 1182 250 1182 197 q 1198 351 1182 303 q 1245 435 1214 399 q 1320 492 1276 471 q 1421 514 1364 514 q 1522 492 1478 514 q 1596 435 1565 471 q 1642 351 1626 399 q 1657 250 1657 303 m 1515 250 q 1510 309 1515 281 q 1494 360 1506 338 q 1465 396 1483 382 q 1421 410 1447 410 q 1377 397 1396 410 q 1347 362 1358 383 q 1329 311 1335 340 q 1324 250 1324 282 q 1328 189 1324 218 q 1344 138 1333 160 q 1374 102 1356 115 q 1417 89 1392 89 q 1492 135 1468 89 q 1515 250 1515 181 z "},"Š":{"ha":744,"x_min":57,"x_max":690,"o":"m 379 890 q 529 874 464 890 q 646 831 594 857 l 603 689 q 493 731 546 717 q 390 746 440 746 q 287 719 324 746 q 250 649 250 693 q 282 579 250 603 q 385 533 314 556 l 468 507 q 631 409 572 474 q 690 251 690 344 q 669 147 690 196 q 607 63 649 99 q 503 6 565 26 q 357 -15 440 -15 q 69 49 200 -15 l 113 190 q 229 145 172 161 q 349 129 286 129 q 460 156 422 129 q 497 232 497 183 q 491 264 497 249 q 468 294 485 279 q 423 323 451 308 q 349 353 394 338 l 275 378 q 186 416 226 394 q 117 467 146 438 q 73 537 89 497 q 57 629 57 576 q 78 734 57 686 q 140 817 99 782 q 241 871 181 851 q 379 890 301 890 m 147 1142 l 290 1142 l 379 1044 l 469 1142 l 607 1142 l 447 965 l 310 965 l 147 1142 z "},"‹":{"ha":414,"x_min":43,"x_max":375,"o":"m 228 106 l 43 329 l 228 551 l 375 551 l 207 329 l 375 106 l 228 106 z "},"Œ":{"ha":1219,"x_min":56,"x_max":1169,"o":"m 485 -15 q 310 15 389 -15 q 174 102 231 44 q 87 244 118 160 q 56 438 56 328 q 87 627 56 543 q 176 769 118 711 q 313 859 233 828 q 489 890 393 890 q 629 875 561 890 l 1165 875 l 1165 728 l 789 728 l 789 528 l 1129 528 l 1129 382 l 789 382 l 789 147 l 1169 147 l 1169 0 l 624 0 q 556 -12 590 -8 q 485 -15 521 -15 m 486 746 q 394 727 436 746 q 322 669 353 708 q 274 573 292 631 q 257 438 257 515 q 274 302 257 360 q 323 206 292 244 q 397 148 354 167 q 490 129 440 129 q 547 135 519 129 q 599 154 575 140 l 599 721 q 486 746 549 746 z "},"Ž":{"ha":744,"x_min":35,"x_max":706,"o":"m 693 875 l 693 767 l 269 144 l 706 144 l 706 0 l 35 0 l 35 121 l 450 731 l 50 731 l 50 875 l 693 875 m 144 1142 l 285 1142 l 375 1046 l 465 1142 l 604 1142 l 443 965 l 306 965 l 144 1142 z "},"“":{"ha":646,"x_min":31,"x_max":597,"o":"m 171 826 q 242 785 217 817 q 267 710 267 754 q 239 633 267 665 q 157 600 211 600 q 113 608 136 600 q 72 637 90 617 q 42 689 54 657 q 31 767 31 721 q 46 858 31 814 q 88 938 61 901 q 147 1004 114 975 q 217 1053 181 1033 l 269 981 q 193 918 226 957 q 150 831 160 879 l 171 826 m 499 826 q 569 785 544 817 q 594 710 594 754 q 567 633 594 665 q 485 600 539 600 q 442 608 464 600 q 401 637 419 617 q 372 689 383 657 q 360 767 360 721 q 375 858 360 814 q 416 938 390 901 q 475 1004 442 975 q 544 1053 508 1033 l 597 981 q 522 918 556 957 q 478 831 488 879 l 499 826 z "},"”":{"ha":646,"x_min":49,"x_max":614,"o":"m 147 826 q 76 867 101 836 q 51 943 51 899 q 79 1020 51 988 q 161 1053 107 1053 q 204 1044 182 1053 q 244 1016 226 1036 q 274 965 263 996 q 286 888 286 933 q 271 795 286 839 q 229 715 256 751 q 169 648 203 678 q 101 600 136 618 l 49 672 q 124 735 90 696 q 168 822 158 774 l 147 826 m 475 826 q 404 867 429 836 q 379 943 379 899 q 407 1020 379 988 q 489 1053 435 1053 q 532 1044 510 1053 q 572 1016 554 1036 q 602 965 590 996 q 614 888 614 933 q 599 795 614 839 q 558 715 583 751 q 499 648 532 678 q 429 600 465 618 l 376 672 q 452 735 418 696 q 496 822 486 774 l 475 826 z "},"•":{"ha":490,"x_min":61,"x_max":429,"o":"m 61 379 q 75 452 61 418 q 114 511 89 486 q 173 550 139 536 q 246 564 207 564 q 318 549 285 564 q 376 510 351 535 q 415 451 401 485 q 429 379 429 418 q 415 307 429 340 q 376 249 401 274 q 318 210 351 224 q 246 196 285 196 q 173 210 207 196 q 114 249 139 224 q 75 307 89 274 q 61 379 61 340 z "},"˜":{"ha":560,"x_min":53,"x_max":492,"o":"m 53 775 q 85 910 53 863 q 181 958 118 958 q 233 948 208 958 q 279 926 257 938 q 320 903 301 914 q 356 893 339 893 q 391 914 382 893 q 400 965 400 935 l 490 965 q 365 785 492 785 q 307 794 333 785 q 259 817 281 804 q 220 839 238 829 q 188 849 203 849 q 154 829 164 849 q 143 775 144 810 l 53 775 z "},"™":{"ha":1024,"x_min":56,"x_max":989,"o":"m 501 875 l 631 875 l 676 708 q 701 613 688 668 q 724 514 715 558 l 728 514 q 746 607 735 560 q 771 703 757 654 l 818 875 l 947 875 l 989 381 l 890 381 l 876 547 q 871 647 874 592 q 871 761 868 701 l 868 761 q 840 640 853 692 q 814 546 826 589 l 764 381 l 685 381 l 629 553 q 604 640 618 588 q 579 761 590 693 l 576 761 q 574 649 576 707 q 569 556 572 592 l 558 381 l 461 381 l 501 875 m 431 875 l 431 794 l 293 794 l 293 381 l 190 381 l 190 794 l 56 794 l 56 875 l 431 875 z "},"š":{"ha":604,"x_min":50,"x_max":557,"o":"m 483 504 q 325 543 401 543 q 256 528 281 543 q 232 486 232 513 q 253 443 232 460 q 340 407 275 426 l 382 394 q 513 322 468 369 q 557 200 557 275 q 481 43 557 101 q 276 -15 406 -15 q 50 32 144 -15 l 92 168 q 176 134 132 147 q 267 121 221 121 q 348 138 322 121 q 374 183 374 156 q 349 228 374 213 q 254 264 324 244 l 211 276 q 89 350 128 304 q 50 472 50 396 q 118 619 50 563 q 308 676 186 676 q 522 633 429 676 l 483 504 m 71 958 l 208 958 l 294 851 l 382 958 l 524 958 l 349 761 l 243 761 l 71 958 z "},"›":{"ha":413,"x_min":40,"x_max":372,"o":"m 40 106 l 208 328 l 40 551 l 188 551 l 372 328 l 188 106 l 40 106 z "},"œ":{"ha":1176,"x_min":54,"x_max":1154,"o":"m 1154 283 l 718 283 l 718 278 q 772 160 718 199 q 914 121 826 121 q 1011 132 969 121 q 1088 158 1053 143 l 1121 29 q 1028 -2 1083 11 q 893 -15 972 -15 q 739 14 810 -15 q 626 101 668 43 q 526 15 586 46 q 389 -15 465 -15 q 256 7 317 -15 q 149 72 194 29 q 79 178 104 115 q 54 322 54 242 q 80 473 54 407 q 151 584 106 539 q 258 653 196 629 q 392 676 319 676 q 531 647 468 676 q 633 561 593 617 q 728 647 669 617 q 861 676 786 676 q 1075 594 996 676 q 1154 365 1154 513 l 1154 283 m 540 329 q 528 426 540 386 q 494 492 515 467 q 447 528 474 517 q 390 540 419 540 q 335 530 361 540 q 288 495 308 519 q 256 431 268 471 q 244 329 244 390 q 257 235 244 275 q 290 171 269 196 q 337 133 310 146 q 393 121 364 121 q 449 131 422 121 q 495 167 475 142 q 528 231 515 192 q 540 329 540 271 m 965 410 q 959 461 965 436 q 940 505 953 486 q 906 535 926 524 q 854 546 885 546 q 764 508 799 546 q 722 407 729 471 l 965 410 z "},"ž":{"ha":582,"x_min":29,"x_max":553,"o":"m 546 550 l 236 133 l 553 133 l 553 0 l 29 0 l 29 117 l 339 529 l 47 529 l 47 663 l 546 663 l 546 550 m 81 958 l 217 958 l 304 851 l 390 958 l 533 958 l 357 761 l 251 761 l 81 958 z "},"Ÿ":{"ha":815,"x_min":13,"x_max":808,"o":"m 226 875 l 413 535 l 601 875 l 808 875 l 503 361 l 503 0 l 313 0 l 313 361 l 13 875 l 226 875 m 190 1043 q 216 1104 190 1079 q 279 1129 242 1129 q 340 1104 315 1129 q 365 1043 365 1079 q 340 980 365 1006 q 279 954 315 954 q 216 980 242 954 q 190 1043 190 1006 m 461 1043 q 488 1104 461 1079 q 550 1129 514 1129 q 612 1104 586 1129 q 638 1043 638 1079 q 612 980 638 1006 q 550 954 586 954 q 488 980 514 954 q 461 1043 461 1006 z "},"¡":{"ha":364,"x_min":76,"x_max":286,"o":"m 110 349 l 256 349 l 278 -326 l 85 -326 l 110 349 m 76 568 q 108 646 76 617 q 182 675 139 675 q 255 646 224 675 q 286 568 286 617 q 255 492 286 522 q 182 461 224 461 q 108 492 139 461 q 76 568 76 522 z "},"¢":{"ha":675,"x_min":64,"x_max":615,"o":"m 447 221 q 525 231 492 221 q 579 253 558 242 l 615 128 q 565 107 596 117 q 496 90 535 97 l 496 -31 l 350 -31 l 350 90 q 235 124 288 99 q 144 192 182 150 q 85 293 107 235 q 64 426 64 351 q 84 553 64 496 q 142 655 104 611 q 232 727 179 699 q 350 767 285 756 l 350 890 l 496 890 l 496 767 q 553 753 524 763 q 615 729 583 744 l 576 603 q 513 629 549 619 q 440 639 476 639 q 303 587 354 639 q 251 432 251 535 q 269 332 251 372 q 314 267 286 292 q 376 231 342 242 q 447 221 411 221 z "},"£":{"ha":731,"x_min":71,"x_max":665,"o":"m 110 0 l 71 114 q 185 215 150 153 q 200 361 219 276 l 79 361 l 79 490 l 185 490 q 174 551 179 518 q 169 619 169 585 q 191 731 169 681 q 252 816 213 781 q 346 871 292 851 q 467 890 400 890 q 572 878 521 890 q 647 850 624 865 l 610 718 q 551 741 583 732 q 478 750 518 750 q 422 738 446 750 q 381 706 397 726 q 355 660 364 686 q 346 607 346 635 q 349 543 346 568 q 360 490 353 518 l 569 490 l 569 361 l 375 361 q 369 238 382 290 q 313 150 357 186 l 314 144 l 665 144 l 665 0 l 110 0 z "},"¤":{"ha":726,"x_min":43,"x_max":682,"o":"m 126 82 l 43 167 l 158 278 q 129 346 139 308 q 119 424 119 383 q 157 567 119 513 l 43 679 l 128 763 l 239 647 q 298 672 265 664 q 364 681 331 681 q 488 647 435 681 l 599 763 l 682 679 l 565 567 q 606 424 606 506 q 594 342 606 381 q 567 276 583 304 l 682 165 l 599 82 l 485 197 q 360 165 432 165 q 295 175 328 165 q 239 200 263 185 l 126 82 m 472 424 q 444 535 472 496 q 364 575 417 575 q 282 537 311 575 q 253 424 253 499 q 282 311 253 351 q 363 271 311 271 q 440 306 408 271 q 472 424 472 340 z "},"¥":{"ha":811,"x_min":21,"x_max":792,"o":"m 749 326 l 749 219 l 497 219 l 497 0 l 308 0 l 308 219 l 54 219 l 54 326 l 308 326 l 308 365 l 260 449 l 54 449 l 54 556 l 206 556 l 21 875 l 224 875 l 408 511 l 594 875 l 792 875 l 603 556 l 749 556 l 749 449 l 547 449 l 497 365 l 497 326 l 749 326 z "},"¦":{"ha":357,"x_min":111,"x_max":246,"o":"m 111 528 l 111 1042 l 246 1042 l 246 528 l 111 528 m 111 -250 l 111 261 l 246 261 l 246 -250 l 111 -250 z "},"§":{"ha":717,"x_min":57,"x_max":660,"o":"m 101 88 q 303 35 194 35 q 386 57 361 35 q 411 111 411 79 q 383 159 411 142 q 290 200 356 176 l 233 219 q 101 295 146 247 q 57 414 57 343 q 84 517 57 472 q 146 589 111 561 q 113 692 113 628 q 131 774 113 736 q 184 840 149 813 q 270 883 219 868 q 386 899 321 899 q 508 886 450 899 q 610 850 567 874 l 571 722 q 485 756 529 746 q 401 767 442 767 q 322 749 350 767 q 293 697 293 731 q 299 670 293 682 q 320 648 306 658 q 360 627 335 638 q 425 604 386 617 l 482 585 q 613 509 567 557 q 660 386 660 461 q 631 283 660 326 q 568 215 601 239 q 593 117 593 174 q 574 28 593 68 q 519 -40 554 -11 q 434 -83 483 -68 q 324 -99 385 -99 q 61 -46 163 -99 l 101 88 m 499 358 q 474 416 499 394 q 385 461 450 438 l 308 488 q 276 500 293 493 q 247 514 258 507 q 225 484 233 501 q 217 447 217 467 q 244 390 217 411 q 328 349 272 368 l 403 325 q 438 312 421 318 q 469 297 454 306 q 490 326 482 310 q 499 358 499 342 z "},"¨":{"ha":540,"x_min":43,"x_max":497,"o":"m 43 863 q 70 925 43 899 q 133 951 97 951 q 197 925 172 951 q 222 863 222 899 q 197 797 222 824 q 133 771 172 771 q 70 797 97 771 q 43 863 43 824 m 318 863 q 345 925 318 899 q 408 951 372 951 q 472 925 447 951 q 497 863 497 899 q 472 797 497 824 q 408 771 447 771 q 345 797 372 771 q 318 863 318 824 z "},"©":{"ha":979,"x_min":50,"x_max":929,"o":"m 525 268 q 581 274 556 268 q 633 293 606 279 l 656 215 q 518 186 593 186 q 421 201 467 186 q 341 247 375 217 q 288 324 307 278 q 268 431 268 369 q 286 533 268 488 q 337 610 304 578 q 415 659 369 642 q 517 676 461 676 q 583 671 551 676 q 651 649 615 665 l 629 569 q 576 589 603 583 q 525 594 550 594 q 417 552 458 594 q 376 433 376 510 q 390 355 376 386 q 424 304 403 324 q 471 276 444 285 q 525 268 497 268 m 492 882 q 660 853 581 882 q 799 769 739 825 q 894 629 858 713 q 929 435 929 546 q 894 243 929 326 q 798 103 858 160 q 658 17 738 46 q 489 -12 578 -12 q 321 16 400 -12 q 181 101 242 44 q 85 240 121 157 q 50 435 50 324 q 86 627 50 543 q 183 767 122 711 q 324 853 243 824 q 492 882 404 882 m 492 819 q 351 794 418 819 q 234 721 285 769 q 153 601 183 672 q 124 435 124 529 q 153 267 124 339 q 232 147 182 194 q 348 74 282 99 q 489 50 414 50 q 631 75 564 50 q 747 149 697 100 q 826 269 797 197 q 856 435 856 340 q 826 603 856 531 q 748 723 797 675 q 633 795 699 771 q 492 819 567 819 z "},"ª":{"ha":490,"x_min":43,"x_max":424,"o":"m 76 775 q 158 810 114 797 q 250 822 201 822 q 376 785 329 822 q 424 661 424 747 l 424 381 l 331 381 l 319 425 l 317 425 q 189 371 274 371 q 81 408 118 371 q 43 503 43 446 q 59 567 43 540 q 103 611 75 594 q 168 636 131 628 q 249 644 206 644 l 304 644 l 304 672 q 285 715 304 701 q 232 729 265 729 q 178 722 206 729 q 117 694 150 714 l 76 775 m 304 571 l 265 569 q 187 550 208 567 q 165 510 165 533 q 184 468 165 479 q 226 457 203 457 q 272 469 250 457 q 304 501 293 482 l 304 571 z "},"«":{"ha":704,"x_min":43,"x_max":667,"o":"m 519 106 l 335 329 l 519 551 l 667 551 l 499 329 l 667 106 l 519 106 m 228 106 l 43 329 l 228 551 l 375 551 l 207 329 l 375 106 l 228 106 z "},"®":{"ha":735,"x_min":51,"x_max":683,"o":"m 683 646 q 660 506 683 567 q 596 405 638 446 q 496 343 554 364 q 368 322 438 322 q 241 343 299 322 q 141 403 183 364 q 75 501 99 443 q 51 635 51 560 q 74 774 51 714 q 139 874 97 833 q 238 934 181 914 q 365 954 296 954 q 493 934 435 954 q 594 875 551 914 q 660 778 636 836 q 683 646 683 721 m 625 640 q 604 758 625 708 q 548 841 583 808 q 465 890 513 874 q 365 906 418 906 q 266 891 313 906 q 185 844 219 876 q 130 761 150 811 q 110 640 110 711 q 128 522 110 572 q 182 438 147 471 q 264 388 217 404 q 368 371 311 371 q 467 386 421 371 q 549 435 514 401 q 605 519 585 468 q 625 640 625 569 m 244 815 l 388 815 q 476 785 446 815 q 507 708 507 754 q 485 643 507 668 q 438 606 464 618 l 529 461 l 449 461 l 371 593 l 311 593 l 311 461 l 244 461 l 244 815 m 311 646 l 364 646 q 416 660 396 646 q 436 706 436 674 q 419 749 436 736 q 372 761 403 761 l 311 761 l 311 646 z "},"°":{"ha":556,"x_min":43,"x_max":513,"o":"m 513 650 q 451 474 513 539 q 276 408 389 408 q 107 474 171 408 q 43 650 43 539 q 60 749 43 704 q 108 824 76 793 q 183 873 139 856 q 281 890 226 890 q 375 873 332 890 q 449 824 418 856 q 496 749 479 793 q 513 650 513 704 m 399 650 q 372 756 399 715 q 281 797 344 797 q 188 759 218 797 q 157 650 157 721 q 186 542 157 583 q 276 501 215 501 q 364 537 329 501 q 399 650 399 572 z "},"±":{"ha":682,"x_min":54,"x_max":629,"o":"m 571 115 l 571 0 l 79 0 l 79 115 l 571 115 m 629 531 l 629 415 l 403 415 l 403 196 l 281 196 l 281 415 l 54 415 l 54 531 l 281 531 l 281 750 l 403 750 l 403 531 l 629 531 z "},"´":{"ha":351,"x_min":42,"x_max":322,"o":"m 169 761 l 42 761 l 143 979 l 322 979 l 169 761 z "},"¶":{"ha":829,"x_min":49,"x_max":739,"o":"m 613 -247 l 613 767 l 486 767 l 486 -247 l 358 -247 l 358 326 q 126 401 203 326 q 49 606 49 476 q 72 731 49 678 q 140 820 96 785 q 243 873 183 856 q 376 890 303 890 l 739 890 l 739 -247 l 613 -247 z "},"¸":{"ha":397,"x_min":78,"x_max":353,"o":"m 175 0 l 275 0 l 243 -65 q 323 -96 293 -69 q 353 -162 353 -122 q 306 -249 353 -221 q 192 -278 260 -278 q 127 -272 157 -278 q 78 -258 97 -265 l 101 -182 q 171 -194 136 -194 q 216 -185 199 -194 q 233 -156 233 -175 q 210 -120 233 -132 q 128 -108 186 -108 l 175 0 z "},"º":{"ha":304,"x_min":0,"x_max":0,"o":""},"»":{"ha":704,"x_min":40,"x_max":664,"o":"m 40 106 l 208 328 l 40 551 l 188 551 l 372 328 l 188 106 l 40 106 m 332 106 l 500 328 l 332 551 l 479 551 l 664 328 l 479 106 l 332 106 z "},"¿":{"ha":600,"x_min":61,"x_max":551,"o":"m 335 -343 q 218 -325 269 -343 q 132 -276 167 -307 q 79 -201 97 -244 q 61 -108 61 -158 q 97 23 61 -33 q 194 140 133 79 q 246 191 225 171 q 280 228 267 211 q 299 260 293 244 q 306 294 306 275 q 297 343 306 319 l 449 364 q 458 327 454 349 q 463 283 463 306 q 434 183 463 225 q 357 89 406 140 q 309 38 329 60 q 276 -6 289 15 q 256 -49 263 -28 q 249 -97 249 -71 q 276 -167 249 -137 q 358 -196 304 -196 q 423 -186 393 -196 q 485 -153 453 -176 l 551 -278 q 453 -326 510 -308 q 335 -343 397 -343 m 465 557 q 433 482 465 513 q 360 451 401 451 q 286 482 317 451 q 256 557 256 513 q 286 635 256 606 q 360 664 317 664 q 433 635 401 664 q 465 557 465 606 z "},"À":{"ha":879,"x_min":17,"x_max":864,"o":"m 208 1138 l 408 1138 l 519 965 l 368 965 l 208 1138 m 326 342 l 549 342 l 508 458 q 472 567 489 513 q 440 678 456 622 l 438 678 q 404 570 422 625 q 367 458 386 515 l 326 342 m 343 875 l 540 875 l 864 0 l 663 0 l 594 201 l 283 201 l 215 0 l 17 0 l 343 875 z "},"Á":{"ha":879,"x_min":17,"x_max":864,"o":"m 515 965 l 364 965 l 475 1138 l 675 1138 l 515 965 m 326 342 l 549 342 l 508 458 q 472 567 489 513 q 440 678 456 622 l 438 678 q 404 570 422 625 q 367 458 386 515 l 326 342 m 343 875 l 540 875 l 864 0 l 663 0 l 594 201 l 283 201 l 215 0 l 17 0 l 343 875 z "},"Â":{"ha":879,"x_min":17,"x_max":864,"o":"m 369 1140 l 507 1140 l 671 965 l 528 965 l 438 1061 l 347 965 l 211 965 l 369 1140 m 326 342 l 549 342 l 508 458 q 472 567 489 513 q 440 678 456 622 l 438 678 q 404 570 422 625 q 367 458 386 515 l 326 342 m 343 875 l 540 875 l 864 0 l 663 0 l 594 201 l 283 201 l 215 0 l 17 0 l 343 875 z "},"Ã":{"ha":879,"x_min":17,"x_max":864,"o":"m 226 965 q 258 1081 226 1033 q 351 1129 290 1129 q 399 1122 378 1129 q 438 1104 419 1114 q 474 1087 457 1094 q 511 1079 492 1079 q 544 1094 533 1079 q 557 1133 554 1110 l 647 1133 q 615 1017 647 1063 q 526 971 583 971 q 475 978 499 971 q 431 995 451 986 q 392 1012 410 1004 q 360 1019 375 1019 q 327 1003 336 1019 q 317 965 318 988 l 226 965 m 326 342 l 549 342 l 508 458 q 472 567 489 513 q 440 678 456 622 l 438 678 q 404 570 422 625 q 367 458 386 515 l 326 342 m 343 875 l 540 875 l 864 0 l 663 0 l 594 201 l 283 201 l 215 0 l 17 0 l 343 875 z "},"Ä":{"ha":879,"x_min":17,"x_max":864,"o":"m 215 1043 q 241 1104 215 1079 q 304 1129 267 1129 q 365 1104 340 1129 q 390 1043 390 1079 q 365 980 390 1006 q 304 954 340 954 q 241 980 267 954 q 215 1043 215 1006 m 486 1043 q 513 1104 486 1079 q 575 1129 539 1129 q 637 1104 611 1129 q 663 1043 663 1079 q 637 980 663 1006 q 575 954 611 954 q 513 980 539 954 q 486 1043 486 1006 m 326 342 l 549 342 l 508 458 q 472 567 489 513 q 440 678 456 622 l 438 678 q 404 570 422 625 q 367 458 386 515 l 326 342 m 343 875 l 540 875 l 864 0 l 663 0 l 594 201 l 283 201 l 215 0 l 17 0 l 343 875 z "},"Å":{"ha":879,"x_min":17,"x_max":864,"o":"m 293 1058 q 334 1153 293 1121 q 438 1185 375 1185 q 542 1153 501 1185 q 583 1058 583 1122 q 540 964 583 994 q 438 933 497 933 q 335 965 378 933 q 293 1058 293 997 m 382 1058 q 397 1013 382 1029 q 438 996 411 996 q 479 1013 464 996 q 494 1058 494 1029 q 478 1106 494 1089 q 438 1122 463 1122 q 397 1106 413 1122 q 382 1058 382 1089 m 326 342 l 549 342 l 508 458 q 472 567 489 513 q 440 678 456 622 l 438 678 q 404 570 422 625 q 367 458 386 515 l 326 342 m 343 875 l 540 875 l 864 0 l 663 0 l 594 201 l 283 201 l 215 0 l 17 0 l 343 875 z "},"Æ":{"ha":1156,"x_min":17,"x_max":1106,"o":"m 457 875 l 1101 875 l 1101 728 l 760 728 l 760 528 l 1065 528 l 1065 382 l 760 382 l 760 147 l 1106 147 l 1106 0 l 571 0 l 571 207 l 332 207 l 231 0 l 17 0 l 457 875 m 571 739 l 392 350 l 571 350 l 571 739 z "},"Ç":{"ha":792,"x_min":56,"x_max":753,"o":"m 528 132 q 636 143 592 132 q 713 174 681 154 l 751 35 q 663 2 719 17 q 524 -15 607 -12 l 506 -65 q 590 -100 560 -69 q 619 -171 619 -131 q 572 -267 619 -235 q 454 -299 525 -299 q 390 -292 419 -299 q 342 -279 360 -286 l 364 -203 q 397 -212 381 -210 q 435 -215 413 -215 q 483 -203 465 -215 q 500 -164 500 -190 q 478 -124 500 -140 q 390 -108 456 -108 l 428 -8 q 276 39 344 3 q 158 132 207 75 q 83 267 110 189 q 56 439 56 344 q 88 625 56 542 q 180 767 121 708 q 324 858 239 826 q 513 890 408 890 q 659 874 601 890 q 753 838 717 857 l 710 697 q 630 730 674 717 q 532 743 586 743 q 425 726 475 743 q 338 673 375 710 q 278 578 300 636 q 257 439 257 521 q 278 302 257 360 q 335 207 299 244 q 422 151 372 169 q 528 132 471 132 z "},"È":{"ha":721,"x_min":96,"x_max":669,"o":"m 96 875 l 665 875 l 665 728 l 286 728 l 286 528 l 629 528 l 629 382 l 286 382 l 286 147 l 669 147 l 669 0 l 96 0 l 96 875 m 225 1138 l 426 1138 l 538 965 l 385 965 l 225 1138 z "},"É":{"ha":718,"x_min":96,"x_max":669,"o":"m 96 875 l 665 875 l 665 728 l 286 728 l 286 528 l 629 528 l 629 382 l 286 382 l 286 147 l 669 147 l 669 0 l 96 0 l 96 875 m 389 965 l 236 965 l 347 1138 l 549 1138 l 389 965 z "},"Ê":{"ha":718,"x_min":96,"x_max":669,"o":"m 96 875 l 665 875 l 665 728 l 286 728 l 286 528 l 629 528 l 629 382 l 286 382 l 286 147 l 669 147 l 669 0 l 96 0 l 96 875 m 303 1140 l 440 1140 l 604 965 l 461 965 l 371 1061 l 281 965 l 144 965 l 303 1140 z "},"Ë":{"ha":718,"x_min":96,"x_max":669,"o":"m 96 875 l 665 875 l 665 728 l 286 728 l 286 528 l 629 528 l 629 382 l 286 382 l 286 147 l 669 147 l 669 0 l 96 0 l 96 875 m 157 1043 q 183 1104 157 1079 q 244 1129 208 1129 q 306 1104 281 1129 q 332 1043 332 1079 q 306 980 332 1006 q 244 954 281 954 q 183 980 208 954 q 157 1043 157 1006 m 428 1043 q 453 1104 428 1079 q 515 1129 479 1129 q 578 1104 553 1129 q 603 1043 603 1079 q 578 980 603 1006 q 515 954 553 954 q 453 980 479 954 q 428 1043 428 1006 z "},"Ì":{"ha":383,"x_min":-49,"x_max":286,"o":"m 286 875 l 286 0 l 96 0 l 96 875 l 286 875 m -49 1138 l 151 1138 l 263 965 l 110 965 l -49 1138 z "},"Í":{"ha":383,"x_min":96,"x_max":432,"o":"m 286 875 l 286 0 l 96 0 l 96 875 l 286 875 m 272 965 l 121 965 l 232 1138 l 432 1138 l 272 965 z "},"Î":{"ha":383,"x_min":-33,"x_max":426,"o":"m 286 875 l 286 0 l 96 0 l 96 875 l 286 875 m 125 1140 l 263 1140 l 426 965 l 283 965 l 193 1061 l 103 965 l -33 965 l 125 1140 z "},"Ï":{"ha":383,"x_min":-33,"x_max":413,"o":"m 286 875 l 286 0 l 96 0 l 96 875 l 286 875 m -33 1043 q -8 1104 -33 1079 q 54 1129 18 1129 q 117 1104 92 1129 q 142 1043 142 1079 q 117 980 142 1006 q 54 954 92 954 q -8 980 18 954 q -33 1043 -33 1006 m 238 1043 q 263 1104 238 1079 q 326 1129 289 1129 q 388 1104 363 1129 q 413 1043 413 1079 q 388 980 413 1006 q 326 954 363 954 q 263 980 289 954 q 238 1043 238 1006 z "},"Ð":{"ha":960,"x_min":31,"x_max":907,"o":"m 454 875 q 639 849 556 875 q 782 769 722 822 q 874 638 842 717 q 907 456 907 560 q 868 251 907 336 q 763 109 829 165 q 606 26 696 53 q 415 0 517 0 l 149 0 l 149 382 l 31 382 l 31 510 l 149 510 l 149 875 l 454 875 m 500 510 l 500 382 l 339 382 l 339 147 l 403 147 q 516 162 461 147 q 613 212 571 176 q 681 306 656 247 q 706 456 706 365 q 631 658 706 588 q 429 728 556 728 l 339 728 l 339 510 l 500 510 z "},"Ñ":{"ha":949,"x_min":96,"x_max":853,"o":"m 96 875 l 374 875 l 588 393 l 671 160 l 675 160 l 665 421 l 665 875 l 853 875 l 853 0 l 575 0 l 369 464 l 278 721 l 274 721 l 283 432 l 283 0 l 96 0 l 96 875 m 288 965 q 319 1081 288 1033 q 414 1129 351 1129 q 460 1122 439 1129 q 499 1104 481 1114 q 536 1087 518 1094 q 574 1079 554 1079 q 606 1094 594 1079 q 618 1133 617 1110 l 708 1133 q 676 1017 708 1063 q 588 971 644 971 q 536 978 560 971 q 492 995 513 986 q 454 1012 472 1004 q 422 1019 436 1019 q 389 1003 399 1019 q 378 965 379 988 l 288 965 z "},"Ò":{"ha":978,"x_min":56,"x_max":922,"o":"m 492 890 q 664 860 585 890 q 800 772 743 829 q 890 629 857 714 q 922 436 922 544 q 889 247 922 331 q 797 106 856 164 q 659 16 739 47 q 486 -15 579 -15 q 314 15 393 -15 q 178 102 235 44 q 88 244 121 160 q 56 436 56 328 q 89 626 56 542 q 181 769 122 710 q 319 859 239 828 q 492 890 399 890 m 257 436 q 276 301 257 358 q 326 205 294 243 q 401 148 358 167 q 492 129 443 129 q 581 148 539 129 q 654 205 624 167 q 703 301 685 243 q 721 436 721 358 q 702 575 721 517 q 651 672 683 633 q 577 728 619 710 q 486 746 535 746 q 396 726 438 746 q 324 669 354 707 q 275 572 293 631 q 257 436 257 514 m 329 1138 l 529 1138 l 640 965 l 488 965 l 329 1138 z "},"Ó":{"ha":978,"x_min":56,"x_max":922,"o":"m 492 890 q 664 860 585 890 q 800 772 743 829 q 890 629 857 714 q 922 436 922 544 q 889 247 922 331 q 797 106 856 164 q 659 16 739 47 q 486 -15 579 -15 q 314 15 393 -15 q 178 102 235 44 q 88 244 121 160 q 56 436 56 328 q 89 626 56 542 q 181 769 122 710 q 319 859 239 828 q 492 890 399 890 m 257 436 q 276 301 257 358 q 326 205 294 243 q 401 148 358 167 q 492 129 443 129 q 581 148 539 129 q 654 205 624 167 q 703 301 685 243 q 721 436 721 358 q 702 575 721 517 q 651 672 683 633 q 577 728 619 710 q 486 746 535 746 q 396 726 438 746 q 324 669 354 707 q 275 572 293 631 q 257 436 257 514 m 488 965 l 336 965 l 447 1138 l 647 1138 l 488 965 z "},"Ô":{"ha":978,"x_min":56,"x_max":922,"o":"m 492 890 q 664 860 585 890 q 800 772 743 829 q 890 629 857 714 q 922 436 922 544 q 889 247 922 331 q 797 106 856 164 q 659 16 739 47 q 486 -15 579 -15 q 314 15 393 -15 q 178 102 235 44 q 88 244 121 160 q 56 436 56 328 q 89 626 56 542 q 181 769 122 710 q 319 859 239 828 q 492 890 399 890 m 257 436 q 276 301 257 358 q 326 205 294 243 q 401 148 358 167 q 492 129 443 129 q 581 148 539 129 q 654 205 624 167 q 703 301 685 243 q 721 436 721 358 q 702 575 721 517 q 651 672 683 633 q 577 728 619 710 q 486 746 535 746 q 396 726 438 746 q 324 669 354 707 q 275 572 293 631 q 257 436 257 514 m 424 1140 l 561 1140 l 725 965 l 582 965 l 492 1061 l 401 965 l 265 965 l 424 1140 z "},"Õ":{"ha":978,"x_min":56,"x_max":922,"o":"m 492 890 q 664 860 585 890 q 800 772 743 829 q 890 629 857 714 q 922 436 922 544 q 889 247 922 331 q 797 106 856 164 q 659 16 739 47 q 486 -15 579 -15 q 314 15 393 -15 q 178 102 235 44 q 88 244 121 160 q 56 436 56 328 q 89 626 56 542 q 181 769 122 710 q 319 859 239 828 q 492 890 399 890 m 257 436 q 276 301 257 358 q 326 205 294 243 q 401 148 358 167 q 492 129 443 129 q 581 148 539 129 q 654 205 624 167 q 703 301 685 243 q 721 436 721 358 q 702 575 721 517 q 651 672 683 633 q 577 728 619 710 q 486 746 535 746 q 396 726 438 746 q 324 669 354 707 q 275 572 293 631 q 257 436 257 514 m 274 965 q 306 1082 274 1035 q 400 1129 338 1129 q 446 1122 425 1129 q 485 1105 467 1114 q 522 1088 504 1096 q 560 1081 540 1081 q 592 1095 582 1081 q 604 1133 603 1110 l 694 1133 q 663 1017 694 1063 q 575 972 631 972 q 524 980 547 972 q 479 996 500 988 q 440 1012 458 1004 q 408 1019 422 1019 q 376 1004 385 1019 q 364 965 367 989 l 274 965 z "},"Ö":{"ha":978,"x_min":56,"x_max":922,"o":"m 492 890 q 664 860 585 890 q 800 772 743 829 q 890 629 857 714 q 922 436 922 544 q 889 247 922 331 q 797 106 856 164 q 659 16 739 47 q 486 -15 579 -15 q 314 15 393 -15 q 178 102 235 44 q 88 244 121 160 q 56 436 56 328 q 89 626 56 542 q 181 769 122 710 q 319 859 239 828 q 492 890 399 890 m 257 436 q 276 301 257 358 q 326 205 294 243 q 401 148 358 167 q 492 129 443 129 q 581 148 539 129 q 654 205 624 167 q 703 301 685 243 q 721 436 721 358 q 702 575 721 517 q 651 672 683 633 q 577 728 619 710 q 486 746 535 746 q 396 726 438 746 q 324 669 354 707 q 275 572 293 631 q 257 436 257 514 m 267 1043 q 293 1104 267 1079 q 356 1129 319 1129 q 417 1104 392 1129 q 443 1043 443 1079 q 417 980 443 1006 q 356 954 392 954 q 293 980 319 954 q 267 1043 267 1006 m 539 1043 q 565 1104 539 1079 q 626 1129 590 1129 q 688 1104 663 1129 q 714 1043 714 1079 q 688 980 714 1006 q 626 954 663 954 q 565 980 590 954 q 539 1043 539 1006 z "},"Ø":{"ha":978,"x_min":56,"x_max":922,"o":"m 718 1047 l 806 1010 l 725 829 q 869 676 815 775 q 922 436 922 578 q 889 247 922 331 q 797 106 856 164 q 659 16 739 47 q 486 -15 579 -15 q 419 -10 453 -15 q 356 1 385 -6 l 258 -224 l 171 -185 l 268 35 q 113 188 171 88 q 56 436 56 289 q 89 626 56 542 q 181 769 122 710 q 319 859 239 828 q 492 890 399 890 q 567 885 529 890 q 639 868 606 879 l 718 1047 m 257 436 q 279 279 257 340 q 338 183 301 218 l 572 732 q 531 742 553 739 q 486 746 508 746 q 396 726 438 746 q 324 669 354 707 q 275 572 293 631 q 257 436 257 514 m 492 129 q 581 148 539 129 q 654 205 624 167 q 703 301 685 243 q 721 436 721 358 q 703 581 721 522 q 653 675 685 639 l 422 138 q 492 129 456 129 z "},"Ù":{"ha":918,"x_min":93,"x_max":824,"o":"m 93 875 l 283 875 l 283 351 q 327 187 283 243 q 463 131 371 131 q 593 188 553 131 q 633 335 633 244 l 633 875 l 824 875 l 824 349 q 733 75 824 165 q 463 -15 642 -15 q 192 75 290 -15 q 93 356 93 165 l 93 875 m 296 1138 l 496 1138 l 607 965 l 456 965 l 296 1138 z "},"Ú":{"ha":918,"x_min":93,"x_max":824,"o":"m 93 875 l 283 875 l 283 351 q 327 187 283 243 q 463 131 371 131 q 593 188 553 131 q 633 335 633 244 l 633 875 l 824 875 l 824 349 q 733 75 824 165 q 463 -15 642 -15 q 192 75 290 -15 q 93 356 93 165 l 93 875 m 464 965 l 311 965 l 422 1138 l 622 1138 l 464 965 z "},"Û":{"ha":918,"x_min":93,"x_max":824,"o":"m 93 875 l 283 875 l 283 351 q 327 187 283 243 q 463 131 371 131 q 593 188 553 131 q 633 335 633 244 l 633 875 l 824 875 l 824 349 q 733 75 824 165 q 463 -15 642 -15 q 192 75 290 -15 q 93 356 93 165 l 93 875 m 394 1140 l 532 1140 l 694 965 l 553 965 l 463 1061 l 372 965 l 235 965 l 394 1140 z "},"Ü":{"ha":918,"x_min":93,"x_max":824,"o":"m 93 875 l 283 875 l 283 351 q 327 187 283 243 q 463 131 371 131 q 593 188 553 131 q 633 335 633 244 l 633 875 l 824 875 l 824 349 q 733 75 824 165 q 463 -15 642 -15 q 192 75 290 -15 q 93 356 93 165 l 93 875 m 239 1043 q 265 1104 239 1079 q 326 1129 290 1129 q 389 1104 364 1129 q 414 1043 414 1079 q 389 980 414 1006 q 326 954 364 954 q 265 980 290 954 q 239 1043 239 1006 m 510 1043 q 535 1104 510 1079 q 599 1129 561 1129 q 660 1104 635 1129 q 685 1043 685 1079 q 660 980 685 1006 q 599 954 635 954 q 535 980 561 954 q 510 1043 510 1006 z "},"Ý":{"ha":811,"x_min":8,"x_max":804,"o":"m 222 875 l 408 535 l 597 875 l 804 875 l 499 361 l 499 0 l 308 0 l 308 361 l 8 875 l 222 875 m 444 965 l 293 965 l 404 1138 l 604 1138 l 444 965 z "},"Þ":{"ha":756,"x_min":93,"x_max":707,"o":"m 93 875 l 275 875 l 275 703 q 335 715 306 713 q 397 718 365 718 q 522 699 465 718 q 620 643 579 679 q 684 556 661 607 q 707 440 707 504 q 681 308 707 364 q 608 216 654 253 q 500 161 563 179 q 364 143 438 143 q 320 145 346 143 q 275 150 294 147 l 275 0 l 93 0 l 93 875 m 275 293 q 313 284 294 286 q 356 282 331 282 q 475 321 431 282 q 519 433 519 360 q 476 544 519 508 q 367 581 433 581 q 275 565 314 581 l 275 293 z "},"ß":{"ha":849,"x_min":94,"x_max":794,"o":"m 94 0 l 94 656 q 113 794 94 731 q 174 903 132 857 q 281 974 215 949 q 438 1000 346 1000 q 549 983 496 1000 q 642 936 601 967 q 708 860 683 906 q 732 760 732 815 q 724 695 732 724 q 704 642 717 667 q 607 601 636 626 q 578 535 578 575 q 602 466 578 494 q 663 410 626 438 q 759 316 724 364 q 794 199 794 268 q 725 45 794 106 q 518 -15 656 -15 q 473 -13 497 -15 q 425 -7 449 -11 q 380 3 401 -3 q 344 18 358 10 l 383 146 q 506 121 442 121 q 584 147 558 121 q 610 206 610 172 q 585 269 610 244 q 510 331 560 294 q 426 414 457 369 q 394 528 394 458 q 431 632 394 586 q 533 697 467 678 q 542 754 542 715 q 508 833 542 806 q 428 861 475 861 q 365 849 393 861 q 317 811 338 838 q 287 742 297 785 q 276 636 276 699 l 276 0 l 94 0 z "},"à":{"ha":703,"x_min":43,"x_max":629,"o":"m 94 604 q 221 658 154 639 q 363 676 288 676 q 472 663 422 676 q 556 619 521 649 q 610 542 592 589 q 629 431 629 496 l 629 0 l 486 0 l 469 68 l 464 68 q 383 7 432 29 q 268 -15 333 -15 q 172 1 214 -15 q 101 44 131 17 q 58 108 72 71 q 43 189 43 146 q 67 287 43 246 q 135 354 92 328 q 235 393 178 381 q 360 406 293 406 l 443 406 l 443 446 q 415 513 443 492 q 335 535 386 535 q 252 522 294 535 q 158 482 210 510 l 94 604 m 444 290 l 385 289 q 267 260 300 286 q 233 199 233 235 q 262 134 233 151 q 326 117 290 117 q 395 138 363 117 q 444 186 428 158 l 444 290 m 188 968 l 372 968 l 469 761 l 339 761 l 188 968 z "},"á":{"ha":703,"x_min":43,"x_max":629,"o":"m 94 604 q 221 658 154 639 q 363 676 288 676 q 472 663 422 676 q 556 619 521 649 q 610 542 592 589 q 629 431 629 496 l 629 0 l 486 0 l 469 68 l 464 68 q 383 7 432 29 q 268 -15 333 -15 q 172 1 214 -15 q 101 44 131 17 q 58 108 72 71 q 43 189 43 146 q 67 287 43 246 q 135 354 92 328 q 235 393 178 381 q 360 406 293 406 l 443 406 l 443 446 q 415 513 443 492 q 335 535 386 535 q 252 522 294 535 q 158 482 210 510 l 94 604 m 444 290 l 385 289 q 267 260 300 286 q 233 199 233 235 q 262 134 233 151 q 326 117 290 117 q 395 138 363 117 q 444 186 428 158 l 444 290 m 403 761 l 272 761 l 369 968 l 554 968 l 403 761 z "},"â":{"ha":703,"x_min":43,"x_max":629,"o":"m 94 604 q 221 658 154 639 q 363 676 288 676 q 472 663 422 676 q 556 619 521 649 q 610 542 592 589 q 629 431 629 496 l 629 0 l 486 0 l 469 68 l 464 68 q 383 7 432 29 q 268 -15 333 -15 q 172 1 214 -15 q 101 44 131 17 q 58 108 72 71 q 43 189 43 146 q 67 287 43 246 q 135 354 92 328 q 235 393 178 381 q 360 406 293 406 l 443 406 l 443 446 q 415 513 443 492 q 335 535 386 535 q 252 522 294 535 q 158 482 210 510 l 94 604 m 444 290 l 385 289 q 267 260 300 286 q 233 199 233 235 q 262 134 233 151 q 326 117 290 117 q 395 138 363 117 q 444 186 428 158 l 444 290 m 586 761 l 449 761 l 363 868 l 275 761 l 133 761 l 308 958 l 415 958 l 586 761 z "},"ã":{"ha":703,"x_min":43,"x_max":629,"o":"m 94 604 q 221 658 154 639 q 363 676 288 676 q 472 663 422 676 q 556 619 521 649 q 610 542 592 589 q 629 431 629 496 l 629 0 l 486 0 l 469 68 l 464 68 q 383 7 432 29 q 268 -15 333 -15 q 172 1 214 -15 q 101 44 131 17 q 58 108 72 71 q 43 189 43 146 q 67 287 43 246 q 135 354 92 328 q 235 393 178 381 q 360 406 293 406 l 443 406 l 443 446 q 415 513 443 492 q 335 535 386 535 q 252 522 294 535 q 158 482 210 510 l 94 604 m 444 290 l 385 289 q 267 260 300 286 q 233 199 233 235 q 262 134 233 151 q 326 117 290 117 q 395 138 363 117 q 444 186 428 158 l 444 290 m 121 761 q 155 895 121 847 q 250 943 189 943 q 302 933 278 943 q 349 911 326 924 q 390 889 371 899 q 426 879 410 879 q 463 901 454 879 q 472 951 471 924 l 563 951 q 531 817 564 864 q 436 771 499 771 q 378 781 404 771 q 331 802 353 790 q 290 824 308 814 q 257 833 272 833 q 224 813 233 833 q 211 761 214 793 l 121 761 z "},"ä":{"ha":703,"x_min":43,"x_max":629,"o":"m 94 604 q 221 658 154 639 q 363 676 288 676 q 472 663 422 676 q 556 619 521 649 q 610 542 592 589 q 629 431 629 496 l 629 0 l 486 0 l 469 68 l 464 68 q 383 7 432 29 q 268 -15 333 -15 q 172 1 214 -15 q 101 44 131 17 q 58 108 72 71 q 43 189 43 146 q 67 287 43 246 q 135 354 92 328 q 235 393 178 381 q 360 406 293 406 l 443 406 l 443 446 q 415 513 443 492 q 335 535 386 535 q 252 522 294 535 q 158 482 210 510 l 94 604 m 444 290 l 385 289 q 267 260 300 286 q 233 199 233 235 q 262 134 233 151 q 326 117 290 117 q 395 138 363 117 q 444 186 428 158 l 444 290 m 135 863 q 162 925 135 899 q 225 951 189 951 q 289 925 264 951 q 314 863 314 899 q 289 797 314 824 q 225 771 264 771 q 162 797 189 771 q 135 863 135 824 m 410 863 q 437 925 410 899 q 500 951 464 951 q 564 925 539 951 q 589 863 589 899 q 564 797 589 824 q 500 771 539 771 q 437 797 464 771 q 410 863 410 824 z "},"å":{"ha":703,"x_min":43,"x_max":629,"o":"m 94 604 q 221 658 154 639 q 363 676 288 676 q 472 663 422 676 q 556 619 521 649 q 610 542 592 589 q 629 431 629 496 l 629 0 l 486 0 l 469 68 l 464 68 q 383 7 432 29 q 268 -15 333 -15 q 172 1 214 -15 q 101 44 131 17 q 58 108 72 71 q 43 189 43 146 q 67 287 43 246 q 135 354 92 328 q 235 393 178 381 q 360 406 293 406 l 443 406 l 443 446 q 415 513 443 492 q 335 535 386 535 q 252 522 294 535 q 158 482 210 510 l 94 604 m 444 290 l 385 289 q 267 260 300 286 q 233 199 233 235 q 262 134 233 151 q 326 117 290 117 q 395 138 363 117 q 444 186 428 158 l 444 290 m 224 865 q 236 921 224 897 q 269 960 249 944 q 315 983 289 975 q 368 990 340 990 q 422 983 396 990 q 467 960 447 975 q 499 921 488 944 q 511 865 511 897 q 499 810 511 833 q 466 770 486 786 q 420 747 446 754 q 368 739 394 739 q 315 747 340 739 q 269 772 289 756 q 236 811 249 788 q 224 865 224 835 m 307 865 q 324 817 307 833 q 368 801 342 801 q 410 817 393 801 q 428 865 428 833 q 410 913 428 897 q 368 929 392 929 q 325 913 343 929 q 307 865 307 897 z "},"æ":{"ha":1104,"x_min":43,"x_max":1058,"o":"m 1058 292 l 621 292 l 621 286 q 675 161 621 201 q 817 121 729 121 q 915 132 872 121 q 992 158 958 143 l 1026 29 q 936 -2 990 11 q 807 -15 882 -15 q 647 11 719 -15 q 525 94 574 38 l 519 94 q 422 15 479 46 q 274 -15 365 -15 q 175 1 218 -15 q 103 44 132 17 q 58 108 74 71 q 43 189 43 146 q 67 287 43 246 q 135 354 92 328 q 235 393 178 381 q 360 406 293 406 l 456 406 l 456 446 q 423 513 456 492 q 335 535 390 535 q 252 522 294 535 q 158 482 210 510 l 94 604 q 219 658 154 639 q 358 676 283 676 q 476 655 424 676 q 558 590 529 633 l 561 590 q 647 654 594 632 q 765 676 700 676 q 979 594 900 676 q 1058 363 1058 513 l 1058 292 m 233 199 q 262 134 233 151 q 326 117 290 117 q 408 138 368 117 q 467 196 447 160 q 449 290 453 235 l 385 289 q 267 260 300 286 q 233 199 233 235 m 869 407 q 863 459 869 433 q 844 503 857 485 q 810 534 831 522 q 758 546 789 546 q 667 508 703 546 q 625 406 631 471 l 869 407 z "},"ç":{"ha":647,"x_min":54,"x_max":606,"o":"m 438 121 q 516 133 482 121 q 571 156 550 144 l 606 28 q 530 0 579 13 q 421 -15 481 -12 l 396 -65 q 476 -96 446 -69 q 506 -162 506 -122 q 459 -249 506 -221 q 344 -278 413 -278 q 280 -272 310 -278 q 231 -258 250 -265 l 254 -182 q 324 -194 289 -194 q 369 -185 351 -194 q 386 -156 386 -175 q 363 -120 386 -132 q 281 -108 339 -108 l 325 -6 q 216 31 265 4 q 131 100 167 58 q 74 199 94 142 q 54 329 54 257 q 81 471 54 407 q 154 581 107 535 q 267 651 201 626 q 413 676 333 676 q 504 668 456 676 q 606 632 553 660 l 565 504 q 502 531 536 521 q 433 542 468 542 q 294 489 347 542 q 242 335 242 436 q 259 234 242 275 q 304 168 276 193 q 367 132 332 143 q 438 121 401 121 z "},"è":{"ha":721,"x_min":47,"x_max":674,"o":"m 674 293 l 233 293 l 233 288 q 289 162 233 203 q 432 121 344 121 q 530 132 488 121 q 607 158 572 143 l 640 29 q 546 -2 603 11 q 411 -15 489 -15 q 270 5 336 -15 q 155 67 204 25 q 76 172 106 108 q 47 325 47 236 q 71 469 47 404 q 138 579 94 533 q 243 651 182 625 q 379 676 304 676 q 594 594 514 676 q 674 365 674 513 l 674 293 m 485 410 q 478 461 485 436 q 458 505 472 486 q 424 535 444 524 q 372 546 403 546 q 281 508 317 546 q 238 407 244 471 l 485 410 m 226 968 l 411 968 l 508 761 l 378 761 l 226 968 z "},"é":{"ha":721,"x_min":47,"x_max":674,"o":"m 674 293 l 233 293 l 233 288 q 289 162 233 203 q 432 121 344 121 q 530 132 488 121 q 607 158 572 143 l 640 29 q 546 -2 603 11 q 411 -15 489 -15 q 270 5 336 -15 q 155 67 204 25 q 76 172 106 108 q 47 325 47 236 q 71 469 47 404 q 138 579 94 533 q 243 651 182 625 q 379 676 304 676 q 594 594 514 676 q 674 365 674 513 l 674 293 m 485 410 q 478 461 485 436 q 458 505 472 486 q 424 535 444 524 q 372 546 403 546 q 281 508 317 546 q 238 407 244 471 l 485 410 m 388 761 l 256 761 l 353 968 l 538 968 l 388 761 z "},"ê":{"ha":721,"x_min":47,"x_max":674,"o":"m 674 293 l 233 293 l 233 288 q 289 162 233 203 q 432 121 344 121 q 530 132 488 121 q 607 158 572 143 l 640 29 q 546 -2 603 11 q 411 -15 489 -15 q 270 5 336 -15 q 155 67 204 25 q 76 172 106 108 q 47 325 47 236 q 71 469 47 404 q 138 579 94 533 q 243 651 182 625 q 379 676 304 676 q 594 594 514 676 q 674 365 674 513 l 674 293 m 485 410 q 478 461 485 436 q 458 505 472 486 q 424 535 444 524 q 372 546 403 546 q 281 508 317 546 q 238 407 244 471 l 485 410 m 600 761 l 463 761 l 376 868 l 289 761 l 147 761 l 322 958 l 429 958 l 600 761 z "},"ë":{"ha":721,"x_min":47,"x_max":674,"o":"m 674 293 l 233 293 l 233 288 q 289 162 233 203 q 432 121 344 121 q 530 132 488 121 q 607 158 572 143 l 640 29 q 546 -2 603 11 q 411 -15 489 -15 q 270 5 336 -15 q 155 67 204 25 q 76 172 106 108 q 47 325 47 236 q 71 469 47 404 q 138 579 94 533 q 243 651 182 625 q 379 676 304 676 q 594 594 514 676 q 674 365 674 513 l 674 293 m 485 410 q 478 461 485 436 q 458 505 472 486 q 424 535 444 524 q 372 546 403 546 q 281 508 317 546 q 238 407 244 471 l 485 410 m 149 863 q 176 925 149 899 q 239 951 203 951 q 303 925 278 951 q 328 863 328 899 q 303 797 328 824 q 239 771 278 771 q 176 797 203 771 q 149 863 149 824 m 424 863 q 451 925 424 899 q 514 951 478 951 q 578 925 553 951 q 603 863 603 899 q 578 797 603 824 q 514 771 553 771 q 451 797 478 771 q 424 863 424 824 z "},"ì":{"ha":383,"x_min":-8,"x_max":285,"o":"m 100 0 l 100 663 l 285 663 l 285 0 l 100 0 m -8 968 l 176 968 l 274 761 l 143 761 l -8 968 z "},"í":{"ha":383,"x_min":100,"x_max":392,"o":"m 100 0 l 100 663 l 285 663 l 285 0 l 100 0 m 242 761 l 110 761 l 207 968 l 392 968 l 242 761 z "},"î":{"ha":383,"x_min":-37,"x_max":415,"o":"m 100 0 l 100 663 l 285 663 l 285 0 l 100 0 m 415 761 l 278 761 l 192 868 l 106 761 l -37 761 l 138 958 l 244 958 l 415 761 z "},"ï":{"ha":383,"x_min":-37,"x_max":418,"o":"m 100 0 l 100 663 l 285 663 l 285 0 l 100 0 m -37 863 q -10 925 -37 899 q 53 951 17 951 q 117 925 92 951 q 142 863 142 899 q 117 797 142 824 q 53 771 92 771 q -10 797 17 771 q -37 863 -37 824 m 238 863 q 265 925 238 899 q 328 951 292 951 q 392 925 367 951 q 418 863 418 899 q 392 797 418 824 q 328 771 367 771 q 265 797 292 771 q 238 863 238 824 z "},"ð":{"ha":776,"x_min":51,"x_max":722,"o":"m 350 635 q 446 617 399 635 q 525 571 493 600 l 529 574 q 503 635 519 604 q 467 695 488 667 q 424 748 447 724 q 381 789 401 772 l 221 710 l 183 779 l 313 843 q 246 877 281 864 q 171 901 211 890 l 239 1022 q 357 980 297 1007 q 465 917 417 953 l 593 983 l 635 911 l 529 858 q 601 771 567 821 q 663 658 636 721 q 706 519 690 594 q 722 358 722 444 q 701 211 722 279 q 637 92 679 143 q 531 13 594 42 q 385 -15 468 -15 q 267 3 326 -15 q 160 63 208 22 q 82 164 113 103 q 51 311 51 225 q 74 448 51 388 q 138 550 97 508 q 233 613 179 592 q 350 635 288 635 m 388 500 q 335 491 361 500 q 287 460 308 482 q 251 402 265 438 q 238 315 238 367 q 251 224 238 261 q 287 163 265 186 q 336 131 308 140 q 392 121 364 121 q 451 136 424 121 q 499 177 479 151 q 531 239 519 203 q 542 317 542 275 q 529 395 542 361 q 495 453 517 429 q 446 488 474 476 q 388 500 418 500 z "},"ñ":{"ha":782,"x_min":83,"x_max":699,"o":"m 268 0 l 83 0 l 83 663 l 226 663 l 249 578 q 349 651 294 625 q 471 676 404 676 q 640 617 581 676 q 699 443 699 557 l 699 0 l 514 0 l 514 424 q 489 505 514 475 q 414 535 464 535 q 338 515 378 535 q 268 460 299 494 l 268 0 m 167 761 q 201 895 167 847 q 296 943 235 943 q 348 933 324 943 q 394 911 372 924 q 436 889 417 899 q 472 879 456 879 q 508 901 500 879 q 518 951 517 924 l 608 951 q 577 817 610 864 q 482 771 544 771 q 424 781 450 771 q 376 802 399 790 q 336 824 354 814 q 303 833 318 833 q 269 813 279 833 q 257 761 260 793 l 167 761 z "},"ò":{"ha":789,"x_min":54,"x_max":735,"o":"m 735 336 q 708 189 735 254 q 635 78 682 124 q 526 9 589 33 q 392 -15 464 -15 q 258 7 319 -15 q 151 72 196 29 q 80 178 106 115 q 54 322 54 242 q 81 473 54 407 q 153 584 107 539 q 263 653 200 629 q 397 676 325 676 q 531 654 469 676 q 638 590 593 632 q 709 483 683 547 q 735 336 735 419 m 544 329 q 532 426 544 386 q 498 492 519 467 q 449 528 476 517 q 393 540 422 540 q 338 530 364 540 q 290 495 311 519 q 257 431 269 471 q 244 329 244 390 q 257 235 244 275 q 290 171 269 196 q 339 133 311 146 q 396 121 367 121 q 451 131 425 121 q 499 167 478 142 q 532 231 519 192 q 544 329 544 271 m 204 968 l 389 968 l 486 761 l 354 761 l 204 968 z "},"ó":{"ha":789,"x_min":54,"x_max":735,"o":"m 735 336 q 708 189 735 254 q 635 78 682 124 q 526 9 589 33 q 392 -15 464 -15 q 258 7 319 -15 q 151 72 196 29 q 80 178 106 115 q 54 322 54 242 q 81 473 54 407 q 153 584 107 539 q 263 653 200 629 q 397 676 325 676 q 531 654 469 676 q 638 590 593 632 q 709 483 683 547 q 735 336 735 419 m 544 329 q 532 426 544 386 q 498 492 519 467 q 449 528 476 517 q 393 540 422 540 q 338 530 364 540 q 290 495 311 519 q 257 431 269 471 q 244 329 244 390 q 257 235 244 275 q 290 171 269 196 q 339 133 311 146 q 396 121 367 121 q 451 131 425 121 q 499 167 478 142 q 532 231 519 192 q 544 329 544 271 m 436 761 l 304 761 l 401 968 l 586 968 l 436 761 z "},"ô":{"ha":789,"x_min":54,"x_max":735,"o":"m 735 336 q 708 189 735 254 q 635 78 682 124 q 526 9 589 33 q 392 -15 464 -15 q 258 7 319 -15 q 151 72 196 29 q 80 178 106 115 q 54 322 54 242 q 81 473 54 407 q 153 584 107 539 q 263 653 200 629 q 397 676 325 676 q 531 654 469 676 q 638 590 593 632 q 709 483 683 547 q 735 336 735 419 m 544 329 q 532 426 544 386 q 498 492 519 467 q 449 528 476 517 q 393 540 422 540 q 338 530 364 540 q 290 495 311 519 q 257 431 269 471 q 244 329 244 390 q 257 235 244 275 q 290 171 269 196 q 339 133 311 146 q 396 121 367 121 q 451 131 425 121 q 499 167 478 142 q 532 231 519 192 q 544 329 544 271 m 619 761 l 483 761 l 396 868 l 310 761 l 167 761 l 342 958 l 449 958 l 619 761 z "},"õ":{"ha":789,"x_min":54,"x_max":735,"o":"m 735 336 q 708 189 735 254 q 635 78 682 124 q 526 9 589 33 q 392 -15 464 -15 q 258 7 319 -15 q 151 72 196 29 q 80 178 106 115 q 54 322 54 242 q 81 473 54 407 q 153 584 107 539 q 263 653 200 629 q 397 676 325 676 q 531 654 469 676 q 638 590 593 632 q 709 483 683 547 q 735 336 735 419 m 544 329 q 532 426 544 386 q 498 492 519 467 q 449 528 476 517 q 393 540 422 540 q 338 530 364 540 q 290 495 311 519 q 257 431 269 471 q 244 329 244 390 q 257 235 244 275 q 290 171 269 196 q 339 133 311 146 q 396 121 367 121 q 451 131 425 121 q 499 167 478 142 q 532 231 519 192 q 544 329 544 271 m 168 761 q 201 895 168 847 q 297 943 235 943 q 349 933 325 943 q 396 911 374 924 q 437 889 418 899 q 472 879 456 879 q 509 901 500 879 q 519 951 518 924 l 610 951 q 578 817 611 864 q 483 771 546 771 q 425 781 451 771 q 376 802 399 790 q 337 824 354 814 q 304 833 319 833 q 270 813 281 833 q 258 761 260 793 l 168 761 z "},"ö":{"ha":789,"x_min":54,"x_max":735,"o":"m 735 336 q 708 189 735 254 q 635 78 682 124 q 526 9 589 33 q 392 -15 464 -15 q 258 7 319 -15 q 151 72 196 29 q 80 178 106 115 q 54 322 54 242 q 81 473 54 407 q 153 584 107 539 q 263 653 200 629 q 397 676 325 676 q 531 654 469 676 q 638 590 593 632 q 709 483 683 547 q 735 336 735 419 m 544 329 q 532 426 544 386 q 498 492 519 467 q 449 528 476 517 q 393 540 422 540 q 338 530 364 540 q 290 495 311 519 q 257 431 269 471 q 244 329 244 390 q 257 235 244 275 q 290 171 269 196 q 339 133 311 146 q 396 121 367 121 q 451 131 425 121 q 499 167 478 142 q 532 231 519 192 q 544 329 544 271 m 165 863 q 192 925 165 899 q 256 951 219 951 q 319 925 294 951 q 344 863 344 899 q 319 797 344 824 q 256 771 294 771 q 192 797 219 771 q 165 863 165 824 m 440 863 q 467 925 440 899 q 531 951 494 951 q 594 925 569 951 q 619 863 619 899 q 594 797 619 824 q 531 771 569 771 q 467 797 494 771 q 440 863 440 824 z "},"ø":{"ha":789,"x_min":53,"x_max":736,"o":"m 528 786 l 607 760 l 563 642 q 686 528 640 604 q 735 340 732 453 q 710 192 736 258 q 639 81 685 126 q 531 10 593 35 q 396 -15 468 -14 q 307 -6 344 -15 l 265 -121 l 188 -94 l 231 18 q 103 131 151 57 q 54 318 56 206 q 78 469 53 403 q 150 582 104 536 q 258 652 196 628 q 393 676 321 676 q 485 668 440 676 l 528 786 m 390 540 q 335 530 361 540 q 288 495 308 519 q 256 430 268 471 q 244 328 244 389 q 258 231 244 269 q 292 168 271 192 l 426 538 q 409 540 418 539 q 390 540 400 540 m 544 332 q 531 429 544 390 q 497 492 518 468 l 363 125 q 399 121 379 121 q 453 132 426 121 q 499 168 479 143 q 532 233 519 193 q 544 332 544 274 z "},"ù":{"ha":779,"x_min":83,"x_max":696,"o":"m 511 663 l 696 663 l 696 0 l 558 0 l 539 75 l 533 75 q 498 44 518 60 q 451 15 478 28 q 390 -7 424 1 q 314 -15 356 -15 q 145 44 207 -15 q 83 221 83 104 l 83 663 l 268 663 l 268 236 q 297 150 268 176 q 369 124 325 124 q 455 144 419 124 q 511 193 490 165 l 511 663 m 179 968 l 364 968 l 461 761 l 329 761 l 179 968 z "},"ú":{"ha":779,"x_min":83,"x_max":696,"o":"m 511 663 l 696 663 l 696 0 l 558 0 l 539 75 l 533 75 q 498 44 518 60 q 451 15 478 28 q 390 -7 424 1 q 314 -15 356 -15 q 145 44 207 -15 q 83 221 83 104 l 83 663 l 268 663 l 268 236 q 297 150 268 176 q 369 124 325 124 q 455 144 419 124 q 511 193 490 165 l 511 663 m 450 761 l 319 761 l 417 968 l 601 968 l 450 761 z "},"û":{"ha":779,"x_min":83,"x_max":696,"o":"m 511 663 l 696 663 l 696 0 l 558 0 l 539 75 l 533 75 q 498 44 518 60 q 451 15 478 28 q 390 -7 424 1 q 314 -15 356 -15 q 145 44 207 -15 q 83 221 83 104 l 83 663 l 268 663 l 268 236 q 297 150 268 176 q 369 124 325 124 q 455 144 419 124 q 511 193 490 165 l 511 663 m 618 761 l 481 761 l 394 868 l 307 761 l 165 761 l 340 958 l 447 958 l 618 761 z "},"ü":{"ha":779,"x_min":83,"x_max":696,"o":"m 511 663 l 696 663 l 696 0 l 558 0 l 539 75 l 533 75 q 498 44 518 60 q 451 15 478 28 q 390 -7 424 1 q 314 -15 356 -15 q 145 44 207 -15 q 83 221 83 104 l 83 663 l 268 663 l 268 236 q 297 150 268 176 q 369 124 325 124 q 455 144 419 124 q 511 193 490 165 l 511 663 m 158 863 q 185 925 158 899 q 249 951 213 951 q 313 925 288 951 q 338 863 338 899 q 313 797 338 824 q 249 771 288 771 q 185 797 213 771 q 158 863 158 824 m 433 863 q 460 925 433 899 q 524 951 488 951 q 588 925 563 951 q 614 863 614 899 q 588 797 614 824 q 524 771 563 771 q 460 797 488 771 q 433 863 433 824 z "},"ý":{"ha":722,"x_min":10,"x_max":714,"o":"m 10 663 l 211 663 l 329 347 l 374 186 l 379 186 l 422 349 l 525 663 l 714 663 l 471 -24 q 424 -133 450 -81 q 362 -229 399 -185 q 275 -308 325 -274 q 157 -365 225 -343 l 81 -222 q 211 -142 158 -194 q 283 -15 264 -89 l 289 3 l 10 663 m 417 761 l 285 761 l 382 968 l 567 968 l 417 761 z "},"þ":{"ha":794,"x_min":86,"x_max":740,"o":"m 740 329 q 717 186 740 250 q 651 77 693 122 q 553 8 610 32 q 429 -15 496 -15 q 269 31 332 -15 l 269 -236 l 86 -236 l 86 992 l 269 992 l 269 610 q 351 659 304 642 q 450 676 397 676 q 663 585 586 676 q 740 329 740 493 m 550 325 q 510 481 550 428 q 396 535 469 535 q 324 517 357 535 q 271 475 290 499 l 271 169 q 317 134 289 147 q 378 121 346 121 q 442 133 411 121 q 498 171 474 146 q 536 234 522 196 q 550 325 550 272 z "},"ÿ":{"ha":722,"x_min":10,"x_max":714,"o":"m 10 663 l 211 663 l 329 347 l 374 186 l 379 186 l 422 349 l 525 663 l 714 663 l 471 -24 q 424 -133 450 -81 q 362 -229 399 -185 q 275 -308 325 -274 q 157 -365 225 -343 l 81 -222 q 211 -142 158 -194 q 283 -15 264 -89 l 289 3 l 10 663 m 144 863 q 172 925 144 899 q 235 951 199 951 q 299 925 274 951 q 325 863 325 899 q 299 797 325 824 q 235 771 274 771 q 172 797 199 771 q 144 863 144 824 m 421 863 q 447 925 421 899 q 511 951 474 951 q 574 925 549 951 q 600 863 600 899 q 574 797 600 824 q 511 771 549 771 q 447 797 474 771 q 421 863 421 824 z "},"¬":{"ha":514,"x_min":0,"x_max":0,"o":""},"˘":{"ha":410,"x_min":18,"x_max":392,"o":"m 126 954 q 146 891 129 914 q 206 868 163 868 q 285 954 281 868 l 392 954 q 344 820 392 871 q 206 769 296 769 q 120 785 156 769 q 62 826 85 800 q 28 885 39 851 q 18 954 18 918 l 126 954 z "},"ˇ":{"ha":496,"x_min":22,"x_max":475,"o":"m 22 958 l 160 958 l 246 851 l 333 958 l 475 958 l 300 761 l 194 761 l 22 958 z "},"ˉ":{"ha":417,"x_min":32,"x_max":386,"o":"m 386 918 l 386 814 l 32 814 l 32 918 l 386 918 z "},"˙":{"ha":246,"x_min":31,"x_max":214,"o":"m 31 865 q 58 929 31 901 q 124 957 86 957 q 188 929 163 957 q 214 865 214 901 q 188 799 214 825 q 124 772 163 772 q 58 799 86 772 q 31 865 31 825 z "},"˝":{"ha":418,"x_min":33,"x_max":582,"o":"m 163 761 l 33 761 l 132 968 l 315 968 l 163 761 m 429 761 l 300 761 l 399 968 l 582 968 l 429 761 z "},"¯":{"ha":417,"x_min":32,"x_max":386,"o":"m 386 918 l 386 814 l 32 814 l 32 918 l 386 918 z "},"˛":{"ha":340,"x_min":40,"x_max":307,"o":"m 228 0 q 178 -55 196 -28 q 161 -114 161 -82 q 178 -157 161 -142 q 224 -172 194 -172 q 282 -161 256 -172 l 307 -256 q 189 -286 258 -286 q 83 -251 125 -286 q 40 -151 40 -217 q 63 -61 40 -99 q 108 0 85 -24 l 228 0 z "},"˚":{"ha":342,"x_min":26,"x_max":314,"o":"m 26 865 q 39 921 26 897 q 71 960 51 944 q 116 983 90 975 q 169 990 142 990 q 224 983 199 990 q 270 960 250 975 q 302 921 290 944 q 314 865 314 897 q 301 810 314 833 q 268 770 289 786 q 222 747 247 754 q 169 739 196 739 q 117 747 143 739 q 72 772 92 756 q 39 811 51 788 q 26 865 26 835 m 110 865 q 127 817 110 833 q 169 801 144 801 q 213 817 196 801 q 231 865 231 833 q 213 913 231 897 q 169 929 194 929 q 128 913 146 929 q 110 865 110 897 z "},"Ă":{"ha":879,"x_min":17,"x_max":864,"o":"m 358 1138 q 378 1082 361 1103 q 439 1061 396 1061 q 517 1138 513 1061 l 624 1138 q 576 1007 624 1054 q 438 960 528 960 q 352 974 388 960 q 294 1013 317 989 q 260 1069 271 1038 q 250 1138 250 1101 l 358 1138 m 326 342 l 549 342 l 508 458 q 472 567 489 513 q 440 678 456 622 l 438 678 q 404 570 422 625 q 367 458 386 515 l 326 342 m 343 875 l 540 875 l 864 0 l 663 0 l 594 201 l 283 201 l 215 0 l 17 0 l 343 875 z "},"Ā":{"ha":879,"x_min":17,"x_max":864,"o":"m 617 1072 l 617 965 l 260 965 l 260 1072 l 617 1072 m 326 342 l 549 342 l 508 458 q 472 567 489 513 q 440 678 456 622 l 438 678 q 404 570 422 625 q 367 458 386 515 l 326 342 m 343 875 l 540 875 l 864 0 l 663 0 l 594 201 l 283 201 l 215 0 l 17 0 l 343 875 z "},"Ą":{"ha":882,"x_min":17,"x_max":864,"o":"m 343 875 l 540 875 l 864 0 l 793 0 q 737 -53 757 -25 q 717 -111 717 -81 q 733 -156 717 -139 q 779 -172 750 -172 q 811 -169 797 -172 q 838 -161 825 -165 l 863 -256 q 744 -286 814 -286 q 638 -249 681 -286 q 596 -146 596 -211 q 617 -58 596 -93 q 663 0 639 -24 l 594 201 l 283 201 l 215 0 l 17 0 l 343 875 m 326 342 l 549 342 l 508 458 q 472 567 489 513 q 440 678 456 622 l 438 678 q 404 570 422 625 q 367 458 386 515 l 326 342 z "},"Ǽ":{"ha":1156,"x_min":17,"x_max":1106,"o":"m 457 875 l 1101 875 l 1101 728 l 760 728 l 760 528 l 1065 528 l 1065 382 l 760 382 l 760 147 l 1106 147 l 1106 0 l 571 0 l 571 207 l 332 207 l 231 0 l 17 0 l 457 875 m 571 739 l 392 350 l 571 350 l 571 739 m 642 965 l 490 965 l 601 1138 l 801 1138 l 642 965 z "},"Ć":{"ha":792,"x_min":56,"x_max":753,"o":"m 528 132 q 636 143 592 132 q 713 174 681 154 l 751 35 q 657 0 718 15 q 508 -15 596 -15 q 326 16 410 -15 q 183 106 243 47 q 89 249 122 165 q 56 439 56 333 q 88 625 56 542 q 180 767 121 708 q 324 858 239 826 q 513 890 408 890 q 659 874 601 890 q 753 838 717 857 l 710 697 q 630 730 674 717 q 532 743 586 743 q 425 726 475 743 q 338 673 375 710 q 278 578 300 636 q 257 439 257 521 q 278 302 257 360 q 335 207 299 244 q 422 151 372 169 q 528 132 471 132 m 492 965 l 339 965 l 450 1138 l 651 1138 l 492 965 z "},"Č":{"ha":792,"x_min":56,"x_max":753,"o":"m 528 132 q 636 143 592 132 q 713 174 681 154 l 751 35 q 657 0 718 15 q 508 -15 596 -15 q 326 16 410 -15 q 183 106 243 47 q 89 249 122 165 q 56 439 56 333 q 88 625 56 542 q 180 767 121 708 q 324 858 239 826 q 513 890 408 890 q 659 874 601 890 q 753 838 717 857 l 710 697 q 630 730 674 717 q 532 743 586 743 q 425 726 475 743 q 338 673 375 710 q 278 578 300 636 q 257 439 257 521 q 278 302 257 360 q 335 207 299 244 q 422 151 372 169 q 528 132 471 132 m 249 1142 l 392 1142 l 481 1044 l 571 1142 l 708 1142 l 549 965 l 411 965 l 249 1142 z "},"Ĉ":{"ha":792,"x_min":56,"x_max":753,"o":"m 528 132 q 636 143 592 132 q 713 174 681 154 l 751 35 q 657 0 718 15 q 508 -15 596 -15 q 326 16 410 -15 q 183 106 243 47 q 89 249 122 165 q 56 439 56 333 q 88 625 56 542 q 180 767 121 708 q 324 858 239 826 q 513 890 408 890 q 659 874 601 890 q 753 838 717 857 l 710 697 q 630 730 674 717 q 532 743 586 743 q 425 726 475 743 q 338 673 375 710 q 278 578 300 636 q 257 439 257 521 q 278 302 257 360 q 335 207 299 244 q 422 151 372 169 q 528 132 471 132 m 408 1140 l 546 1140 l 710 965 l 567 965 l 476 1061 l 386 965 l 250 965 l 408 1140 z "},"Ċ":{"ha":792,"x_min":56,"x_max":753,"o":"m 528 132 q 636 143 592 132 q 713 174 681 154 l 751 35 q 657 0 718 15 q 508 -15 596 -15 q 326 16 410 -15 q 183 106 243 47 q 89 249 122 165 q 56 439 56 333 q 88 625 56 542 q 180 767 121 708 q 324 858 239 826 q 513 890 408 890 q 659 874 601 890 q 753 838 717 857 l 710 697 q 630 730 674 717 q 532 743 586 743 q 425 726 475 743 q 338 673 375 710 q 278 578 300 636 q 257 439 257 521 q 278 302 257 360 q 335 207 299 244 q 422 151 372 169 q 528 132 471 132 m 419 1046 q 447 1108 419 1082 q 510 1133 474 1133 q 574 1108 549 1133 q 600 1046 600 1082 q 574 981 600 1007 q 510 954 549 954 q 447 981 474 954 q 419 1046 419 1007 z "},"Ď":{"ha":908,"x_min":96,"x_max":854,"o":"m 401 875 q 586 849 503 875 q 729 769 669 822 q 822 638 789 717 q 854 456 854 560 q 815 251 854 336 q 710 109 776 165 q 553 26 643 53 q 364 0 464 0 l 96 0 l 96 875 l 401 875 m 286 147 l 351 147 q 465 162 410 147 q 561 212 519 176 q 628 306 603 247 q 653 456 653 365 q 578 658 653 588 q 376 728 503 728 l 286 728 l 286 147 m 178 1142 l 318 1142 l 408 1046 l 499 1142 l 638 1142 l 476 965 l 339 965 l 178 1142 z "},"Đ":{"ha":960,"x_min":31,"x_max":907,"o":"m 454 875 q 639 849 556 875 q 782 769 722 822 q 874 638 842 717 q 907 456 907 560 q 868 251 907 336 q 763 109 829 165 q 606 26 696 53 q 415 0 517 0 l 149 0 l 149 382 l 31 382 l 31 510 l 149 510 l 149 875 l 454 875 m 500 510 l 500 382 l 339 382 l 339 147 l 403 147 q 516 162 461 147 q 613 212 571 176 q 681 306 656 247 q 706 456 706 365 q 631 658 706 588 q 429 728 556 728 l 339 728 l 339 510 l 500 510 z "},"Ĕ":{"ha":718,"x_min":96,"x_max":669,"o":"m 96 875 l 665 875 l 665 728 l 286 728 l 286 528 l 629 528 l 629 382 l 286 382 l 286 147 l 669 147 l 669 0 l 96 0 l 96 875 m 310 1142 q 330 1086 313 1107 q 390 1065 347 1065 q 468 1142 464 1065 l 575 1142 q 527 1011 575 1058 q 389 964 479 964 q 303 978 339 964 q 245 1017 268 993 q 212 1074 222 1042 q 201 1142 201 1106 l 310 1142 z "},"Ě":{"ha":718,"x_min":96,"x_max":669,"o":"m 96 875 l 665 875 l 665 728 l 286 728 l 286 528 l 629 528 l 629 382 l 286 382 l 286 147 l 669 147 l 669 0 l 96 0 l 96 875 m 457 965 l 319 965 l 157 1142 l 299 1142 l 389 1044 l 479 1142 l 617 1142 l 457 965 z "},"Ė":{"ha":718,"x_min":96,"x_max":669,"o":"m 96 875 l 665 875 l 665 728 l 286 728 l 286 528 l 629 528 l 629 382 l 286 382 l 286 147 l 669 147 l 669 0 l 96 0 l 96 875 m 303 1046 q 329 1108 303 1082 q 393 1133 356 1133 q 456 1108 431 1133 q 482 1046 482 1082 q 456 981 482 1007 q 393 954 431 954 q 329 981 356 954 q 303 1046 303 1007 z "},"Ē":{"ha":718,"x_min":96,"x_max":669,"o":"m 96 875 l 665 875 l 665 728 l 286 728 l 286 528 l 629 528 l 629 382 l 286 382 l 286 147 l 669 147 l 669 0 l 96 0 l 96 875 m 553 1072 l 553 965 l 197 965 l 197 1072 l 553 1072 z "},"Ę":{"ha":718,"x_min":96,"x_max":738,"o":"m 96 875 l 665 875 l 665 728 l 286 728 l 286 528 l 629 528 l 629 382 l 286 382 l 286 147 l 669 147 l 669 0 q 615 -52 636 -25 q 593 -111 593 -79 q 610 -156 593 -139 q 654 -172 626 -172 q 688 -169 674 -172 q 713 -161 701 -165 l 738 -256 q 619 -286 692 -286 q 513 -249 556 -286 q 471 -146 471 -211 q 493 -61 471 -97 q 543 -4 515 -25 l 543 0 l 96 0 l 96 875 z "},"Ğ":{"ha":876,"x_min":56,"x_max":807,"o":"m 515 890 q 661 876 597 890 q 776 839 725 863 l 736 710 q 636 744 688 733 q 535 756 585 756 q 427 738 478 756 q 339 681 376 719 q 279 581 301 642 q 257 436 257 521 q 324 203 257 285 q 517 122 392 122 q 625 136 589 122 l 625 340 l 481 340 l 481 482 l 807 482 l 807 39 q 681 0 753 15 q 515 -15 608 -15 q 334 14 418 -15 q 188 101 250 43 q 91 242 126 158 q 56 436 56 326 q 91 631 56 546 q 188 774 126 717 q 333 860 249 831 q 515 890 417 890 m 438 1142 q 458 1086 440 1107 q 517 1065 475 1065 q 596 1142 592 1065 l 703 1142 q 655 1011 703 1058 q 517 964 607 964 q 431 978 467 964 q 373 1017 396 993 q 340 1074 350 1042 q 329 1142 329 1106 l 438 1142 z "},"Ĝ":{"ha":876,"x_min":56,"x_max":807,"o":"m 515 890 q 661 876 597 890 q 776 839 725 863 l 736 710 q 636 744 688 733 q 535 756 585 756 q 427 738 478 756 q 339 681 376 719 q 279 581 301 642 q 257 436 257 521 q 324 203 257 285 q 517 122 392 122 q 625 136 589 122 l 625 340 l 481 340 l 481 482 l 807 482 l 807 39 q 681 0 753 15 q 515 -15 608 -15 q 334 14 418 -15 q 188 101 250 43 q 91 242 126 158 q 56 436 56 326 q 91 631 56 546 q 188 774 126 717 q 333 860 249 831 q 515 890 417 890 m 411 1140 l 549 1140 l 713 965 l 569 965 l 479 1061 l 389 965 l 253 965 l 411 1140 z "},"Ģ":{"ha":876,"x_min":56,"x_max":807,"o":"m 515 890 q 661 876 597 890 q 776 839 725 863 l 736 710 q 636 744 688 733 q 535 756 585 756 q 427 738 478 756 q 339 681 376 719 q 279 581 301 642 q 257 436 257 521 q 324 203 257 285 q 517 122 392 122 q 625 136 589 122 l 625 340 l 481 340 l 481 482 l 807 482 l 807 39 q 681 0 753 15 q 515 -15 608 -15 q 334 14 418 -15 q 188 101 250 43 q 91 242 126 158 q 56 436 56 326 q 91 631 56 546 q 188 774 126 717 q 333 860 249 831 q 515 890 417 890 m 501 -275 q 443 -244 467 -268 q 419 -182 419 -219 q 444 -117 419 -146 q 514 -89 469 -89 q 551 -97 532 -89 q 587 -120 571 -104 q 613 -162 603 -136 q 624 -226 624 -189 q 610 -301 624 -265 q 576 -369 597 -337 q 526 -424 554 -400 q 468 -464 499 -449 l 425 -407 q 490 -352 461 -386 q 525 -279 518 -318 l 501 -275 z "},"Ġ":{"ha":876,"x_min":56,"x_max":807,"o":"m 515 890 q 661 876 597 890 q 776 839 725 863 l 736 710 q 636 744 688 733 q 535 756 585 756 q 427 738 478 756 q 339 681 376 719 q 279 581 301 642 q 257 436 257 521 q 324 203 257 285 q 517 122 392 122 q 625 136 589 122 l 625 340 l 481 340 l 481 482 l 807 482 l 807 39 q 681 0 753 15 q 515 -15 608 -15 q 334 14 418 -15 q 188 101 250 43 q 91 242 126 158 q 56 436 56 326 q 91 631 56 546 q 188 774 126 717 q 333 860 249 831 q 515 890 417 890 m 425 1046 q 452 1108 425 1082 q 515 1133 479 1133 q 580 1108 554 1133 q 606 1046 606 1082 q 580 981 606 1007 q 515 954 554 954 q 452 981 479 954 q 425 1046 425 1007 z "},"Ħ":{"ha":935,"x_min":28,"x_max":907,"o":"m 111 0 l 111 657 l 28 657 l 28 774 l 111 774 l 111 875 l 301 875 l 301 774 l 633 774 l 633 875 l 824 875 l 824 774 l 907 774 l 907 657 l 824 657 l 824 0 l 633 0 l 633 378 l 301 378 l 301 0 l 111 0 m 633 528 l 633 657 l 301 657 l 301 528 l 633 528 z "},"Ĥ":{"ha":906,"x_min":96,"x_max":808,"o":"m 96 0 l 96 875 l 286 875 l 286 528 l 618 528 l 618 875 l 808 875 l 808 0 l 618 0 l 618 378 l 286 378 l 286 0 l 96 0 m 389 1140 l 526 1140 l 689 965 l 547 965 l 457 1061 l 367 965 l 229 965 l 389 1140 z "},"Ĭ":{"ha":383,"x_min":4,"x_max":378,"o":"m 286 875 l 286 0 l 96 0 l 96 875 l 286 875 m 113 1138 q 133 1082 115 1103 q 193 1061 151 1061 q 271 1138 267 1061 l 378 1138 q 330 1007 378 1054 q 192 960 282 960 q 106 974 142 960 q 48 1013 71 989 q 15 1069 25 1038 q 4 1138 4 1101 l 113 1138 z "},"İ":{"ha":383,"x_min":96,"x_max":286,"o":"m 286 875 l 286 0 l 96 0 l 96 875 l 286 875 m 100 1046 q 127 1108 100 1082 q 190 1133 154 1133 q 255 1108 229 1133 q 281 1046 281 1082 q 255 981 281 1007 q 190 954 229 954 q 127 981 154 954 q 100 1046 100 1007 z "},"Ī":{"ha":383,"x_min":14,"x_max":371,"o":"m 286 875 l 286 0 l 96 0 l 96 875 l 286 875 m 371 1072 l 371 965 l 14 965 l 14 1072 l 371 1072 z "},"Į":{"ha":383,"x_min":29,"x_max":296,"o":"m 286 875 l 286 0 l 224 0 q 171 -52 192 -25 q 150 -111 150 -79 q 167 -156 150 -139 q 213 -172 183 -172 q 244 -169 231 -172 q 271 -161 258 -165 l 296 -256 q 178 -286 247 -286 q 72 -249 114 -286 q 29 -146 29 -211 q 51 -58 29 -93 q 96 0 72 -24 l 96 875 l 286 875 z "},"Ĩ":{"ha":383,"x_min":-22,"x_max":399,"o":"m 286 875 l 286 0 l 96 0 l 96 875 l 286 875 m -22 965 q 10 1082 -22 1035 q 104 1129 42 1129 q 150 1122 129 1129 q 190 1105 171 1114 q 226 1088 208 1096 q 264 1081 244 1081 q 297 1095 286 1081 q 308 1133 307 1110 l 399 1133 q 367 1017 399 1063 q 278 972 335 972 q 228 980 251 972 q 183 996 204 988 q 144 1012 163 1004 q 113 1019 126 1019 q 79 1004 89 1019 q 68 965 69 989 l -22 965 z "},"Ĳ":{"ha":760,"x_min":96,"x_max":665,"o":"m 286 875 l 286 0 l 96 0 l 96 875 l 286 875 m 665 875 l 665 160 q 663 62 665 106 q 651 -18 660 18 q 628 -83 643 -54 q 592 -139 614 -112 q 476 -215 546 -193 q 329 -236 407 -236 l 329 -90 q 392 -79 365 -90 q 435 -51 418 -68 q 467 7 460 -29 q 475 88 475 43 l 475 875 l 665 875 z "},"Ĵ":{"ha":404,"x_min":-26,"x_max":447,"o":"m 310 875 l 310 160 q 307 62 310 106 q 296 -18 304 18 q 273 -83 288 -54 q 236 -139 258 -112 q 121 -215 190 -193 q -26 -236 51 -236 l -26 -90 q 36 -79 10 -90 q 79 -51 63 -68 q 112 7 104 -29 q 119 88 119 43 l 119 875 l 310 875 m 147 1140 l 285 1140 l 447 965 l 306 965 l 215 1061 l 125 965 l -12 965 l 147 1140 z "},"Ķ":{"ha":850,"x_min":96,"x_max":851,"o":"m 96 0 l 96 875 l 286 875 l 286 507 l 588 875 l 824 875 l 497 493 l 851 0 l 617 0 l 358 374 l 286 297 l 286 0 l 96 0 m 422 -275 q 365 -244 389 -268 q 340 -182 340 -219 q 365 -117 340 -146 q 435 -89 390 -89 q 472 -97 453 -89 q 508 -120 492 -104 q 534 -162 524 -136 q 544 -226 544 -189 q 531 -301 544 -265 q 497 -369 518 -337 q 447 -424 475 -400 q 389 -464 419 -449 l 346 -407 q 411 -352 382 -386 q 447 -279 440 -318 l 422 -275 z "},"Ĺ":{"ha":650,"x_min":96,"x_max":639,"o":"m 96 875 l 286 875 l 286 150 l 639 150 l 639 0 l 96 0 l 96 875 m 263 965 l 110 965 l 221 1138 l 422 1138 l 263 965 z "},"Ľ":{"ha":650,"x_min":96,"x_max":639,"o":"m 96 875 l 286 875 l 286 150 l 639 150 l 639 0 l 96 0 l 96 875 m 451 844 q 393 876 417 851 q 369 938 369 900 q 394 1002 369 974 q 464 1031 419 1031 q 501 1023 482 1031 q 537 999 521 1015 q 563 957 553 983 q 574 893 574 931 q 560 818 574 854 q 525 751 547 782 q 475 695 503 719 q 417 656 447 671 l 374 713 q 439 767 410 733 q 475 840 468 801 l 451 844 z "},"Ļ":{"ha":650,"x_min":96,"x_max":639,"o":"m 96 875 l 286 875 l 286 150 l 639 150 l 639 0 l 96 0 l 96 875 m 343 -275 q 285 -244 308 -268 q 261 -182 261 -219 q 286 -117 261 -146 q 356 -89 311 -89 q 393 -97 374 -89 q 428 -120 413 -104 q 455 -162 444 -136 q 465 -226 465 -189 q 452 -301 465 -265 q 417 -369 439 -337 q 368 -424 396 -400 q 310 -464 340 -449 l 267 -407 q 331 -352 303 -386 q 367 -279 360 -318 l 343 -275 z "},"Ŀ":{"ha":650,"x_min":96,"x_max":639,"o":"m 96 875 l 286 875 l 286 150 l 639 150 l 639 0 l 96 0 l 96 875 m 367 481 q 392 547 367 519 q 458 575 418 575 q 519 548 494 575 q 544 481 544 521 q 519 415 544 443 q 458 386 494 386 q 392 415 418 386 q 367 481 367 443 z "},"Ł":{"ha":650,"x_min":-65,"x_max":639,"o":"m 96 875 l 286 875 l 286 564 l 426 682 l 499 594 l 286 417 l 286 150 l 639 150 l 639 0 l 96 0 l 96 275 l 7 201 l -65 288 l 96 422 l 96 875 z "},"Ń":{"ha":931,"x_min":96,"x_max":835,"o":"m 508 965 l 357 965 l 468 1138 l 668 1138 l 508 965 m 96 875 l 269 875 l 571 414 q 627 322 601 367 q 664 251 653 276 l 667 251 q 658 431 658 342 q 658 613 658 521 l 658 875 l 835 875 l 835 0 l 661 0 l 381 425 q 345 483 363 453 q 313 540 328 513 q 285 591 297 568 q 268 629 274 614 l 265 629 q 273 445 272 533 q 274 265 274 357 l 274 0 l 96 0 l 96 875 z "},"Ň":{"ha":931,"x_min":96,"x_max":835,"o":"m 540 965 l 403 965 l 240 1142 l 382 1142 l 472 1044 l 563 1142 l 700 1142 l 540 965 m 96 875 l 269 875 l 571 414 q 627 322 601 367 q 664 251 653 276 l 667 251 q 658 431 658 342 q 658 613 658 521 l 658 875 l 835 875 l 835 0 l 661 0 l 381 425 q 345 483 363 453 q 313 540 328 513 q 285 591 297 568 q 268 629 274 614 l 265 629 q 273 445 272 533 q 274 265 274 357 l 274 0 l 96 0 l 96 875 z "},"Ņ":{"ha":931,"x_min":96,"x_max":835,"o":"m 440 -275 q 382 -244 406 -268 q 358 -182 358 -219 q 383 -117 358 -146 q 453 -89 408 -89 q 490 -97 471 -89 q 526 -120 510 -104 q 552 -162 542 -136 q 563 -226 563 -189 q 549 -301 563 -265 q 515 -369 536 -337 q 465 -424 493 -400 q 407 -464 438 -449 l 364 -407 q 428 -352 400 -386 q 464 -279 457 -318 l 440 -275 m 96 875 l 269 875 l 571 414 q 627 322 601 367 q 664 251 653 276 l 667 251 q 658 431 658 342 q 658 613 658 521 l 658 875 l 835 875 l 835 0 l 661 0 l 381 425 q 345 483 363 453 q 313 540 328 513 q 285 591 297 568 q 268 629 274 614 l 265 629 q 273 445 272 533 q 274 265 274 357 l 274 0 l 96 0 l 96 875 z "},"Ŏ":{"ha":978,"x_min":56,"x_max":922,"o":"m 492 890 q 664 860 585 890 q 800 772 743 829 q 890 629 857 714 q 922 436 922 544 q 889 247 922 331 q 797 106 856 164 q 659 16 739 47 q 486 -15 579 -15 q 314 15 393 -15 q 178 102 235 44 q 88 244 121 160 q 56 436 56 328 q 89 626 56 542 q 181 769 122 710 q 319 859 239 828 q 492 890 399 890 m 257 436 q 276 301 257 358 q 326 205 294 243 q 401 148 358 167 q 492 129 443 129 q 581 148 539 129 q 654 205 624 167 q 703 301 685 243 q 721 436 721 358 q 702 575 721 517 q 651 672 683 633 q 577 728 619 710 q 486 746 535 746 q 396 726 438 746 q 324 669 354 707 q 275 572 293 631 q 257 436 257 514 m 407 1138 q 427 1082 410 1103 q 488 1061 444 1061 q 565 1138 561 1061 l 672 1138 q 624 1007 672 1054 q 486 960 576 960 q 401 974 436 960 q 342 1013 365 989 q 309 1069 319 1038 q 299 1138 299 1101 l 407 1138 z "},"Ő":{"ha":978,"x_min":56,"x_max":922,"o":"m 492 890 q 664 860 585 890 q 800 772 743 829 q 890 629 857 714 q 922 436 922 544 q 889 247 922 331 q 797 106 856 164 q 659 16 739 47 q 486 -15 579 -15 q 314 15 393 -15 q 178 102 235 44 q 88 244 121 160 q 56 436 56 328 q 89 626 56 542 q 181 769 122 710 q 319 859 239 828 q 492 890 399 890 m 257 436 q 276 301 257 358 q 326 205 294 243 q 401 148 358 167 q 492 129 443 129 q 581 148 539 129 q 654 205 624 167 q 703 301 685 243 q 721 436 721 358 q 702 575 721 517 q 651 672 683 633 q 577 728 619 710 q 486 746 535 746 q 396 726 438 746 q 324 669 354 707 q 275 572 293 631 q 257 436 257 514 m 381 965 l 239 965 l 350 1138 l 532 1138 l 381 965 m 671 965 l 529 965 l 640 1138 l 824 1138 l 671 965 z "},"Ō":{"ha":978,"x_min":56,"x_max":922,"o":"m 492 890 q 664 860 585 890 q 800 772 743 829 q 890 629 857 714 q 922 436 922 544 q 889 247 922 331 q 797 106 856 164 q 659 16 739 47 q 486 -15 579 -15 q 314 15 393 -15 q 178 102 235 44 q 88 244 121 160 q 56 436 56 328 q 89 626 56 542 q 181 769 122 710 q 319 859 239 828 q 492 890 399 890 m 257 436 q 276 301 257 358 q 326 205 294 243 q 401 148 358 167 q 492 129 443 129 q 581 148 539 129 q 654 205 624 167 q 703 301 685 243 q 721 436 721 358 q 702 575 721 517 q 651 672 683 633 q 577 728 619 710 q 486 746 535 746 q 396 726 438 746 q 324 669 354 707 q 275 572 293 631 q 257 436 257 514 m 667 1072 l 667 965 l 311 965 l 311 1072 l 667 1072 z "},"Ǿ":{"ha":978,"x_min":56,"x_max":922,"o":"m 485 965 l 332 965 l 443 1138 l 643 1138 l 485 965 m 718 1047 l 806 1010 l 725 829 q 869 676 815 775 q 922 436 922 578 q 889 247 922 331 q 797 106 856 164 q 659 16 739 47 q 486 -15 579 -15 q 419 -10 453 -15 q 356 1 385 -6 l 258 -224 l 171 -185 l 268 35 q 113 188 171 88 q 56 436 56 289 q 89 626 56 542 q 181 769 122 710 q 319 859 239 828 q 492 890 399 890 q 567 885 529 890 q 639 868 606 879 l 718 1047 m 257 436 q 279 279 257 340 q 338 183 301 218 l 572 732 q 531 742 553 739 q 486 746 508 746 q 396 726 438 746 q 324 669 354 707 q 275 572 293 631 q 257 436 257 514 m 492 129 q 581 148 539 129 q 654 205 624 167 q 703 301 685 243 q 721 436 721 358 q 703 581 721 522 q 653 675 685 639 l 422 138 q 492 129 456 129 z "},"Ŕ":{"ha":793,"x_min":96,"x_max":772,"o":"m 96 875 l 428 875 q 558 853 501 875 q 651 795 614 832 q 708 709 689 758 q 726 603 726 660 q 710 509 726 550 q 670 438 694 468 q 616 388 646 408 q 558 356 586 368 l 772 0 l 554 0 l 386 322 l 285 322 l 285 0 l 96 0 l 96 875 m 285 468 l 360 468 q 483 499 435 468 q 531 600 531 529 q 492 697 531 663 q 381 731 454 731 l 285 731 l 285 468 m 406 965 l 253 965 l 364 1138 l 564 1138 l 406 965 z "},"Ř":{"ha":793,"x_min":96,"x_max":772,"o":"m 96 875 l 428 875 q 558 853 501 875 q 651 795 614 832 q 708 709 689 758 q 726 603 726 660 q 710 509 726 550 q 670 438 694 468 q 616 388 646 408 q 558 356 586 368 l 772 0 l 554 0 l 386 322 l 285 322 l 285 0 l 96 0 l 96 875 m 285 468 l 360 468 q 483 499 435 468 q 531 600 531 529 q 492 697 531 663 q 381 731 454 731 l 285 731 l 285 468 m 442 965 l 304 965 l 142 1142 l 283 1142 l 374 1044 l 464 1142 l 601 1142 l 442 965 z "},"Ŗ":{"ha":793,"x_min":96,"x_max":772,"o":"m 96 875 l 428 875 q 558 853 501 875 q 651 795 614 832 q 708 709 689 758 q 726 603 726 660 q 710 509 726 550 q 670 438 694 468 q 616 388 646 408 q 558 356 586 368 l 772 0 l 554 0 l 386 322 l 285 322 l 285 0 l 96 0 l 96 875 m 285 468 l 360 468 q 483 499 435 468 q 531 600 531 529 q 492 697 531 663 q 381 731 454 731 l 285 731 l 285 468 m 385 -275 q 326 -244 350 -268 q 303 -182 303 -219 q 328 -117 303 -146 q 397 -89 353 -89 q 435 -97 415 -89 q 470 -120 454 -104 q 497 -162 486 -136 q 507 -226 507 -189 q 494 -301 507 -265 q 459 -369 481 -337 q 410 -424 438 -400 q 351 -464 382 -449 l 308 -407 q 373 -352 344 -386 q 408 -279 401 -318 l 385 -275 z "},"Ś":{"ha":744,"x_min":57,"x_max":690,"o":"m 379 890 q 529 874 464 890 q 646 831 594 857 l 603 689 q 493 731 546 717 q 390 746 440 746 q 287 719 324 746 q 250 649 250 693 q 282 579 250 603 q 385 533 314 556 l 468 507 q 631 408 572 472 q 690 251 690 344 q 669 147 690 196 q 607 63 649 99 q 503 6 565 26 q 357 -15 440 -15 q 69 49 200 -15 l 113 190 q 229 145 172 161 q 349 129 286 129 q 460 156 422 129 q 497 232 497 183 q 491 265 497 249 q 468 295 485 281 q 423 324 451 310 q 349 353 394 339 l 275 378 q 186 417 226 394 q 117 468 146 439 q 73 537 89 497 q 57 629 57 576 q 78 734 57 686 q 140 817 99 782 q 241 871 181 851 q 379 890 301 890 m 386 965 l 235 965 l 346 1138 l 546 1138 l 386 965 z "},"Ş":{"ha":744,"x_min":57,"x_max":690,"o":"m 379 890 q 529 874 464 890 q 646 831 594 857 l 603 689 q 493 731 546 717 q 390 746 440 746 q 287 719 324 746 q 250 649 250 693 q 282 579 250 603 q 385 533 314 556 l 468 507 q 631 408 572 472 q 690 251 690 344 q 672 154 690 200 q 619 74 654 108 q 529 16 583 39 q 404 -12 475 -7 l 386 -65 q 469 -100 439 -69 q 499 -171 499 -131 q 451 -267 499 -235 q 333 -299 404 -299 q 269 -292 299 -299 q 221 -279 239 -286 l 243 -203 q 277 -212 261 -210 q 314 -215 293 -215 q 362 -203 344 -215 q 379 -164 379 -190 q 357 -125 379 -142 q 269 -108 335 -108 l 306 -12 q 182 8 242 -7 q 69 49 122 22 l 113 190 q 229 145 172 161 q 349 129 286 129 q 460 156 422 129 q 497 232 497 183 q 491 265 497 249 q 468 295 485 281 q 423 324 451 310 q 349 353 394 339 l 275 378 q 186 417 226 394 q 117 468 146 439 q 73 537 89 497 q 57 629 57 576 q 78 734 57 686 q 140 817 99 782 q 241 871 181 851 q 379 890 301 890 z "},"Ŝ":{"ha":744,"x_min":57,"x_max":690,"o":"m 379 890 q 529 874 464 890 q 646 831 594 857 l 603 689 q 493 731 546 717 q 390 746 440 746 q 287 719 324 746 q 250 649 250 693 q 282 579 250 603 q 385 533 314 556 l 468 507 q 631 408 572 472 q 690 251 690 344 q 669 147 690 196 q 607 63 649 99 q 503 6 565 26 q 357 -15 440 -15 q 69 49 200 -15 l 113 190 q 229 145 172 161 q 349 129 286 129 q 460 156 422 129 q 497 232 497 183 q 491 265 497 249 q 468 295 485 281 q 423 324 451 310 q 349 353 394 339 l 275 378 q 186 417 226 394 q 117 468 146 439 q 73 537 89 497 q 57 629 57 576 q 78 734 57 686 q 140 817 99 782 q 241 871 181 851 q 379 890 301 890 m 299 1140 l 436 1140 l 599 965 l 457 965 l 367 1061 l 276 965 l 139 965 l 299 1140 z "},"Ș":{"ha":744,"x_min":57,"x_max":690,"o":"m 379 890 q 529 874 464 890 q 646 831 594 857 l 603 689 q 493 731 546 717 q 390 746 440 746 q 287 719 324 746 q 250 649 250 693 q 282 579 250 603 q 385 533 314 556 l 468 507 q 631 408 572 472 q 690 251 690 344 q 669 147 690 196 q 607 63 649 99 q 503 6 565 26 q 357 -15 440 -15 q 69 49 200 -15 l 113 190 q 229 145 172 161 q 349 129 286 129 q 460 156 422 129 q 497 232 497 183 q 491 265 497 249 q 468 295 485 281 q 423 324 451 310 q 349 353 394 339 l 275 378 q 186 417 226 394 q 117 468 146 439 q 73 537 89 497 q 57 629 57 576 q 78 734 57 686 q 140 817 99 782 q 241 871 181 851 q 379 890 301 890 m 338 -275 q 279 -244 303 -268 q 256 -182 256 -219 q 281 -117 256 -146 q 350 -89 306 -89 q 388 -97 368 -89 q 423 -120 407 -104 q 449 -162 439 -136 q 460 -226 460 -189 q 447 -301 460 -265 q 411 -369 433 -337 q 361 -424 389 -400 q 303 -464 333 -449 l 260 -407 q 325 -352 296 -386 q 361 -279 354 -318 l 338 -275 z "},"Ŧ":{"ha":706,"x_min":14,"x_max":693,"o":"m 693 875 l 693 725 l 446 725 l 446 500 l 579 500 l 579 372 l 446 372 l 446 0 l 256 0 l 256 372 l 122 372 l 122 500 l 256 500 l 256 725 l 14 725 l 14 875 l 693 875 z "},"Ť":{"ha":706,"x_min":14,"x_max":693,"o":"m 693 875 l 693 725 l 446 725 l 446 0 l 256 0 l 256 725 l 14 725 l 14 875 l 693 875 m 421 965 l 283 965 l 121 1142 l 261 1142 l 351 1046 l 442 1142 l 581 1142 l 421 965 z "},"Ţ":{"ha":706,"x_min":14,"x_max":693,"o":"m 693 875 l 693 725 l 446 725 l 446 0 l 256 0 l 256 725 l 14 725 l 14 875 l 693 875 m 326 -275 q 269 -244 293 -268 q 244 -182 244 -219 q 269 -117 244 -146 q 339 -89 294 -89 q 376 -97 357 -89 q 412 -120 396 -104 q 438 -162 428 -136 q 449 -226 449 -189 q 435 -301 449 -265 q 401 -369 422 -337 q 351 -424 379 -400 q 293 -464 324 -449 l 250 -407 q 315 -352 286 -386 q 351 -279 344 -318 l 326 -275 z "},"Ŭ":{"ha":918,"x_min":93,"x_max":824,"o":"m 93 875 l 283 875 l 283 351 q 327 187 283 243 q 463 131 371 131 q 593 188 553 131 q 633 335 633 244 l 633 875 l 824 875 l 824 349 q 733 75 824 165 q 463 -15 642 -15 q 192 75 290 -15 q 93 356 93 165 l 93 875 m 383 1138 q 403 1082 386 1103 q 463 1061 421 1061 q 542 1138 538 1061 l 649 1138 q 601 1007 649 1054 q 463 960 553 960 q 377 974 413 960 q 319 1013 342 989 q 285 1069 296 1038 q 275 1138 275 1101 l 383 1138 z "},"Ű":{"ha":918,"x_min":93,"x_max":824,"o":"m 93 875 l 283 875 l 283 351 q 327 187 283 243 q 463 131 371 131 q 593 188 553 131 q 633 335 633 244 l 633 875 l 824 875 l 824 349 q 733 75 824 165 q 463 -15 642 -15 q 192 75 290 -15 q 93 356 93 165 l 93 875 m 353 965 l 211 965 l 322 1138 l 506 1138 l 353 965 m 643 965 l 501 965 l 613 1138 l 796 1138 l 643 965 z "},"Ū":{"ha":918,"x_min":93,"x_max":824,"o":"m 93 875 l 283 875 l 283 351 q 327 187 283 243 q 463 131 371 131 q 593 188 553 131 q 633 335 633 244 l 633 875 l 824 875 l 824 349 q 733 75 824 165 q 463 -15 642 -15 q 192 75 290 -15 q 93 356 93 165 l 93 875 m 640 1072 l 640 965 l 283 965 l 283 1072 l 640 1072 z "},"Ų":{"ha":918,"x_min":93,"x_max":824,"o":"m 93 875 l 283 875 l 283 351 q 327 187 283 243 q 463 131 371 131 q 593 188 553 131 q 633 335 633 244 l 633 875 l 824 875 l 824 349 q 496 -14 824 3 q 454 -60 468 -37 q 440 -111 440 -83 q 457 -156 440 -139 q 501 -172 474 -172 q 534 -169 521 -172 q 560 -161 547 -165 l 585 -256 q 467 -286 539 -286 q 360 -249 403 -286 q 318 -146 318 -211 q 336 -66 318 -101 q 378 -8 354 -31 q 168 100 243 11 q 93 356 93 189 l 93 875 z "},"Ů":{"ha":918,"x_min":93,"x_max":824,"o":"m 93 875 l 283 875 l 283 351 q 327 187 283 243 q 463 131 371 131 q 593 188 553 131 q 633 335 633 244 l 633 875 l 824 875 l 824 349 q 733 75 824 165 q 463 -15 642 -15 q 192 75 290 -15 q 93 356 93 165 l 93 875 m 318 1058 q 359 1153 318 1121 q 463 1185 400 1185 q 567 1153 526 1185 q 608 1058 608 1121 q 565 965 608 996 q 463 933 521 933 q 360 966 403 933 q 318 1058 318 999 m 406 1058 q 421 1013 406 1029 q 463 996 436 996 q 505 1013 489 996 q 521 1058 521 1029 q 504 1106 521 1089 q 463 1122 488 1122 q 422 1106 438 1122 q 406 1058 406 1089 z "},"Ũ":{"ha":918,"x_min":93,"x_max":824,"o":"m 93 875 l 283 875 l 283 351 q 327 187 283 243 q 463 131 371 131 q 593 188 553 131 q 633 335 633 244 l 633 875 l 824 875 l 824 349 q 733 75 824 165 q 463 -15 642 -15 q 192 75 290 -15 q 93 356 93 165 l 93 875 m 250 965 q 282 1081 250 1033 q 375 1129 314 1129 q 422 1122 401 1129 q 462 1104 443 1114 q 498 1087 481 1094 q 535 1079 515 1079 q 567 1094 557 1079 q 581 1133 578 1110 l 671 1133 q 639 1017 671 1063 q 550 971 607 971 q 499 978 522 971 q 454 995 475 986 q 416 1012 433 1004 q 383 1019 399 1019 q 351 1003 360 1019 q 340 965 342 988 l 250 965 z "},"Ẃ":{"ha":1206,"x_min":11,"x_max":1194,"o":"m 657 965 l 506 965 l 617 1138 l 817 1138 l 657 965 m 204 875 l 300 471 q 310 418 304 453 q 324 344 317 383 q 338 265 332 304 q 349 201 344 226 l 351 201 q 362 266 356 228 q 376 344 368 304 q 391 417 383 383 q 403 471 399 451 l 504 875 l 703 875 l 804 472 q 815 419 808 454 q 831 344 822 385 q 846 265 839 304 q 857 201 853 226 l 860 201 q 871 266 864 228 q 885 343 878 304 q 900 417 893 382 q 911 472 907 453 l 1003 875 l 1194 875 l 971 0 l 763 0 l 650 451 q 624 561 636 507 q 601 674 613 615 l 599 674 q 576 563 588 615 q 551 453 565 510 l 443 0 l 239 0 l 11 875 l 204 875 z "},"Ŵ":{"ha":1206,"x_min":11,"x_max":1194,"o":"m 532 1140 l 669 1140 l 833 965 l 690 965 l 600 1061 l 510 965 l 374 965 l 532 1140 m 204 875 l 300 471 q 310 418 304 453 q 324 344 317 383 q 338 265 332 304 q 349 201 344 226 l 351 201 q 362 266 356 228 q 376 344 368 304 q 391 417 383 383 q 403 471 399 451 l 504 875 l 703 875 l 804 472 q 815 419 808 454 q 831 344 822 385 q 846 265 839 304 q 857 201 853 226 l 860 201 q 871 266 864 228 q 885 343 878 304 q 900 417 893 382 q 911 472 907 453 l 1003 875 l 1194 875 l 971 0 l 763 0 l 650 451 q 624 561 636 507 q 601 674 613 615 l 599 674 q 576 563 588 615 q 551 453 565 510 l 443 0 l 239 0 l 11 875 l 204 875 z "},"Ẅ":{"ha":1206,"x_min":11,"x_max":1194,"o":"m 376 1043 q 402 1104 376 1079 q 464 1129 428 1129 q 526 1104 501 1129 q 551 1043 551 1079 q 526 980 551 1006 q 464 954 501 954 q 402 980 428 954 q 376 1043 376 1006 m 647 1043 q 673 1104 647 1079 q 736 1129 699 1129 q 797 1104 772 1129 q 822 1043 822 1079 q 797 980 822 1006 q 736 954 772 954 q 673 980 699 954 q 647 1043 647 1006 m 204 875 l 300 471 q 310 418 304 453 q 324 344 317 383 q 338 265 332 304 q 349 201 344 226 l 351 201 q 362 266 356 228 q 376 344 368 304 q 391 417 383 383 q 403 471 399 451 l 504 875 l 703 875 l 804 472 q 815 419 808 454 q 831 344 822 385 q 846 265 839 304 q 857 201 853 226 l 860 201 q 871 266 864 228 q 885 343 878 304 q 900 417 893 382 q 911 472 907 453 l 1003 875 l 1194 875 l 971 0 l 763 0 l 650 451 q 624 561 636 507 q 601 674 613 615 l 599 674 q 576 563 588 615 q 551 453 565 510 l 443 0 l 239 0 l 11 875 l 204 875 z "},"Ẁ":{"ha":1206,"x_min":11,"x_max":1194,"o":"m 393 1138 l 593 1138 l 704 965 l 551 965 l 393 1138 m 204 875 l 300 471 q 310 418 304 453 q 324 344 317 383 q 338 265 332 304 q 349 201 344 226 l 351 201 q 362 266 356 228 q 376 344 368 304 q 391 417 383 383 q 403 471 399 451 l 504 875 l 703 875 l 804 472 q 815 419 808 454 q 831 344 822 385 q 846 265 839 304 q 857 201 853 226 l 860 201 q 871 266 864 228 q 885 343 878 304 q 900 417 893 382 q 911 472 907 453 l 1003 875 l 1194 875 l 971 0 l 763 0 l 650 451 q 624 561 636 507 q 601 674 613 615 l 599 674 q 576 563 588 615 q 551 453 565 510 l 443 0 l 239 0 l 11 875 l 204 875 z "},"Ŷ":{"ha":815,"x_min":13,"x_max":808,"o":"m 226 875 l 413 535 l 601 875 l 808 875 l 503 361 l 503 0 l 313 0 l 313 361 l 13 875 l 226 875 m 346 1140 l 483 1140 l 646 965 l 504 965 l 414 1061 l 324 965 l 186 965 l 346 1140 z "},"Ỳ":{"ha":815,"x_min":13,"x_max":808,"o":"m 226 875 l 413 535 l 601 875 l 808 875 l 503 361 l 503 0 l 313 0 l 313 361 l 13 875 l 226 875 m 213 1138 l 413 1138 l 524 965 l 371 965 l 213 1138 z "},"Ź":{"ha":744,"x_min":35,"x_max":706,"o":"m 693 875 l 693 767 l 269 144 l 706 144 l 706 0 l 35 0 l 35 121 l 450 731 l 50 731 l 50 875 l 693 875 m 419 965 l 267 965 l 378 1138 l 578 1138 l 419 965 z "},"Ż":{"ha":744,"x_min":35,"x_max":706,"o":"m 693 875 l 693 767 l 269 144 l 706 144 l 706 0 l 35 0 l 35 121 l 450 731 l 50 731 l 50 875 l 693 875 m 290 1046 q 317 1108 290 1082 q 381 1133 343 1133 q 444 1108 418 1133 q 469 1046 469 1082 q 444 981 469 1007 q 381 954 418 954 q 317 981 343 954 q 290 1046 290 1007 z "},"⁄":{"ha":635,"x_min":-24,"x_max":658,"o":"m -24 -15 l 547 890 l 658 890 l 88 -15 l -24 -15 z "},"₨":{"ha":701,"x_min":0,"x_max":618,"o":"m 7 553 l 7 663 l 311 663 q 290 715 304 693 q 260 757 276 738 l 0 757 l 0 888 l 618 888 l 618 757 l 431 757 q 455 720 442 742 q 476 663 468 699 l 611 663 l 611 553 l 492 553 q 472 472 492 510 q 420 406 453 435 q 346 361 388 378 q 258 342 304 344 l 493 90 l 357 -14 l 153 242 q 108 294 129 269 q 71 336 88 318 q 35 375 51 357 l 79 475 q 116 465 99 468 q 158 461 133 461 q 269 488 229 461 q 314 553 308 515 l 7 553 z "},"":{"ha":714,"x_min":17,"x_max":699,"o":"m 285 265 l 428 265 l 399 353 q 377 423 388 385 q 360 490 367 461 l 357 490 q 338 423 350 461 q 314 353 325 385 l 285 265 m 258 663 l 457 663 l 699 0 l 513 0 l 467 140 l 246 140 l 199 0 l 17 0 l 258 663 z "},"":{"ha":678,"x_min":88,"x_max":639,"o":"m 374 663 q 551 615 493 663 q 610 490 610 568 q 578 403 610 438 q 496 351 547 368 q 602 295 565 336 q 639 192 639 254 q 572 55 639 110 q 372 0 504 0 l 88 0 l 88 663 l 374 663 m 272 407 l 336 407 q 397 421 372 407 q 422 468 422 435 q 401 511 422 496 q 333 526 381 526 l 272 526 l 272 407 m 272 136 l 339 136 q 422 152 394 136 q 449 207 449 168 q 427 253 449 233 q 351 274 406 274 l 272 274 l 272 136 z "},"":{"ha":650,"x_min":56,"x_max":610,"o":"m 442 121 q 520 133 486 121 q 575 156 554 144 l 610 28 q 529 -1 582 13 q 414 -15 476 -15 q 272 7 338 -15 q 159 73 207 29 q 83 181 111 117 q 56 329 56 244 q 82 471 56 407 q 156 581 108 535 q 270 651 204 626 q 417 676 336 676 q 508 668 460 676 q 608 632 556 660 l 569 504 q 506 531 540 521 q 438 542 472 542 q 297 489 350 542 q 243 335 243 436 q 260 234 243 275 q 306 168 278 193 q 369 132 333 143 q 442 121 406 121 z "},"":{"ha":761,"x_min":88,"x_max":710,"o":"m 356 663 q 492 645 428 663 q 605 590 557 628 q 681 491 653 551 q 710 346 710 431 q 681 189 710 254 q 603 81 653 124 q 485 19 553 39 q 338 0 417 0 l 88 0 l 88 663 l 356 663 m 272 138 l 319 138 q 387 145 351 138 q 453 175 422 153 q 503 238 483 197 q 522 342 522 278 q 472 478 522 431 q 319 525 422 525 l 272 525 l 272 138 z "},"":{"ha":624,"x_min":88,"x_max":563,"o":"m 88 663 l 560 663 l 560 526 l 269 526 l 269 404 l 529 404 l 529 269 l 269 269 l 269 136 l 563 136 l 563 0 l 88 0 l 88 663 z "},"":{"ha":596,"x_min":88,"x_max":547,"o":"m 547 663 l 547 526 l 272 526 l 272 378 l 522 378 l 522 242 l 272 242 l 272 0 l 88 0 l 88 663 l 547 663 z "},"":{"ha":708,"x_min":56,"x_max":650,"o":"m 424 121 q 457 124 439 121 q 486 131 475 126 l 486 242 l 382 242 l 382 374 l 650 374 l 650 24 q 540 -6 601 4 q 414 -15 479 -15 q 272 6 338 -15 q 159 70 207 28 q 83 176 111 113 q 56 325 56 240 q 82 470 56 406 q 156 581 108 535 q 269 651 203 626 q 415 676 336 676 q 524 667 469 676 q 631 633 578 658 l 594 506 q 519 533 560 524 q 439 542 479 542 q 294 485 344 542 q 243 329 243 429 q 258 231 243 271 q 299 166 274 190 q 356 131 324 142 q 424 121 389 121 z "},"":{"ha":782,"x_min":88,"x_max":693,"o":"m 88 0 l 88 663 l 268 663 l 268 414 l 511 414 l 511 663 l 693 663 l 693 0 l 511 0 l 511 278 l 268 278 l 268 0 l 88 0 z "},"":{"ha":361,"x_min":88,"x_max":272,"o":"m 272 663 l 272 0 l 88 0 l 88 663 l 272 663 z "},"":{"ha":360,"x_min":-15,"x_max":274,"o":"m 274 663 l 274 101 q 265 -37 274 24 q 224 -147 256 -97 q 124 -228 185 -208 q -15 -247 64 -247 l -15 -106 q 32 -97 7 -106 q 71 -61 57 -89 q 86 -5 83 -39 q 89 61 89 29 l 89 663 l 274 663 z "},"":{"ha":718,"x_min":88,"x_max":719,"o":"m 88 0 l 88 663 l 263 663 l 263 401 l 478 663 l 696 663 l 435 375 l 719 0 l 499 0 l 315 269 l 263 210 l 263 0 l 88 0 z "},"":{"ha":568,"x_min":88,"x_max":551,"o":"m 88 663 l 272 663 l 272 131 l 551 131 l 551 0 l 88 0 l 88 663 z "},"":{"ha":957,"x_min":75,"x_max":882,"o":"m 128 663 l 353 663 l 422 425 q 452 315 438 379 q 476 194 467 251 l 482 194 q 506 313 492 249 q 535 425 519 378 l 601 663 l 826 663 l 882 0 l 713 0 l 700 233 q 694 356 696 289 q 692 481 692 422 l 688 481 q 672 409 681 446 q 653 339 663 372 q 635 277 643 306 q 621 231 626 249 l 547 0 l 407 0 l 333 231 q 297 349 315 281 q 267 481 278 418 l 263 481 q 261 352 265 421 q 254 233 257 283 l 240 0 l 75 0 l 128 663 z "},"":{"ha":800,"x_min":88,"x_max":717,"o":"m 88 663 l 272 663 l 421 442 q 494 326 458 386 q 549 218 529 267 l 553 218 q 546 298 549 258 q 543 375 543 338 l 543 663 l 717 663 l 717 0 l 531 0 l 378 224 q 310 333 340 278 q 256 449 279 389 l 253 449 q 258 366 256 407 q 260 285 260 325 l 260 0 l 88 0 l 88 663 z "},"":{"ha":793,"x_min":57,"x_max":738,"o":"m 738 336 q 711 189 738 254 q 638 78 685 124 q 529 9 592 33 q 394 -15 467 -15 q 260 7 322 -15 q 153 72 199 29 q 83 178 108 115 q 57 322 57 242 q 83 473 57 407 q 156 584 110 539 q 265 653 203 629 q 400 676 328 676 q 534 654 472 676 q 641 590 596 632 q 712 483 686 547 q 738 336 738 419 m 547 329 q 535 426 547 386 q 501 492 522 467 q 452 528 479 517 q 396 540 425 540 q 340 530 367 540 q 293 495 314 519 q 260 431 272 471 q 247 329 247 390 q 260 235 247 275 q 293 171 272 196 q 342 133 314 146 q 399 121 369 121 q 454 131 428 121 q 501 167 481 142 q 535 231 522 192 q 547 329 547 271 z "},"":{"ha":657,"x_min":89,"x_max":621,"o":"m 89 663 l 364 663 q 463 648 415 663 q 544 606 510 633 q 600 540 579 579 q 621 451 621 501 q 593 333 621 378 q 521 262 565 288 q 422 227 476 236 q 313 218 367 218 l 274 218 l 274 0 l 89 0 l 89 663 m 272 354 l 317 354 q 358 358 338 354 q 396 372 379 361 q 423 400 413 382 q 433 447 433 418 q 423 488 433 472 q 397 512 413 503 q 360 524 381 521 q 321 526 340 526 l 272 526 l 272 354 z "},"":{"ha":744,"x_min":57,"x_max":804,"o":"m 738 336 q 717 208 738 265 q 663 107 697 150 q 581 36 628 64 q 479 -4 533 8 l 479 -11 q 522 -24 501 -15 q 563 -42 542 -33 q 607 -59 583 -51 q 660 -67 631 -67 q 713 -60 692 -67 q 754 -42 735 -53 l 804 -171 q 751 -193 788 -182 q 671 -204 715 -204 q 584 -192 622 -204 q 511 -166 546 -181 q 443 -139 476 -151 q 369 -126 410 -126 q 281 -142 319 -126 q 211 -182 243 -158 l 144 -57 q 208 -20 171 -36 q 274 1 244 -4 l 274 4 q 187 47 226 18 q 118 116 147 75 q 73 209 89 157 q 57 324 57 261 q 83 474 57 408 q 156 584 110 539 q 264 653 201 629 q 399 676 326 676 q 533 654 471 676 q 640 590 594 632 q 712 483 686 547 q 738 336 738 419 m 547 329 q 535 426 547 386 q 501 492 522 467 q 451 528 479 517 q 394 540 424 540 q 339 531 365 540 q 292 497 313 521 q 260 432 272 472 q 247 331 247 392 q 260 237 247 276 q 293 172 272 197 q 341 133 314 146 q 397 121 368 121 q 453 131 426 121 q 501 166 481 142 q 535 231 522 190 q 547 329 547 271 z "},"":{"ha":671,"x_min":88,"x_max":650,"o":"m 88 663 l 364 663 q 465 649 418 663 q 547 609 513 636 q 601 542 581 582 q 621 450 621 503 q 585 328 621 375 q 496 258 549 281 l 650 0 l 451 0 l 342 215 l 274 215 l 274 0 l 88 0 l 88 663 m 272 350 l 322 350 q 404 372 372 350 q 436 440 436 393 q 319 526 436 526 l 272 526 l 272 350 z "},"":{"ha":611,"x_min":51,"x_max":558,"o":"m 486 504 q 326 543 404 543 q 258 528 282 543 q 233 486 233 513 q 238 462 233 472 q 256 442 243 451 q 289 425 268 433 q 343 407 310 417 l 385 394 q 515 322 471 369 q 558 200 558 275 q 483 43 558 101 q 279 -15 407 -15 q 154 -3 210 -15 q 53 32 99 8 l 93 168 q 178 134 133 147 q 269 121 222 121 q 349 138 324 121 q 375 183 375 156 q 351 228 375 213 q 257 264 326 244 l 214 276 q 91 349 131 304 q 51 472 51 394 q 120 619 51 563 q 311 676 189 676 q 525 633 432 676 l 486 504 z "},"":{"ha":571,"x_min":14,"x_max":558,"o":"m 558 663 l 558 526 l 376 526 l 376 0 l 192 0 l 192 526 l 14 526 l 14 663 l 558 663 z "},"":{"ha":779,"x_min":85,"x_max":694,"o":"m 85 663 l 269 663 l 269 313 q 279 217 269 254 q 306 160 289 181 q 347 131 324 139 q 400 122 371 122 q 484 163 458 122 q 510 299 510 204 l 510 663 l 694 663 l 694 308 q 400 -15 694 -15 q 165 64 244 -15 q 85 307 85 143 l 85 663 z "},"":{"ha":690,"x_min":10,"x_max":682,"o":"m 206 663 l 286 418 q 320 301 304 365 q 346 185 336 238 l 350 185 q 376 303 360 238 q 410 421 392 369 l 489 663 l 682 663 l 446 0 l 250 0 l 10 663 l 206 663 z "},"":{"ha":988,"x_min":13,"x_max":978,"o":"m 197 663 l 276 317 q 290 256 283 289 q 300 190 296 222 l 304 190 q 314 253 308 222 q 326 317 319 285 l 411 663 l 582 663 l 668 318 q 682 256 675 290 q 692 190 689 222 l 696 190 q 706 258 700 224 q 717 321 711 292 l 794 663 l 978 663 l 808 0 l 603 0 l 518 342 q 505 407 511 374 q 496 472 499 440 l 492 472 q 483 407 489 440 q 471 343 478 374 l 389 0 l 185 0 l 13 663 l 197 663 z "},"":{"ha":708,"x_min":11,"x_max":700,"o":"m 465 339 l 700 0 l 488 0 l 418 103 l 350 224 l 288 104 l 221 0 l 11 0 l 243 339 l 25 663 l 231 663 l 299 558 l 360 443 l 418 558 l 481 663 l 682 663 l 465 339 z "},"":{"ha":638,"x_min":8,"x_max":631,"o":"m 206 663 l 321 407 l 440 663 l 631 663 l 406 256 l 406 0 l 225 0 l 225 256 l 8 663 l 206 663 z "},"":{"ha":583,"x_min":29,"x_max":553,"o":"m 546 550 l 236 133 l 553 133 l 553 0 l 29 0 l 29 117 l 339 529 l 47 529 l 47 663 l 546 663 l 546 550 z "},"ă":{"ha":703,"x_min":43,"x_max":629,"o":"m 94 604 q 221 658 154 639 q 363 676 288 676 q 472 663 422 676 q 556 619 521 649 q 610 542 592 589 q 629 431 629 496 l 629 0 l 486 0 l 469 68 l 464 68 q 383 7 432 29 q 268 -15 333 -15 q 172 1 214 -15 q 101 44 131 17 q 58 108 72 71 q 43 189 43 146 q 67 287 43 246 q 135 354 92 328 q 235 393 178 381 q 360 406 293 406 l 443 406 l 443 446 q 415 513 443 492 q 335 535 386 535 q 252 522 294 535 q 158 482 210 510 l 94 604 m 444 290 l 385 289 q 267 260 300 286 q 233 199 233 235 q 262 134 233 151 q 326 117 290 117 q 395 138 363 117 q 444 186 428 158 l 444 290 m 300 954 q 319 891 303 914 q 379 868 335 868 q 458 954 454 868 l 565 954 q 517 820 565 871 q 379 769 469 769 q 294 785 329 769 q 235 826 258 800 q 202 885 213 851 q 192 954 192 918 l 300 954 z "},"ā":{"ha":703,"x_min":43,"x_max":629,"o":"m 94 604 q 221 658 154 639 q 363 676 288 676 q 472 663 422 676 q 556 619 521 649 q 610 542 592 589 q 629 431 629 496 l 629 0 l 486 0 l 469 68 l 464 68 q 383 7 432 29 q 268 -15 333 -15 q 172 1 214 -15 q 101 44 131 17 q 58 108 72 71 q 43 189 43 146 q 67 287 43 246 q 135 354 92 328 q 235 393 178 381 q 360 406 293 406 l 443 406 l 443 446 q 415 513 443 492 q 335 535 386 535 q 252 522 294 535 q 158 482 210 510 l 94 604 m 444 290 l 385 289 q 267 260 300 286 q 233 199 233 235 q 262 134 233 151 q 326 117 290 117 q 395 138 363 117 q 444 186 428 158 l 444 290 m 553 915 l 553 808 l 192 808 l 192 915 l 553 915 z "},"ą":{"ha":708,"x_min":43,"x_max":689,"o":"m 600 0 q 558 -56 572 -28 q 543 -114 543 -83 q 560 -157 543 -142 q 606 -172 576 -172 q 663 -161 638 -172 l 689 -256 q 569 -286 640 -286 q 463 -251 506 -286 q 421 -151 421 -217 q 443 -61 421 -99 q 486 0 465 -24 l 469 68 l 464 68 q 383 7 432 29 q 268 -15 333 -15 q 172 1 214 -15 q 101 44 131 17 q 58 108 72 71 q 43 189 43 146 q 67 287 43 246 q 135 354 92 328 q 235 393 178 381 q 360 406 293 406 l 443 406 l 443 446 q 415 513 443 492 q 335 535 386 535 q 252 522 294 535 q 158 482 210 510 l 94 604 q 221 658 154 639 q 363 676 288 676 q 472 663 422 676 q 556 619 521 649 q 610 542 592 589 q 629 431 629 496 l 629 0 l 600 0 m 444 290 l 385 289 q 267 260 300 286 q 233 199 233 235 q 262 134 233 151 q 326 117 290 117 q 395 138 363 117 q 444 186 428 158 l 444 290 z "},"ǽ":{"ha":1104,"x_min":43,"x_max":1058,"o":"m 588 761 l 457 761 l 554 968 l 739 968 l 588 761 m 1058 292 l 621 292 l 621 286 q 675 161 621 201 q 817 121 729 121 q 915 132 872 121 q 992 158 958 143 l 1026 29 q 936 -2 990 11 q 807 -15 882 -15 q 647 11 719 -15 q 525 94 574 38 l 519 94 q 422 15 479 46 q 274 -15 365 -15 q 175 1 218 -15 q 103 44 132 17 q 58 108 74 71 q 43 189 43 146 q 67 287 43 246 q 135 354 92 328 q 235 393 178 381 q 360 406 293 406 l 456 406 l 456 446 q 423 513 456 492 q 335 535 390 535 q 252 522 294 535 q 158 482 210 510 l 94 604 q 219 658 154 639 q 358 676 283 676 q 476 655 424 676 q 558 590 529 633 l 561 590 q 647 654 594 632 q 765 676 700 676 q 979 594 900 676 q 1058 363 1058 513 l 1058 292 m 233 199 q 262 134 233 151 q 326 117 290 117 q 408 138 368 117 q 467 196 447 160 q 449 290 453 235 l 385 289 q 267 260 300 286 q 233 199 233 235 m 869 407 q 863 459 869 433 q 844 503 857 485 q 810 534 831 522 q 758 546 789 546 q 667 508 703 546 q 625 406 631 471 l 869 407 z "},"ć":{"ha":647,"x_min":54,"x_max":606,"o":"m 438 121 q 516 133 482 121 q 571 156 550 144 l 606 28 q 526 -1 579 13 q 410 -15 474 -15 q 269 7 335 -15 q 156 73 204 29 q 81 181 108 117 q 54 329 54 244 q 81 471 54 407 q 154 581 107 535 q 267 651 201 626 q 413 676 333 676 q 504 668 456 676 q 606 632 553 660 l 565 504 q 502 531 536 521 q 433 542 468 542 q 294 489 347 542 q 242 335 242 436 q 259 234 242 275 q 304 168 276 193 q 367 132 332 143 q 438 121 401 121 m 410 761 l 278 761 l 375 968 l 560 968 l 410 761 z "},"č":{"ha":647,"x_min":54,"x_max":610,"o":"m 438 121 q 516 133 482 121 q 571 156 550 144 l 606 28 q 526 -1 579 13 q 410 -15 474 -15 q 269 7 335 -15 q 156 73 204 29 q 81 181 108 117 q 54 329 54 244 q 81 471 54 407 q 154 581 107 535 q 267 651 201 626 q 413 676 333 676 q 504 668 456 676 q 606 632 553 660 l 565 504 q 502 531 536 521 q 433 542 468 542 q 294 489 347 542 q 242 335 242 436 q 259 234 242 275 q 304 168 276 193 q 367 132 332 143 q 438 121 401 121 m 157 958 l 294 958 l 381 851 l 468 958 l 610 958 l 435 761 l 329 761 l 157 958 z "},"ĉ":{"ha":647,"x_min":54,"x_max":606,"o":"m 438 121 q 516 133 482 121 q 571 156 550 144 l 606 28 q 526 -1 579 13 q 410 -15 474 -15 q 269 7 335 -15 q 156 73 204 29 q 81 181 108 117 q 54 329 54 244 q 81 471 54 407 q 154 581 107 535 q 267 651 201 626 q 413 676 333 676 q 504 668 456 676 q 606 632 553 660 l 565 504 q 502 531 536 521 q 433 542 468 542 q 294 489 347 542 q 242 335 242 436 q 259 234 242 275 q 304 168 276 193 q 367 132 332 143 q 438 121 401 121 m 594 761 l 457 761 l 371 868 l 283 761 l 142 761 l 317 958 l 424 958 l 594 761 z "},"ċ":{"ha":647,"x_min":54,"x_max":606,"o":"m 438 121 q 516 133 482 121 q 571 156 550 144 l 606 28 q 526 -1 579 13 q 410 -15 474 -15 q 269 7 335 -15 q 156 73 204 29 q 81 181 108 117 q 54 329 54 244 q 81 471 54 407 q 154 581 107 535 q 267 651 201 626 q 413 676 333 676 q 504 668 456 676 q 606 632 553 660 l 565 504 q 502 531 536 521 q 433 542 468 542 q 294 489 347 542 q 242 335 242 436 q 259 234 242 275 q 304 168 276 193 q 367 132 332 143 q 438 121 401 121 m 297 863 q 324 926 297 899 q 389 954 351 954 q 454 926 429 954 q 479 863 479 899 q 454 796 479 822 q 389 769 429 769 q 324 796 351 769 q 297 863 297 822 z "},"ď":{"ha":842,"x_min":54,"x_max":985,"o":"m 517 992 l 701 992 l 701 0 l 569 0 l 550 72 l 544 72 q 472 11 518 38 q 350 -15 425 -15 q 234 8 288 -15 q 140 76 181 32 q 77 185 100 121 q 54 331 54 249 q 75 474 54 410 q 135 583 96 538 q 231 652 174 628 q 361 676 288 676 q 451 663 408 676 q 517 626 493 649 l 517 992 m 517 489 q 470 526 499 511 q 406 542 442 542 q 342 531 372 542 q 290 495 313 519 q 253 431 267 471 q 240 335 240 392 q 285 172 240 224 q 396 121 331 121 q 471 142 440 121 q 517 193 501 164 l 517 489 m 863 839 q 804 869 828 846 q 781 932 781 893 q 806 996 781 968 q 875 1024 831 1024 q 913 1016 893 1024 q 948 992 932 1008 q 974 951 964 976 q 985 888 985 925 q 972 813 985 849 q 937 745 958 776 q 888 689 915 714 q 829 649 860 664 l 786 707 q 851 761 822 728 q 886 833 879 794 l 863 839 z "},"≤":{"ha":624,"x_min":56,"x_max":568,"o":"m 56 501 l 56 603 l 568 839 l 568 707 l 203 551 l 568 397 l 568 265 l 56 501 m 567 204 l 567 99 l 56 99 l 56 204 l 567 204 z "},"≥":{"ha":624,"x_min":56,"x_max":568,"o":"m 568 603 l 568 501 l 56 265 l 56 399 l 421 553 l 56 707 l 56 839 l 568 603 m 567 204 l 567 99 l 56 99 l 56 204 l 567 204 z "},"đ":{"ha":821,"x_min":54,"x_max":814,"o":"m 517 992 l 701 992 l 701 888 l 814 888 l 814 781 l 701 781 l 701 0 l 569 0 l 550 72 l 544 72 q 472 11 518 38 q 350 -15 425 -15 q 234 8 288 -15 q 140 76 181 32 q 77 185 100 121 q 54 331 54 249 q 75 474 54 410 q 135 583 96 538 q 231 652 174 628 q 361 676 288 676 q 451 663 408 676 q 517 626 493 649 l 517 781 l 353 781 l 353 888 l 517 888 l 517 992 m 517 489 q 470 526 499 511 q 406 542 442 542 q 342 531 372 542 q 290 495 313 519 q 253 431 267 471 q 240 335 240 392 q 285 172 240 224 q 396 121 331 121 q 471 142 440 121 q 517 193 501 164 l 517 489 z "},"ĕ":{"ha":721,"x_min":47,"x_max":674,"o":"m 674 293 l 233 293 l 233 288 q 289 162 233 203 q 432 121 344 121 q 530 132 488 121 q 607 158 572 143 l 640 29 q 546 -2 603 11 q 411 -15 489 -15 q 270 5 336 -15 q 155 67 204 25 q 76 172 106 108 q 47 325 47 236 q 71 469 47 404 q 138 579 94 533 q 243 651 182 625 q 379 676 304 676 q 594 594 514 676 q 674 365 674 513 l 674 293 m 485 410 q 478 461 485 436 q 458 505 472 486 q 424 535 444 524 q 372 546 403 546 q 281 508 317 546 q 238 407 244 471 l 485 410 m 300 954 q 319 891 303 914 q 379 868 336 868 q 458 954 454 868 l 565 954 q 517 820 565 871 q 379 769 469 769 q 294 785 329 769 q 235 826 258 800 q 202 885 213 851 q 192 954 192 918 l 300 954 z "},"ě":{"ha":721,"x_min":47,"x_max":674,"o":"m 674 293 l 233 293 l 233 288 q 289 162 233 203 q 432 121 344 121 q 530 132 488 121 q 607 158 572 143 l 640 29 q 546 -2 603 11 q 411 -15 489 -15 q 270 5 336 -15 q 155 67 204 25 q 76 172 106 108 q 47 325 47 236 q 71 469 47 404 q 138 579 94 533 q 243 651 182 625 q 379 676 304 676 q 594 594 514 676 q 674 365 674 513 l 674 293 m 485 410 q 478 461 485 436 q 458 505 472 486 q 424 535 444 524 q 372 546 403 546 q 281 508 317 546 q 238 407 244 471 l 485 410 m 431 761 l 325 761 l 153 958 l 290 958 l 378 851 l 464 958 l 606 958 l 431 761 z "},"ė":{"ha":721,"x_min":47,"x_max":674,"o":"m 674 293 l 233 293 l 233 288 q 289 162 233 203 q 432 121 344 121 q 530 132 488 121 q 607 158 572 143 l 640 29 q 546 -2 603 11 q 411 -15 489 -15 q 270 5 336 -15 q 155 67 204 25 q 76 172 106 108 q 47 325 47 236 q 71 469 47 404 q 138 579 94 533 q 243 651 182 625 q 379 676 304 676 q 594 594 514 676 q 674 365 674 513 l 674 293 m 485 410 q 478 461 485 436 q 458 505 472 486 q 424 535 444 524 q 372 546 403 546 q 281 508 317 546 q 238 407 244 471 l 485 410 m 282 863 q 310 926 282 899 q 375 954 338 954 q 440 926 414 954 q 465 863 465 899 q 440 796 465 822 q 375 769 414 769 q 310 796 338 769 q 282 863 282 822 z "},"ē":{"ha":721,"x_min":47,"x_max":674,"o":"m 674 293 l 233 293 l 233 288 q 289 162 233 203 q 432 121 344 121 q 530 132 488 121 q 607 158 572 143 l 640 29 q 546 -2 603 11 q 411 -15 489 -15 q 270 5 336 -15 q 155 67 204 25 q 76 172 106 108 q 47 325 47 236 q 71 469 47 404 q 138 579 94 533 q 243 651 182 625 q 379 676 304 676 q 594 594 514 676 q 674 365 674 513 l 674 293 m 485 410 q 478 461 485 436 q 458 505 472 486 q 424 535 444 524 q 372 546 403 546 q 281 508 317 546 q 238 407 244 471 l 485 410 m 556 915 l 556 808 l 194 808 l 194 915 l 556 915 z "},"ę":{"ha":721,"x_min":47,"x_max":674,"o":"m 674 293 l 233 293 l 233 288 q 289 162 233 203 q 432 121 344 121 q 530 132 488 121 q 607 158 572 143 l 640 29 l 599 13 q 529 -43 553 -15 q 506 -107 506 -71 q 522 -150 506 -135 q 567 -165 539 -165 q 599 -162 586 -165 q 625 -154 613 -160 l 650 -249 q 532 -279 604 -279 q 426 -245 468 -279 q 383 -146 383 -211 q 401 -74 383 -106 q 450 -18 419 -42 l 450 -14 q 431 -15 440 -15 q 411 -15 421 -15 q 270 5 336 -15 q 155 67 204 25 q 76 172 106 108 q 47 325 47 236 q 71 469 47 404 q 138 579 94 533 q 243 651 182 625 q 379 676 304 676 q 594 594 514 676 q 674 365 674 513 l 674 293 m 485 410 q 478 461 485 436 q 458 505 472 486 q 424 535 444 524 q 372 546 403 546 q 281 508 317 546 q 238 407 244 471 l 485 410 z "},"ﬀ":{"ha":933,"x_min":22,"x_max":993,"o":"m 813 993 q 910 981 863 993 q 993 947 957 968 l 954 826 q 909 844 931 838 q 861 851 888 851 q 789 823 813 851 q 765 726 765 794 l 765 663 l 932 663 l 932 529 l 765 529 l 765 0 l 582 0 l 582 529 l 307 529 l 307 0 l 124 0 l 124 529 l 22 529 l 22 663 l 124 663 l 124 765 q 186 935 124 876 q 354 993 249 993 q 451 981 404 993 q 535 947 499 968 l 496 826 q 451 844 472 838 q 403 851 429 851 q 331 823 354 851 q 307 726 307 794 l 307 663 l 582 663 l 582 765 q 644 935 582 876 q 813 993 707 993 z "},"ﬃ":{"ha":1253,"x_min":22,"x_max":1163,"o":"m 364 993 q 461 981 414 993 q 544 947 508 968 l 507 826 q 462 844 483 838 q 414 851 440 851 q 333 821 358 851 q 307 717 307 790 l 307 663 l 571 663 l 571 724 q 590 839 571 789 q 646 924 610 889 q 733 976 682 958 q 846 993 783 993 q 951 980 899 993 q 1044 946 1004 967 l 1007 825 q 954 844 982 836 q 896 851 926 851 q 790 818 825 851 q 754 703 754 785 l 754 663 l 1163 663 l 1163 0 l 978 0 l 978 529 l 754 529 l 754 0 l 571 0 l 571 529 l 307 529 l 307 0 l 124 0 l 124 529 l 22 529 l 22 663 l 124 663 l 124 756 q 189 933 124 872 q 364 993 254 993 z "},"ﬄ":{"ha":1250,"x_min":22,"x_max":1163,"o":"m 981 0 l 981 529 l 746 529 l 746 0 l 563 0 l 563 529 l 307 529 l 307 0 l 124 0 l 124 529 l 22 529 l 22 663 l 124 663 l 124 756 q 189 933 124 872 q 364 993 254 993 q 461 981 414 993 q 544 947 508 968 l 507 826 q 462 844 483 838 q 414 851 440 851 q 333 821 358 851 q 307 717 307 790 l 307 663 l 563 663 l 563 714 q 585 833 563 781 q 647 920 607 885 q 744 974 688 956 q 869 993 800 993 q 971 984 925 993 q 1053 963 1017 975 q 1116 935 1089 950 q 1163 910 1143 921 l 1163 0 l 981 0 m 899 851 q 783 815 821 851 q 746 692 746 779 l 746 663 l 981 663 l 981 836 q 940 847 961 843 q 899 851 919 851 z "},"ﬁ":{"ha":804,"x_min":22,"x_max":715,"o":"m 531 0 l 531 529 l 307 529 l 307 0 l 124 0 l 124 529 l 22 529 l 22 663 l 124 663 l 124 724 q 143 839 124 789 q 199 924 163 889 q 285 976 235 958 q 399 993 336 993 q 504 980 451 993 q 597 946 557 967 l 560 825 q 507 844 535 836 q 449 851 479 851 q 342 818 378 851 q 307 703 307 785 l 307 663 l 715 663 l 715 0 l 531 0 z "},"ﬂ":{"ha":814,"x_min":22,"x_max":724,"o":"m 542 0 l 542 529 l 307 529 l 307 0 l 124 0 l 124 529 l 22 529 l 22 663 l 124 663 l 124 714 q 146 833 124 781 q 208 920 168 885 q 305 974 249 956 q 431 993 361 993 q 532 984 486 993 q 614 963 578 975 q 677 935 650 950 q 724 910 704 921 l 724 0 l 542 0 m 307 663 l 542 663 l 542 836 q 501 847 522 843 q 458 851 479 851 q 344 815 382 851 q 307 692 307 779 l 307 663 z "},"ğ":{"ha":794,"x_min":40,"x_max":753,"o":"m 81 438 q 102 536 81 492 q 162 612 124 581 q 252 660 200 643 q 367 676 304 676 q 418 673 390 676 q 469 663 446 669 l 753 663 l 753 546 l 693 546 l 607 558 q 637 503 625 536 q 649 436 649 469 q 573 266 649 331 q 365 201 497 201 q 304 207 331 201 q 269 161 269 193 q 285 128 269 139 q 339 117 300 117 l 488 117 q 663 69 597 117 q 729 -85 729 21 q 703 -184 729 -139 q 631 -262 678 -229 q 517 -312 583 -294 q 368 -331 450 -331 q 128 -277 217 -331 q 40 -124 40 -224 q 71 -44 40 -78 q 156 10 101 -10 q 117 49 136 24 q 97 114 97 75 q 125 193 97 160 q 196 246 153 226 q 155 274 175 257 q 118 315 135 292 q 91 369 101 339 q 81 438 81 400 m 258 -22 q 224 -51 238 -33 q 210 -97 210 -69 q 247 -165 210 -137 q 374 -192 283 -192 q 506 -161 464 -192 q 547 -92 547 -131 q 521 -37 547 -53 q 439 -22 494 -22 l 258 -22 m 468 439 q 439 521 468 493 q 365 549 410 549 q 291 521 319 549 q 263 440 263 493 q 292 357 263 385 q 365 329 321 329 q 440 357 411 329 q 468 439 468 385 m 300 954 q 319 891 303 914 q 379 868 335 868 q 458 954 454 868 l 565 954 q 517 820 565 871 q 379 769 469 769 q 294 785 329 769 q 235 826 258 800 q 202 885 213 851 q 192 954 192 918 l 300 954 z "},"ĝ":{"ha":794,"x_min":40,"x_max":753,"o":"m 81 438 q 102 536 81 492 q 162 612 124 581 q 252 660 200 643 q 367 676 304 676 q 418 673 390 676 q 469 663 446 669 l 753 663 l 753 546 l 693 546 l 607 558 q 637 503 625 536 q 649 436 649 469 q 573 266 649 331 q 365 201 497 201 q 304 207 331 201 q 269 161 269 193 q 285 128 269 139 q 339 117 300 117 l 488 117 q 663 69 597 117 q 729 -85 729 21 q 703 -184 729 -139 q 631 -262 678 -229 q 517 -312 583 -294 q 368 -331 450 -331 q 128 -277 217 -331 q 40 -124 40 -224 q 71 -44 40 -78 q 156 10 101 -10 q 117 49 136 24 q 97 114 97 75 q 125 193 97 160 q 196 246 153 226 q 155 274 175 257 q 118 315 135 292 q 91 369 101 339 q 81 438 81 400 m 258 -22 q 224 -51 238 -33 q 210 -97 210 -69 q 247 -165 210 -137 q 374 -192 283 -192 q 506 -161 464 -192 q 547 -92 547 -131 q 521 -37 547 -53 q 439 -22 494 -22 l 258 -22 m 468 439 q 439 521 468 493 q 365 549 410 549 q 291 521 319 549 q 263 440 263 493 q 292 357 263 385 q 365 329 321 329 q 440 357 411 329 q 468 439 468 385 m 606 761 l 469 761 l 382 868 l 296 761 l 153 761 l 328 958 l 435 958 l 606 761 z "},"ģ":{"ha":794,"x_min":40,"x_max":753,"o":"m 81 438 q 102 536 81 492 q 162 612 124 581 q 252 660 200 643 q 367 676 304 676 q 418 673 390 676 q 469 663 446 669 l 753 663 l 753 546 l 693 546 l 607 558 q 637 503 625 536 q 649 436 649 469 q 573 266 649 331 q 365 201 497 201 q 304 207 331 201 q 269 161 269 193 q 285 128 269 139 q 339 117 300 117 l 488 117 q 663 69 597 117 q 729 -85 729 21 q 703 -184 729 -139 q 631 -262 678 -229 q 517 -312 583 -294 q 368 -331 450 -331 q 128 -277 217 -331 q 40 -124 40 -224 q 71 -44 40 -78 q 156 10 101 -10 q 117 49 136 24 q 97 114 97 75 q 125 193 97 160 q 196 246 153 226 q 155 274 175 257 q 118 315 135 292 q 91 369 101 339 q 81 438 81 400 m 258 -22 q 224 -51 238 -33 q 210 -97 210 -69 q 247 -165 210 -137 q 374 -192 283 -192 q 506 -161 464 -192 q 547 -92 547 -131 q 521 -37 547 -53 q 439 -22 494 -22 l 258 -22 m 468 439 q 439 521 468 493 q 365 549 410 549 q 291 521 319 549 q 263 440 263 493 q 292 357 263 385 q 365 329 321 329 q 440 357 411 329 q 468 439 468 385 m 379 949 q 438 917 414 942 q 461 856 461 893 q 436 791 461 819 q 367 763 411 763 q 329 770 349 763 q 294 794 310 778 q 267 836 278 810 q 257 900 257 863 q 270 974 257 938 q 305 1041 283 1010 q 355 1097 326 1072 q 414 1138 383 1122 l 457 1079 q 392 1026 421 1060 q 356 953 363 992 l 379 949 z "},"ġ":{"ha":794,"x_min":40,"x_max":753,"o":"m 81 438 q 102 536 81 492 q 162 612 124 581 q 252 660 200 643 q 367 676 304 676 q 418 673 390 676 q 469 663 446 669 l 753 663 l 753 546 l 693 546 l 607 558 q 637 503 625 536 q 649 436 649 469 q 573 266 649 331 q 365 201 497 201 q 304 207 331 201 q 269 161 269 193 q 285 128 269 139 q 339 117 300 117 l 488 117 q 663 69 597 117 q 729 -85 729 21 q 703 -184 729 -139 q 631 -262 678 -229 q 517 -312 583 -294 q 368 -331 450 -331 q 128 -277 217 -331 q 40 -124 40 -224 q 71 -44 40 -78 q 156 10 101 -10 q 117 49 136 24 q 97 114 97 75 q 125 193 97 160 q 196 246 153 226 q 155 274 175 257 q 118 315 135 292 q 91 369 101 339 q 81 438 81 400 m 258 -22 q 224 -51 238 -33 q 210 -97 210 -69 q 247 -165 210 -137 q 374 -192 283 -192 q 506 -161 464 -192 q 547 -92 547 -131 q 521 -37 547 -53 q 439 -22 494 -22 l 258 -22 m 468 439 q 439 521 468 493 q 365 549 410 549 q 291 521 319 549 q 263 440 263 493 q 292 357 263 385 q 365 329 321 329 q 440 357 411 329 q 468 439 468 385 m 286 863 q 313 926 286 899 q 378 954 340 954 q 444 926 418 954 q 469 863 469 899 q 444 796 469 822 q 378 769 418 769 q 313 796 340 769 q 286 863 286 822 z "},"ħ":{"ha":793,"x_min":-25,"x_max":707,"o":"m 406 888 l 406 781 l 271 781 l 271 603 q 363 656 311 635 q 476 676 415 676 q 579 659 536 676 q 651 610 622 642 q 693 535 679 579 q 707 440 707 492 l 707 0 l 522 0 l 522 408 q 495 506 522 476 q 415 535 468 535 q 340 517 378 535 q 271 471 303 500 l 271 0 l 86 0 l 86 781 l -25 781 l -25 888 l 86 888 l 86 992 l 271 992 l 271 888 l 406 888 z "},"ĥ":{"ha":793,"x_min":-50,"x_max":707,"o":"m 271 0 l 86 0 l 86 981 l 271 981 l 271 603 q 363 656 311 635 q 476 676 415 676 q 578 659 535 676 q 651 610 622 642 q 693 535 679 579 q 707 440 707 492 l 707 0 l 522 0 l 522 408 q 494 506 522 476 q 414 535 467 535 q 340 517 378 535 q 271 471 301 500 l 271 0 m 403 1053 l 265 1053 l 179 1158 l 92 1053 l -50 1053 l 125 1249 l 231 1249 l 403 1053 z "},"ĭ":{"ha":389,"x_min":4,"x_max":378,"o":"m 100 0 l 100 663 l 285 663 l 285 0 l 100 0 m 113 954 q 132 891 115 914 q 192 868 149 868 q 271 954 267 868 l 378 954 q 330 820 378 871 q 192 769 282 769 q 106 785 142 769 q 48 826 71 800 q 15 885 25 851 q 4 954 4 918 l 113 954 z "},"ī":{"ha":383,"x_min":11,"x_max":372,"o":"m 100 0 l 100 663 l 285 663 l 285 0 l 100 0 m 372 915 l 372 808 l 11 808 l 11 915 l 372 915 z "},"į":{"ha":383,"x_min":31,"x_max":297,"o":"m 217 0 q 169 -55 185 -28 q 153 -114 153 -82 q 169 -157 153 -142 q 214 -172 186 -172 q 247 -169 233 -172 q 272 -161 260 -167 l 297 -256 q 179 -286 251 -286 q 73 -251 115 -286 q 31 -151 31 -217 q 53 -61 31 -99 q 100 0 76 -24 l 100 663 l 285 663 l 285 0 l 217 0 m 92 899 q 119 966 92 939 q 192 993 146 993 q 265 966 238 993 q 292 899 292 939 q 265 831 292 858 q 192 804 239 804 q 118 831 144 804 q 92 899 92 858 z "},"ĩ":{"ha":383,"x_min":-29,"x_max":414,"o":"m 100 0 l 100 663 l 285 663 l 285 0 l 100 0 m -29 761 q 4 895 -29 847 q 100 943 38 943 q 152 933 128 943 q 199 911 176 924 q 240 889 221 899 q 275 879 258 879 q 312 901 303 879 q 322 951 321 924 l 413 951 q 381 817 414 864 q 286 771 349 771 q 228 781 254 771 q 179 802 201 790 q 139 824 157 814 q 106 833 121 833 q 72 813 82 833 q 61 761 63 793 l -29 761 z "},"ĳ":{"ha":736,"x_min":89,"x_max":647,"o":"m 96 663 l 281 663 l 281 0 l 96 0 l 96 663 m 454 663 l 639 663 l 639 93 q 627 -53 639 15 q 585 -177 615 -121 q 505 -278 556 -233 q 378 -354 454 -322 l 299 -228 q 369 -185 339 -207 q 417 -128 399 -162 q 445 -44 436 -94 q 454 83 454 7 l 454 663 m 89 899 q 115 966 89 939 q 189 993 142 993 q 262 966 235 993 q 289 899 289 939 q 263 831 289 858 q 189 804 236 804 q 115 831 142 804 q 89 899 89 858 m 447 899 q 474 966 447 939 q 547 993 501 993 q 620 966 593 993 q 647 899 647 939 q 621 831 647 858 q 547 804 594 804 q 474 831 500 804 q 447 899 447 858 z "},"ĵ":{"ha":369,"x_min":-71,"x_max":401,"o":"m 83 663 l 268 663 l 268 93 q 256 -53 268 15 q 215 -177 244 -121 q 135 -278 185 -233 q 8 -354 85 -322 l -71 -228 q -1 -185 -31 -207 q 47 -128 28 -162 q 74 -44 65 -94 q 83 83 83 7 l 83 663 m 401 761 l 264 761 l 178 868 l 90 761 l -51 761 l 124 958 l 229 958 l 401 761 z "},"ķ":{"ha":733,"x_min":86,"x_max":728,"o":"m 269 222 l 269 0 l 86 0 l 86 992 l 269 992 l 269 403 l 492 663 l 715 663 l 460 383 l 728 0 l 510 0 l 324 276 l 269 222 m 367 -275 q 308 -244 332 -268 q 285 -182 285 -219 q 310 -117 285 -146 q 379 -89 335 -89 q 417 -97 397 -89 q 452 -120 436 -104 q 478 -162 468 -136 q 489 -226 489 -189 q 476 -301 489 -265 q 441 -369 463 -337 q 392 -424 419 -400 q 333 -464 364 -449 l 290 -407 q 355 -352 326 -386 q 390 -279 383 -318 l 367 -275 z "},"ĺ":{"ha":394,"x_min":88,"x_max":379,"o":"m 88 0 l 88 981 l 269 981 l 269 0 l 88 0 m 229 1068 l 97 1068 l 194 1275 l 379 1275 l 229 1068 z "},"ľ":{"ha":411,"x_min":88,"x_max":553,"o":"m 88 0 l 88 992 l 269 992 l 269 0 l 88 0 m 431 839 q 372 869 396 846 q 349 932 349 893 q 374 996 349 968 q 443 1024 399 1024 q 481 1016 461 1024 q 516 992 500 1008 q 542 951 532 976 q 553 888 553 925 q 540 813 553 849 q 505 745 526 776 q 456 689 483 714 q 397 649 428 664 l 354 707 q 419 761 390 728 q 454 833 447 794 l 431 839 z "},"ļ":{"ha":357,"x_min":79,"x_max":283,"o":"m 88 0 l 88 992 l 269 992 l 269 0 l 88 0 m 161 -275 q 103 -244 128 -268 q 79 -182 79 -219 q 104 -117 79 -146 q 174 -89 129 -89 q 211 -97 192 -89 q 247 -120 231 -104 q 273 -162 263 -136 q 283 -226 283 -189 q 270 -301 283 -265 q 235 -369 257 -337 q 186 -424 214 -400 q 128 -464 158 -449 l 85 -407 q 150 -352 121 -386 q 186 -279 179 -318 l 161 -275 z "},"ŀ":{"ha":460,"x_min":88,"x_max":513,"o":"m 88 0 l 88 992 l 269 992 l 269 0 l 88 0 m 335 481 q 360 547 335 519 q 426 575 386 575 q 488 548 463 575 q 513 481 513 521 q 488 415 513 443 q 426 386 463 386 q 360 415 386 386 q 335 481 335 443 z "},"ł":{"ha":461,"x_min":-60,"x_max":521,"o":"m 131 0 l 131 307 l 13 188 l -60 260 l 131 450 l 131 992 l 313 992 l 313 571 l 449 706 l 521 633 l 313 428 l 313 0 l 131 0 z "},"ń":{"ha":782,"x_min":83,"x_max":699,"o":"m 268 0 l 83 0 l 83 663 l 226 663 l 249 578 q 349 651 294 625 q 471 676 404 676 q 640 617 581 676 q 699 443 699 557 l 699 0 l 514 0 l 514 424 q 489 505 514 475 q 414 535 464 535 q 338 515 378 535 q 268 460 299 494 l 268 0 m 450 761 l 319 761 l 417 968 l 601 968 l 450 761 z "},"ŉ":{"ha":790,"x_min":-47,"x_max":706,"o":"m 275 0 l 90 0 l 90 663 l 235 663 l 257 578 q 357 651 303 625 q 478 676 411 676 q 647 617 588 676 q 706 443 706 557 l 706 0 l 521 0 l 521 424 q 496 505 521 475 q 422 535 471 535 q 346 515 385 535 q 275 460 307 494 l 275 0 m 35 864 q -24 895 0 871 q -47 957 -47 919 q -22 1022 -47 993 q 47 1050 3 1050 q 85 1042 65 1050 q 120 1019 104 1035 q 147 976 136 1003 q 157 913 157 950 q 144 838 157 874 q 108 771 131 801 q 58 715 86 740 q 0 675 31 690 l -43 733 q 22 787 -7 753 q 58 860 51 821 l 35 864 z "},"ň":{"ha":782,"x_min":83,"x_max":699,"o":"m 268 0 l 83 0 l 83 663 l 226 663 l 249 578 q 349 651 294 625 q 471 676 404 676 q 640 617 581 676 q 699 443 699 557 l 699 0 l 514 0 l 514 424 q 489 505 514 475 q 414 535 464 535 q 338 515 378 535 q 268 460 299 494 l 268 0 m 178 958 l 315 958 l 403 851 l 489 958 l 631 958 l 456 761 l 350 761 l 178 958 z "},"ņ":{"ha":782,"x_min":83,"x_max":699,"o":"m 268 0 l 83 0 l 83 663 l 226 663 l 249 578 q 349 651 294 625 q 471 676 404 676 q 640 617 581 676 q 699 443 699 557 l 699 0 l 514 0 l 514 424 q 489 505 514 475 q 414 535 464 535 q 338 515 378 535 q 268 460 299 494 l 268 0 m 386 -275 q 328 -244 351 -268 q 304 -182 304 -219 q 329 -117 304 -146 q 399 -89 354 -89 q 436 -97 417 -89 q 472 -120 456 -104 q 498 -162 488 -136 q 508 -226 508 -189 q 495 -301 508 -265 q 460 -369 482 -337 q 411 -424 439 -400 q 353 -464 383 -449 l 310 -407 q 374 -352 346 -386 q 410 -279 403 -318 l 386 -275 z "},"ŏ":{"ha":789,"x_min":54,"x_max":735,"o":"m 735 336 q 708 189 735 254 q 635 78 682 124 q 526 9 589 33 q 392 -15 464 -15 q 258 7 319 -15 q 151 72 196 29 q 80 178 106 115 q 54 322 54 242 q 81 473 54 407 q 153 584 107 539 q 263 653 200 629 q 397 676 325 676 q 531 654 469 676 q 638 590 593 632 q 709 483 683 547 q 735 336 735 419 m 544 329 q 532 426 544 386 q 498 492 519 467 q 449 528 476 517 q 393 540 422 540 q 338 530 364 540 q 290 495 311 519 q 257 431 269 471 q 244 329 244 390 q 257 235 244 275 q 290 171 269 196 q 339 133 311 146 q 396 121 367 121 q 451 131 425 121 q 499 167 478 142 q 532 231 519 192 q 544 329 544 271 m 318 954 q 337 891 321 914 q 397 868 353 868 q 476 954 472 868 l 583 954 q 535 820 583 871 q 397 769 488 769 q 312 785 347 769 q 253 826 276 800 q 220 885 231 851 q 210 954 210 918 l 318 954 z "},"ő":{"ha":789,"x_min":54,"x_max":735,"o":"m 735 336 q 708 189 735 254 q 635 78 682 124 q 526 9 589 33 q 392 -15 464 -15 q 258 7 319 -15 q 151 72 196 29 q 80 178 106 115 q 54 322 54 242 q 81 473 54 407 q 153 584 107 539 q 263 653 200 629 q 397 676 325 676 q 531 654 469 676 q 638 590 593 632 q 709 483 683 547 q 735 336 735 419 m 544 329 q 532 426 544 386 q 498 492 519 467 q 449 528 476 517 q 393 540 422 540 q 338 530 364 540 q 290 495 311 519 q 257 431 269 471 q 244 329 244 390 q 257 235 244 275 q 290 171 269 196 q 339 133 311 146 q 396 121 367 121 q 451 131 425 121 q 499 167 478 142 q 532 231 519 192 q 544 329 544 271 m 293 761 l 163 761 l 263 968 l 446 968 l 293 761 m 560 761 l 431 761 l 529 968 l 713 968 l 560 761 z "},"ō":{"ha":789,"x_min":54,"x_max":735,"o":"m 735 336 q 708 189 735 254 q 635 78 682 124 q 526 9 589 33 q 392 -15 464 -15 q 258 7 319 -15 q 151 72 196 29 q 80 178 106 115 q 54 322 54 242 q 81 473 54 407 q 153 584 107 539 q 263 653 200 629 q 397 676 325 676 q 531 654 469 676 q 638 590 593 632 q 709 483 683 547 q 735 336 735 419 m 544 329 q 532 426 544 386 q 498 492 519 467 q 449 528 476 517 q 393 540 422 540 q 338 530 364 540 q 290 495 311 519 q 257 431 269 471 q 244 329 244 390 q 257 235 244 275 q 290 171 269 196 q 339 133 311 146 q 396 121 367 121 q 451 131 425 121 q 499 167 478 142 q 532 231 519 192 q 544 329 544 271 m 576 915 l 576 808 l 215 808 l 215 915 l 576 915 z "},"ǿ":{"ha":790,"x_min":53,"x_max":736,"o":"m 528 786 l 607 760 l 563 642 q 686 528 640 604 q 735 340 732 453 q 710 192 736 258 q 639 81 685 126 q 531 10 593 35 q 396 -15 468 -14 q 307 -6 344 -15 l 265 -121 l 188 -94 l 231 18 q 103 131 151 57 q 54 318 56 206 q 78 469 53 403 q 150 582 104 536 q 258 652 196 628 q 393 676 321 676 q 485 668 440 676 l 528 786 m 390 540 q 335 530 361 540 q 288 495 308 519 q 256 430 268 471 q 244 328 244 389 q 258 231 244 269 q 292 168 271 192 l 426 538 q 409 540 418 539 q 390 540 400 540 m 544 332 q 531 429 544 390 q 497 492 518 468 l 363 125 q 399 121 379 121 q 453 132 426 121 q 499 168 479 143 q 532 233 519 193 q 544 332 544 274 m 378 761 l 246 761 l 343 968 l 528 968 l 378 761 z "},"ŕ":{"ha":542,"x_min":83,"x_max":550,"o":"m 83 0 l 83 663 l 226 663 l 247 543 q 322 636 271 596 q 451 676 374 676 q 508 669 483 676 q 550 653 533 663 l 519 507 q 481 522 504 515 q 425 528 457 528 q 312 483 357 528 q 267 335 267 438 l 267 0 l 83 0 m 232 761 l 101 761 l 199 968 l 383 968 l 232 761 z "},"ř":{"ha":542,"x_min":58,"x_max":550,"o":"m 83 663 l 226 663 l 247 543 q 322 636 271 596 q 451 676 374 676 q 508 669 483 676 q 550 653 533 663 l 519 507 q 481 522 504 515 q 425 528 457 528 q 312 483 357 528 q 267 335 267 438 l 267 0 l 83 0 l 83 663 m 283 851 l 371 958 l 511 958 l 338 761 l 231 761 l 58 958 l 197 958 l 283 851 z "},"ŗ":{"ha":542,"x_min":81,"x_max":550,"o":"m 83 0 l 83 663 l 226 663 l 247 543 q 322 636 271 596 q 451 676 374 676 q 508 669 483 676 q 550 653 533 663 l 519 507 q 481 522 504 515 q 425 528 457 528 q 312 483 357 528 q 267 335 267 438 l 267 0 l 83 0 m 163 -275 q 104 -244 128 -268 q 81 -182 81 -219 q 106 -117 81 -146 q 175 -89 131 -89 q 213 -97 193 -89 q 248 -120 232 -104 q 274 -162 264 -136 q 285 -226 285 -189 q 272 -301 285 -265 q 237 -369 258 -337 q 188 -424 215 -400 q 129 -464 160 -449 l 86 -407 q 151 -352 122 -386 q 186 -279 179 -318 l 163 -275 z "},"ś":{"ha":604,"x_min":50,"x_max":557,"o":"m 483 504 q 325 543 401 543 q 256 528 281 543 q 232 486 232 513 q 253 443 232 460 q 340 407 275 426 l 382 394 q 513 322 468 369 q 557 200 557 275 q 481 43 557 101 q 276 -15 406 -15 q 50 32 144 -15 l 92 168 q 176 134 132 147 q 267 121 221 121 q 348 138 322 121 q 374 183 374 156 q 349 228 374 213 q 254 264 324 244 l 211 276 q 89 350 128 304 q 50 472 50 396 q 118 619 50 563 q 308 676 186 676 q 522 633 429 676 l 483 504 m 310 761 l 178 761 l 275 968 l 460 968 l 310 761 z "},"ş":{"ha":604,"x_min":50,"x_max":557,"o":"m 483 504 q 325 543 401 543 q 256 528 281 543 q 232 486 232 513 q 253 443 232 460 q 340 407 275 426 l 382 394 q 513 322 468 369 q 557 200 557 275 q 497 58 557 114 q 335 -10 438 3 l 307 -65 q 387 -96 357 -69 q 417 -162 417 -122 q 371 -249 417 -221 q 257 -278 325 -278 q 190 -272 222 -278 q 138 -258 157 -265 l 161 -182 q 199 -192 179 -189 q 238 -194 218 -194 q 297 -156 297 -194 q 274 -120 297 -132 q 192 -108 250 -108 l 236 -14 q 50 32 129 -8 l 92 168 q 176 134 132 147 q 267 121 221 121 q 348 138 322 121 q 374 183 374 156 q 349 228 374 213 q 254 264 324 244 l 211 276 q 89 350 128 304 q 50 472 50 396 q 118 619 50 563 q 308 676 186 676 q 522 633 429 676 l 483 504 z "},"ŝ":{"ha":604,"x_min":50,"x_max":557,"o":"m 483 504 q 325 543 401 543 q 256 528 281 543 q 232 486 232 513 q 253 443 232 460 q 340 407 275 426 l 382 394 q 513 322 468 369 q 557 200 557 275 q 481 43 557 101 q 276 -15 406 -15 q 50 32 144 -15 l 92 168 q 176 134 132 147 q 267 121 221 121 q 348 138 322 121 q 374 183 374 156 q 349 228 374 213 q 254 264 324 244 l 211 276 q 89 350 128 304 q 50 472 50 396 q 118 619 50 563 q 308 676 186 676 q 522 633 429 676 l 483 504 m 522 761 l 386 761 l 299 868 l 213 761 l 69 761 l 244 958 l 351 958 l 522 761 z "},"ș":{"ha":604,"x_min":50,"x_max":557,"o":"m 483 504 q 325 543 401 543 q 256 528 281 543 q 232 486 232 513 q 253 443 232 460 q 340 407 275 426 l 382 394 q 513 322 468 369 q 557 200 557 275 q 481 43 557 101 q 276 -15 406 -15 q 50 32 144 -15 l 92 168 q 176 134 132 147 q 267 121 221 121 q 348 138 322 121 q 374 183 374 156 q 349 228 374 213 q 254 264 324 244 l 211 276 q 89 350 128 304 q 50 472 50 396 q 118 619 50 563 q 308 676 186 676 q 522 633 429 676 l 483 504 m 288 -275 q 229 -244 253 -268 q 206 -182 206 -219 q 231 -117 206 -146 q 300 -89 256 -89 q 338 -97 318 -89 q 373 -120 357 -104 q 399 -162 389 -136 q 410 -226 410 -189 q 397 -301 410 -265 q 362 -369 383 -337 q 313 -424 340 -400 q 254 -464 285 -449 l 211 -407 q 276 -352 247 -386 q 311 -279 304 -318 l 288 -275 z "},"ﬆ":{"ha":1106,"x_min":50,"x_max":1089,"o":"m 878 663 l 1054 663 l 1054 529 l 878 529 l 878 224 q 899 159 878 176 q 957 142 921 142 q 1013 147 985 142 q 1061 163 1042 153 l 1089 33 q 1017 11 1064 22 q 918 0 971 0 q 746 48 797 0 q 694 192 694 96 l 694 529 l 606 529 l 606 663 l 694 663 l 694 731 q 568 907 694 907 q 483 876 519 907 q 447 786 447 846 q 469 693 447 733 q 522 633 490 653 l 483 504 q 325 543 401 543 q 256 528 281 543 q 232 486 232 513 q 253 443 232 460 q 340 407 275 426 l 382 394 q 513 322 468 369 q 557 200 557 275 q 481 43 557 101 q 276 -15 406 -15 q 50 32 144 -15 l 92 168 q 176 134 132 147 q 267 121 221 121 q 348 138 322 121 q 374 183 374 156 q 349 228 374 213 q 254 264 324 244 l 211 276 q 89 350 128 304 q 50 472 50 396 q 117 619 50 563 q 306 676 183 676 q 324 676 314 676 q 343 675 335 676 l 344 681 q 308 730 328 696 q 289 821 289 764 q 308 906 289 865 q 365 976 328 946 q 453 1025 401 1007 q 569 1043 504 1043 q 708 1020 650 1043 q 804 956 767 997 q 860 860 842 915 q 878 739 878 804 l 878 663 z "},"ŧ":{"ha":531,"x_min":17,"x_max":514,"o":"m 479 529 l 303 529 l 303 422 l 450 422 l 450 315 l 303 315 l 303 224 q 324 159 303 176 q 382 142 346 142 q 439 147 410 142 q 486 163 468 153 l 514 33 q 443 11 490 22 q 343 0 396 0 q 171 48 222 0 q 119 192 119 96 l 119 315 l 22 315 l 22 422 l 119 422 l 119 529 l 17 529 l 17 663 l 119 663 l 119 867 l 303 867 l 303 663 l 479 663 l 479 529 z "},"ť":{"ha":651,"x_min":17,"x_max":711,"o":"m 479 529 l 303 529 l 303 224 q 324 159 303 176 q 382 142 346 142 q 439 147 410 142 q 486 163 468 153 l 514 33 q 443 11 490 22 q 343 0 396 0 q 171 48 222 0 q 119 192 119 96 l 119 529 l 17 529 l 17 663 l 119 663 l 119 867 l 303 867 l 303 663 l 479 663 l 479 529 m 589 839 q 531 869 554 846 q 507 932 507 893 q 532 996 507 968 q 601 1024 557 1024 q 639 1016 619 1024 q 674 992 658 1008 q 701 951 690 976 q 711 888 711 925 q 698 813 711 849 q 663 745 685 776 q 614 689 642 714 q 556 649 586 664 l 513 707 q 577 761 549 728 q 613 833 606 794 l 589 839 z "},"ţ":{"ha":531,"x_min":17,"x_max":514,"o":"m 479 529 l 303 529 l 303 224 q 324 159 303 176 q 382 142 346 142 q 439 147 410 142 q 486 163 468 153 l 514 33 q 443 11 490 22 q 343 0 396 0 q 171 48 222 0 q 119 192 119 96 l 119 529 l 17 529 l 17 663 l 119 663 l 119 867 l 303 867 l 303 663 l 479 663 l 479 529 m 278 -275 q 219 -244 243 -268 q 196 -182 196 -219 q 221 -117 196 -146 q 290 -89 246 -89 q 328 -97 308 -89 q 363 -120 347 -104 q 390 -162 379 -136 q 400 -226 400 -189 q 387 -301 400 -265 q 351 -369 374 -337 q 301 -424 329 -400 q 243 -464 274 -449 l 200 -407 q 265 -352 236 -386 q 301 -279 294 -318 l 278 -275 z "},"ŭ":{"ha":779,"x_min":83,"x_max":696,"o":"m 511 663 l 696 663 l 696 0 l 558 0 l 539 75 l 533 75 q 498 44 518 60 q 451 15 478 28 q 390 -7 424 1 q 314 -15 356 -15 q 145 44 207 -15 q 83 221 83 104 l 83 663 l 268 663 l 268 236 q 297 150 268 176 q 369 124 325 124 q 455 144 419 124 q 511 193 490 165 l 511 663 m 313 954 q 332 891 315 914 q 392 868 349 868 q 471 954 467 868 l 578 954 q 530 820 578 871 q 392 769 482 769 q 306 785 342 769 q 248 826 271 800 q 215 885 225 851 q 204 954 204 918 l 313 954 z "},"ű":{"ha":783,"x_min":83,"x_max":736,"o":"m 511 663 l 696 663 l 696 0 l 558 0 l 539 75 l 533 75 q 498 44 518 60 q 451 15 478 28 q 390 -7 424 1 q 314 -15 356 -15 q 145 44 207 -15 q 83 221 83 104 l 83 663 l 268 663 l 268 236 q 297 150 268 176 q 369 124 325 124 q 455 144 419 124 q 511 193 490 165 l 511 663 m 317 761 l 188 761 l 286 968 l 469 968 l 317 761 m 585 761 l 454 761 l 553 968 l 736 968 l 585 761 z "},"ū":{"ha":779,"x_min":83,"x_max":696,"o":"m 511 663 l 696 663 l 696 0 l 558 0 l 539 75 l 533 75 q 498 44 518 60 q 451 15 478 28 q 390 -7 424 1 q 314 -15 356 -15 q 145 44 207 -15 q 83 221 83 104 l 83 663 l 268 663 l 268 236 q 297 150 268 176 q 369 124 325 124 q 455 144 419 124 q 511 193 490 165 l 511 663 m 572 915 l 572 808 l 211 808 l 211 915 l 572 915 z "},"ų":{"ha":779,"x_min":83,"x_max":760,"o":"m 511 663 l 696 663 l 696 0 l 668 0 q 615 -114 615 -56 q 632 -157 615 -142 q 676 -172 649 -172 q 709 -169 696 -172 q 735 -161 722 -167 l 760 -256 q 642 -286 714 -286 q 535 -251 578 -286 q 493 -151 493 -217 q 515 -61 493 -99 q 558 0 536 -24 l 539 75 l 533 75 q 498 44 518 60 q 451 15 478 28 q 390 -7 424 1 q 314 -15 356 -15 q 145 44 207 -15 q 83 221 83 104 l 83 663 l 268 663 l 268 236 q 297 150 268 176 q 369 124 325 124 q 455 144 419 124 q 511 193 490 165 l 511 663 z "},"ů":{"ha":779,"x_min":83,"x_max":696,"o":"m 511 663 l 696 663 l 696 0 l 558 0 l 539 75 l 533 75 q 498 44 518 60 q 451 15 478 28 q 390 -7 424 1 q 314 -15 356 -15 q 145 44 207 -15 q 83 221 83 104 l 83 663 l 268 663 l 268 236 q 297 150 268 176 q 369 124 325 124 q 455 144 419 124 q 511 193 490 165 l 511 663 m 249 865 q 261 921 249 897 q 294 960 274 944 q 340 983 314 975 q 393 990 365 990 q 447 983 421 990 q 492 960 472 975 q 524 921 513 944 q 536 865 536 897 q 524 810 536 833 q 491 770 511 786 q 445 747 471 754 q 393 739 419 739 q 340 747 365 739 q 294 772 314 756 q 261 811 274 788 q 249 865 249 835 m 332 865 q 349 817 332 833 q 393 801 367 801 q 435 817 418 801 q 453 865 453 833 q 435 913 453 897 q 393 929 417 929 q 350 913 368 929 q 332 865 332 897 z "},"ũ":{"ha":779,"x_min":83,"x_max":696,"o":"m 511 663 l 696 663 l 696 0 l 558 0 l 539 75 l 533 75 q 498 44 518 60 q 451 15 478 28 q 390 -7 424 1 q 314 -15 356 -15 q 145 44 207 -15 q 83 221 83 104 l 83 663 l 268 663 l 268 236 q 297 150 268 176 q 369 124 325 124 q 455 144 419 124 q 511 193 490 165 l 511 663 m 160 761 q 193 895 160 847 q 289 943 226 943 q 341 933 317 943 q 388 911 365 924 q 428 889 410 899 q 464 879 447 879 q 500 901 492 879 q 511 951 508 924 l 601 951 q 569 817 601 864 q 474 771 536 771 q 416 781 442 771 q 368 802 390 790 q 328 824 346 814 q 294 833 310 833 q 261 813 271 833 q 250 761 251 793 l 160 761 z "},"ẃ":{"ha":1054,"x_min":13,"x_max":1043,"o":"m 13 663 l 206 663 l 290 311 l 315 138 l 321 138 l 350 311 l 432 663 l 626 663 l 710 311 l 739 138 l 744 138 l 774 311 l 856 663 l 1043 663 l 860 0 l 644 0 l 558 358 l 529 518 l 499 358 l 413 0 l 197 0 l 13 663 m 550 761 l 419 761 l 517 968 l 701 968 l 550 761 z "},"ŵ":{"ha":1054,"x_min":13,"x_max":1043,"o":"m 13 663 l 206 663 l 290 311 l 315 138 l 321 138 l 350 311 l 432 663 l 626 663 l 710 311 l 739 138 l 744 138 l 774 311 l 856 663 l 1043 663 l 860 0 l 644 0 l 558 358 l 529 518 l 499 358 l 413 0 l 197 0 l 13 663 m 753 761 l 615 761 l 529 868 l 442 761 l 300 761 l 475 958 l 582 958 l 753 761 z "},"ẅ":{"ha":1054,"x_min":13,"x_max":1043,"o":"m 13 663 l 206 663 l 290 311 l 315 138 l 321 138 l 350 311 l 432 663 l 626 663 l 710 311 l 739 138 l 744 138 l 774 311 l 856 663 l 1043 663 l 860 0 l 644 0 l 558 358 l 529 518 l 499 358 l 413 0 l 197 0 l 13 663 m 301 863 q 328 925 301 899 q 392 951 356 951 q 456 925 431 951 q 481 863 481 899 q 456 797 481 824 q 392 771 431 771 q 328 797 356 771 q 301 863 301 824 m 576 863 q 603 925 576 899 q 667 951 631 951 q 731 925 706 951 q 756 863 756 899 q 731 797 756 824 q 667 771 706 771 q 603 797 631 771 q 576 863 576 824 z "},"ẁ":{"ha":1054,"x_min":13,"x_max":1043,"o":"m 13 663 l 206 663 l 290 311 l 315 138 l 321 138 l 350 311 l 432 663 l 626 663 l 710 311 l 739 138 l 744 138 l 774 311 l 856 663 l 1043 663 l 860 0 l 644 0 l 558 358 l 529 518 l 499 358 l 413 0 l 197 0 l 13 663 m 360 968 l 544 968 l 642 761 l 510 761 l 360 968 z "},"ŷ":{"ha":722,"x_min":10,"x_max":714,"o":"m 10 663 l 211 663 l 329 347 l 374 186 l 379 186 l 422 349 l 525 663 l 714 663 l 471 -24 q 424 -133 450 -81 q 362 -229 399 -185 q 275 -308 325 -274 q 157 -365 225 -343 l 81 -222 q 211 -142 158 -194 q 283 -15 264 -89 l 289 3 l 10 663 m 600 761 l 464 761 l 376 868 l 290 761 l 147 761 l 322 958 l 429 958 l 600 761 z "},"ỳ":{"ha":722,"x_min":10,"x_max":714,"o":"m 10 663 l 211 663 l 329 347 l 374 186 l 379 186 l 422 349 l 525 663 l 714 663 l 471 -24 q 424 -133 450 -81 q 362 -229 399 -185 q 275 -308 325 -274 q 157 -365 225 -343 l 81 -222 q 211 -142 158 -194 q 283 -15 264 -89 l 289 3 l 10 663 m 179 968 l 364 968 l 461 761 l 331 761 l 179 968 z "},"ź":{"ha":582,"x_min":29,"x_max":553,"o":"m 546 550 l 236 133 l 553 133 l 553 0 l 29 0 l 29 117 l 339 529 l 47 529 l 47 663 l 546 663 l 546 550 m 339 761 l 208 761 l 306 968 l 490 968 l 339 761 z "},"ż":{"ha":582,"x_min":29,"x_max":553,"o":"m 546 550 l 236 133 l 553 133 l 553 0 l 29 0 l 29 117 l 339 529 l 47 529 l 47 663 l 546 663 l 546 550 m 207 863 q 234 926 207 899 q 299 954 261 954 q 364 926 339 954 q 389 863 389 899 q 364 796 389 822 q 299 769 339 769 q 234 796 261 769 q 207 863 207 822 z "},"Ŋ":{"ha":931,"x_min":96,"x_max":835,"o":"m 96 875 l 269 875 l 571 400 q 627 308 601 353 q 664 238 653 263 l 667 238 q 658 417 658 328 q 658 599 658 507 l 658 875 l 835 875 l 835 124 q 823 -28 835 42 q 781 -158 811 -99 q 701 -263 751 -217 q 575 -343 651 -310 l 497 -217 q 599 -130 558 -179 q 654 -3 639 -81 l 381 425 q 345 483 363 453 q 313 540 328 513 q 285 591 297 568 q 268 629 274 614 l 265 629 q 273 445 272 533 q 274 265 274 357 l 274 0 l 96 0 l 96 875 z "},"ŋ":{"ha":783,"x_min":83,"x_max":699,"o":"m 83 663 l 228 663 l 250 578 q 351 651 296 625 q 472 676 406 676 q 640 617 582 676 q 699 443 699 557 l 699 101 q 687 -44 699 24 q 645 -167 675 -111 q 565 -268 615 -224 q 439 -344 515 -312 l 360 -218 q 428 -176 399 -197 q 476 -121 457 -154 q 505 -38 496 -87 q 514 86 514 11 l 514 424 q 489 505 514 475 q 415 535 464 535 q 340 515 379 535 q 268 460 300 494 l 268 0 l 83 0 l 83 663 z "},"₹":{"ha":701,"x_min":0,"x_max":618,"o":"m 7 553 l 7 663 l 311 663 q 290 715 304 693 q 260 757 276 738 l 0 757 l 0 888 l 618 888 l 618 757 l 431 757 q 455 720 442 742 q 476 663 468 699 l 611 663 l 611 553 l 492 553 q 472 472 492 510 q 420 406 453 435 q 346 361 388 378 q 258 342 304 344 l 493 90 l 357 -14 l 153 242 q 108 294 129 269 q 71 336 88 318 q 35 375 51 357 l 79 475 q 116 465 99 468 q 158 461 133 461 q 269 488 229 461 q 314 553 308 515 l 7 553 z "},"":{"ha":743,"x_min":44,"x_max":697,"o":"m 697 339 q 673 191 697 257 q 605 79 649 125 q 501 9 561 33 q 368 -15 440 -15 q 236 8 296 -15 q 134 74 176 31 q 68 181 92 118 q 44 325 44 244 q 69 472 44 407 q 137 583 93 538 q 242 652 181 628 q 375 676 303 676 q 507 654 447 676 q 609 589 567 632 q 674 483 651 546 q 697 339 697 419 m 513 332 q 501 431 513 389 q 471 499 490 472 q 426 539 451 526 q 371 551 400 551 q 316 540 342 551 q 271 504 290 529 q 240 437 251 479 q 229 332 229 394 q 241 233 229 275 q 272 165 253 192 q 317 124 292 138 q 372 111 343 111 q 426 122 401 111 q 471 160 451 133 q 501 228 490 186 q 513 332 513 269 z "},"":{"ha":593,"x_min":46,"x_max":547,"o":"m 282 663 l 401 663 l 401 133 l 547 133 l 547 0 l 74 0 l 74 133 l 225 133 l 225 393 l 229 499 l 82 453 l 46 585 l 282 663 z "},"":{"ha":586,"x_min":35,"x_max":544,"o":"m 35 601 q 138 657 79 638 q 263 676 197 676 q 375 660 325 676 q 460 613 425 643 q 515 540 496 582 q 535 447 535 497 q 512 344 535 392 q 455 256 489 296 q 381 183 421 215 q 308 128 342 151 l 431 136 l 544 136 l 544 0 l 64 0 l 64 114 q 151 171 101 136 q 246 247 201 206 q 322 336 290 289 q 353 433 353 383 q 322 508 353 479 q 236 538 292 538 q 169 524 201 538 q 108 488 138 511 l 35 601 z "},"":{"ha":603,"x_min":33,"x_max":554,"o":"m 40 621 q 135 664 85 651 q 242 676 186 676 q 449 619 374 676 q 524 463 524 563 q 478 347 524 392 q 371 285 433 301 l 371 281 q 443 256 410 274 q 501 213 476 239 q 540 150 526 186 q 554 69 554 114 q 526 -50 554 4 q 448 -142 499 -104 q 324 -201 397 -181 q 161 -222 251 -222 q 115 -221 139 -222 q 58 -215 90 -219 l 33 -86 q 81 -90 57 -89 q 122 -90 106 -90 q 313 -47 251 -90 q 375 72 375 -3 q 325 170 375 136 q 183 204 275 204 q 156 203 172 204 q 114 200 139 203 l 114 350 l 178 350 q 304 380 261 350 q 347 458 347 410 q 314 528 347 504 q 228 551 281 551 q 160 540 193 551 q 97 508 126 528 l 40 621 z "},"":{"ha":786,"x_min":39,"x_max":740,"o":"m 422 663 l 614 663 l 614 136 l 740 136 l 740 0 l 614 0 l 614 -222 l 443 -222 l 443 0 l 39 0 l 39 114 l 422 663 m 221 136 l 443 136 l 443 342 l 450 496 l 372 358 l 221 136 z "},"":{"ha":603,"x_min":38,"x_max":550,"o":"m 117 663 l 522 667 l 506 532 l 242 532 l 215 361 q 236 363 226 363 q 251 363 246 363 q 378 342 322 363 q 472 285 433 321 q 530 199 510 249 q 550 93 550 150 q 523 -30 550 28 q 444 -131 496 -87 q 319 -198 393 -174 q 150 -222 244 -222 q 110 -221 131 -222 q 61 -215 89 -219 l 38 -86 q 115 -90 83 -90 q 307 -40 243 -90 q 371 83 371 10 q 317 190 371 151 q 163 228 263 228 q 110 226 131 228 q 54 219 89 224 l 117 663 z "},"":{"ha":724,"x_min":49,"x_max":679,"o":"m 606 754 q 582 758 593 757 q 553 758 571 758 q 428 736 483 758 q 334 678 374 714 q 270 600 294 643 q 236 515 246 557 l 242 514 q 308 551 267 538 q 399 564 350 564 q 517 542 465 564 q 606 483 569 521 q 660 394 642 446 q 679 282 679 343 q 655 161 679 215 q 588 67 631 107 q 490 6 546 28 q 372 -15 435 -15 q 245 7 304 -15 q 142 75 186 29 q 74 190 99 121 q 49 351 49 258 q 81 563 49 464 q 174 738 113 663 q 325 856 236 813 q 528 899 414 899 q 560 897 543 899 q 592 893 576 896 l 606 754 m 225 301 q 265 171 225 222 q 372 119 306 119 q 465 164 431 119 q 500 276 500 208 q 463 397 500 353 q 364 442 426 442 q 294 426 322 442 q 246 388 265 411 q 230 352 235 372 q 225 301 225 332 z "},"":{"ha":592,"x_min":38,"x_max":571,"o":"m 571 663 l 571 549 q 453 341 508 447 q 351 133 397 235 q 270 -62 306 31 q 214 -228 235 -154 l 53 -185 q 115 -21 78 -110 q 198 161 153 68 q 292 347 243 254 q 388 524 340 440 l 38 524 l 38 663 l 571 663 z "},"":{"ha":715,"x_min":49,"x_max":667,"o":"m 358 899 q 480 881 426 899 q 571 831 533 863 q 628 757 608 800 q 649 664 649 714 q 607 548 649 596 q 506 479 565 500 l 506 474 q 628 386 589 440 q 667 253 667 332 q 641 143 667 190 q 572 64 615 96 q 474 16 529 32 q 358 0 418 0 q 241 15 297 0 q 142 62 185 31 q 74 138 100 93 q 49 244 49 183 q 213 464 49 401 l 213 469 q 108 543 146 500 q 71 664 71 586 q 90 757 71 714 q 146 831 110 800 q 235 881 182 863 q 358 899 289 899 m 254 669 q 287 594 254 622 q 363 550 319 565 q 399 565 381 556 q 431 590 417 575 q 455 623 446 604 q 464 665 464 642 q 430 745 464 719 q 358 771 396 771 q 285 744 315 771 q 254 669 254 718 m 354 383 q 267 330 299 365 q 235 249 235 294 q 272 159 235 188 q 358 131 308 131 q 442 160 406 131 q 479 251 479 190 q 467 299 479 278 q 438 338 456 321 q 397 365 419 354 q 354 383 375 376 z "},"":{"ha":721,"x_min":42,"x_max":672,"o":"m 125 -82 q 265 -62 203 -82 q 371 -10 326 -42 q 442 62 415 22 q 479 142 469 101 l 475 144 q 410 101 450 117 q 321 85 369 85 q 203 106 254 85 q 115 165 151 128 q 60 255 79 203 q 42 368 42 307 q 67 498 42 440 q 135 595 92 556 q 235 656 178 635 q 357 676 292 676 q 483 653 425 676 q 583 583 540 629 q 649 465 625 536 q 672 299 672 394 q 638 97 672 192 q 537 -69 603 1 q 374 -181 471 -140 q 151 -222 276 -222 q 119 -221 136 -222 q 88 -217 103 -219 l 72 -78 q 96 -81 85 -81 q 125 -82 107 -82 m 496 356 q 488 426 496 392 q 462 485 479 460 q 417 526 444 511 q 354 542 390 542 q 258 494 296 542 q 221 374 221 446 q 261 260 221 301 q 361 218 301 218 q 433 235 406 218 q 474 271 460 251 q 491 311 486 289 q 496 356 496 333 z "},"Ḍ":{"ha":908,"x_min":96,"x_max":854,"o":"m 288 -176 q 315 -115 288 -140 q 378 -89 342 -89 q 442 -115 417 -89 q 468 -176 468 -140 q 442 -242 468 -215 q 378 -268 417 -268 q 315 -242 342 -268 q 288 -176 288 -215 m 401 875 q 586 849 503 875 q 729 769 669 822 q 822 638 789 717 q 854 456 854 560 q 815 251 854 336 q 710 109 776 165 q 553 26 643 53 q 364 0 464 0 l 96 0 l 96 875 l 401 875 m 286 147 l 351 147 q 465 162 410 147 q 561 212 519 176 q 628 306 603 247 q 653 456 653 365 q 578 658 653 588 q 376 728 503 728 l 286 728 l 286 147 z "},"ḍ":{"ha":782,"x_min":47,"x_max":696,"o":"m 511 992 l 696 992 l 696 0 l 564 0 l 544 72 l 538 72 q 466 11 513 38 q 344 -15 419 -15 q 228 8 282 -15 q 133 76 174 32 q 70 185 93 121 q 47 331 47 249 q 68 474 47 410 q 128 583 89 538 q 224 652 167 628 q 354 676 281 676 q 444 663 401 676 q 511 626 486 649 l 511 992 m 511 489 q 464 526 493 511 q 400 542 435 542 q 337 531 367 542 q 284 495 307 519 q 247 431 261 471 q 233 335 233 392 q 246 239 233 279 q 279 172 258 199 q 328 133 300 146 q 389 121 357 121 q 465 142 433 121 q 511 193 496 164 l 511 489 m 290 -176 q 317 -115 290 -140 q 381 -89 344 -89 q 445 -115 419 -89 q 471 -176 471 -140 q 445 -242 471 -215 q 381 -268 419 -268 q 317 -242 344 -268 q 290 -176 290 -215 z "},"Ḥ":{"ha":906,"x_min":96,"x_max":808,"o":"m 96 0 l 96 875 l 286 875 l 286 528 l 618 528 l 618 875 l 808 875 l 808 0 l 618 0 l 618 378 l 286 378 l 286 0 l 96 0 m 358 -176 q 385 -115 358 -140 q 449 -89 413 -89 q 513 -115 488 -89 q 539 -176 539 -140 q 513 -242 539 -215 q 449 -268 488 -268 q 385 -242 413 -268 q 358 -176 358 -215 z "},"ḥ":{"ha":793,"x_min":86,"x_max":707,"o":"m 271 0 l 86 0 l 86 992 l 271 992 l 271 603 q 363 656 311 635 q 476 676 415 676 q 578 659 535 676 q 651 610 622 642 q 693 535 679 579 q 707 440 707 492 l 707 0 l 522 0 l 522 408 q 494 506 522 476 q 414 535 467 535 q 340 517 378 535 q 271 471 301 500 l 271 0 m 307 -176 q 334 -115 307 -140 q 397 -89 361 -89 q 462 -115 436 -89 q 488 -176 488 -140 q 462 -242 488 -215 q 397 -268 436 -268 q 334 -242 361 -268 q 307 -176 307 -215 z "},"Ḷ":{"ha":650,"x_min":96,"x_max":639,"o":"m 96 875 l 286 875 l 286 150 l 639 150 l 639 0 l 96 0 l 96 875 m 281 -176 q 308 -115 281 -140 q 371 -89 335 -89 q 435 -115 410 -89 q 461 -176 461 -140 q 435 -242 461 -215 q 371 -268 410 -268 q 308 -242 335 -268 q 281 -176 281 -215 z "},"ḷ":{"ha":360,"x_min":89,"x_max":271,"o":"m 89 0 l 89 992 l 271 992 l 271 0 l 89 0 m 89 -176 q 116 -115 89 -140 q 179 -89 143 -89 q 244 -115 218 -89 q 269 -176 269 -140 q 244 -242 269 -215 q 179 -268 218 -268 q 116 -242 143 -268 q 89 -176 89 -215 z "},"Ḹ":{"ha":650,"x_min":96,"x_max":639,"o":"m 96 875 l 286 875 l 286 150 l 639 150 l 639 0 l 96 0 l 96 875 m 529 1126 l 529 1022 l 175 1022 l 175 1126 l 529 1126 m 281 -176 q 308 -115 281 -140 q 371 -89 335 -89 q 435 -115 410 -89 q 461 -176 461 -140 q 435 -242 461 -215 q 371 -268 410 -268 q 308 -242 335 -268 q 281 -176 281 -215 z "},"ḹ":{"ha":360,"x_min":0,"x_max":354,"o":"m 354 1172 l 354 1068 l 0 1068 l 0 1172 l 354 1172 m 89 -176 q 116 -115 89 -140 q 179 -89 143 -89 q 244 -115 218 -89 q 269 -176 269 -140 q 244 -242 269 -215 q 179 -268 218 -268 q 116 -242 143 -268 q 89 -176 89 -215 m 89 0 l 89 981 l 271 981 l 271 0 l 89 0 z "},"Ḻ":{"ha":650,"x_min":96,"x_max":639,"o":"m 96 875 l 286 875 l 286 150 l 639 150 l 639 0 l 96 0 l 96 875 m 547 -125 l 547 -229 l 193 -229 l 193 -125 l 547 -125 z "},"ḻ":{"ha":360,"x_min":7,"x_max":361,"o":"m 89 0 l 89 992 l 271 992 l 271 0 l 89 0 m 361 -125 l 361 -229 l 7 -229 l 7 -125 l 361 -125 z "},"Ṃ":{"ha":1157,"x_min":89,"x_max":1068,"o":"m 151 875 l 392 875 l 517 476 q 534 419 525 450 q 551 358 543 389 q 567 299 560 328 q 578 244 574 269 l 583 244 q 594 297 588 267 q 610 358 601 326 q 626 421 618 390 q 642 476 635 451 l 763 875 l 1003 875 l 1068 0 l 889 0 q 872 289 881 144 q 861 581 864 433 l 860 694 l 856 694 q 816 535 838 618 q 775 389 794 451 l 651 0 l 504 0 l 378 390 q 333 549 354 465 q 300 694 313 632 l 296 694 q 294 590 296 644 q 291 481 293 535 q 287 374 289 426 q 282 279 285 322 l 265 0 l 89 0 l 151 875 m 485 -176 q 512 -115 485 -140 q 575 -89 539 -89 q 640 -115 614 -89 q 665 -176 665 -140 q 640 -242 665 -215 q 575 -268 614 -268 q 512 -242 539 -268 q 485 -176 485 -215 z "},"ṃ":{"ha":1186,"x_min":83,"x_max":1101,"o":"m 268 0 l 83 0 l 83 663 l 228 663 l 250 578 q 347 650 294 624 q 467 676 400 676 q 660 574 608 676 q 761 649 704 622 q 883 676 818 676 q 1045 619 989 676 q 1101 454 1101 563 l 1101 0 l 917 0 l 917 433 q 894 508 917 481 q 826 535 871 535 q 751 517 789 535 q 685 465 713 499 l 685 0 l 500 0 l 500 433 q 477 508 500 481 q 410 535 454 535 q 334 515 372 535 q 268 460 296 494 l 268 0 m 503 -176 q 530 -115 503 -140 q 593 -89 557 -89 q 658 -115 632 -89 q 683 -176 683 -140 q 658 -242 683 -215 q 593 -268 632 -268 q 530 -242 557 -268 q 503 -176 503 -215 z "},"Ṅ":{"ha":931,"x_min":96,"x_max":835,"o":"m 386 1046 q 413 1108 386 1082 q 476 1133 440 1133 q 541 1108 515 1133 q 567 1046 567 1082 q 541 981 567 1007 q 476 954 515 954 q 413 981 440 954 q 386 1046 386 1007 m 96 875 l 269 875 l 571 414 q 627 322 601 367 q 664 251 653 276 l 667 251 q 658 431 658 342 q 658 613 658 521 l 658 875 l 835 875 l 835 0 l 661 0 l 381 425 q 345 483 363 453 q 313 540 328 513 q 285 591 297 568 q 268 629 274 614 l 265 629 q 273 445 272 533 q 274 265 274 357 l 274 0 l 96 0 l 96 875 z "},"ṅ":{"ha":783,"x_min":83,"x_max":699,"o":"m 268 0 l 83 0 l 83 663 l 228 663 l 250 578 q 351 651 296 625 q 472 676 406 676 q 640 617 582 676 q 699 443 699 557 l 699 0 l 514 0 l 514 424 q 489 505 514 475 q 415 535 464 535 q 340 515 379 535 q 268 460 300 494 l 268 0 m 325 863 q 352 926 325 899 q 417 954 379 954 q 482 926 457 954 q 507 863 507 899 q 482 796 507 822 q 417 769 457 769 q 352 796 379 769 q 325 863 325 822 z "},"Ṇ":{"ha":931,"x_min":96,"x_max":835,"o":"m 96 875 l 269 875 l 571 414 q 627 322 601 367 q 664 251 653 276 l 667 251 q 658 431 658 342 q 658 613 658 521 l 658 875 l 835 875 l 835 0 l 661 0 l 381 425 q 345 483 363 453 q 313 540 328 513 q 285 591 297 568 q 268 629 274 614 l 265 629 q 273 445 272 533 q 274 265 274 357 l 274 0 l 96 0 l 96 875 m 381 -176 q 408 -115 381 -140 q 471 -89 435 -89 q 535 -115 510 -89 q 561 -176 561 -140 q 535 -242 561 -215 q 471 -268 510 -268 q 408 -242 435 -268 q 381 -176 381 -215 z "},"ṇ":{"ha":783,"x_min":83,"x_max":699,"o":"m 268 0 l 83 0 l 83 663 l 228 663 l 250 578 q 351 651 296 625 q 472 676 406 676 q 640 617 582 676 q 699 443 699 557 l 699 0 l 514 0 l 514 424 q 489 505 514 475 q 415 535 464 535 q 340 515 379 535 q 268 460 300 494 l 268 0 m 300 -176 q 327 -115 300 -140 q 390 -89 354 -89 q 455 -115 429 -89 q 481 -176 481 -140 q 455 -242 481 -215 q 390 -268 429 -268 q 327 -242 354 -268 q 300 -176 300 -215 z "},"Ṉ":{"ha":931,"x_min":96,"x_max":835,"o":"m 96 875 l 269 875 l 571 414 q 627 322 601 367 q 664 251 653 276 l 667 251 q 658 431 658 342 q 658 613 658 521 l 658 875 l 835 875 l 835 0 l 661 0 l 381 425 q 345 483 363 453 q 313 540 328 513 q 285 591 297 568 q 268 629 274 614 l 265 629 q 273 445 272 533 q 274 265 274 357 l 274 0 l 96 0 l 96 875 m 654 -125 l 654 -229 l 300 -229 l 300 -125 l 654 -125 z "},"ṉ":{"ha":783,"x_min":83,"x_max":699,"o":"m 268 0 l 83 0 l 83 663 l 228 663 l 250 578 q 351 651 296 625 q 472 676 406 676 q 640 617 582 676 q 699 443 699 557 l 699 0 l 514 0 l 514 424 q 489 505 514 475 q 415 535 464 535 q 340 515 379 535 q 268 460 300 494 l 268 0 m 576 -125 l 576 -229 l 222 -229 l 222 -125 l 576 -125 z "},"Ṛ":{"ha":793,"x_min":96,"x_max":772,"o":"m 96 875 l 428 875 q 558 853 501 875 q 651 795 614 832 q 708 709 689 758 q 726 603 726 660 q 710 509 726 550 q 670 438 694 468 q 616 388 646 408 q 558 356 586 368 l 772 0 l 554 0 l 386 322 l 285 322 l 285 0 l 96 0 l 96 875 m 285 468 l 360 468 q 483 499 435 468 q 531 600 531 529 q 492 697 531 663 q 381 731 454 731 l 285 731 l 285 468 m 324 -176 q 351 -115 324 -140 q 414 -89 378 -89 q 478 -115 453 -89 q 504 -176 504 -140 q 478 -242 504 -215 q 414 -268 453 -268 q 351 -242 378 -268 q 324 -176 324 -215 z "},"ṛ":{"ha":542,"x_min":83,"x_max":550,"o":"m 83 0 l 83 663 l 226 663 l 247 543 q 322 636 271 596 q 451 676 374 676 q 508 669 483 676 q 550 653 533 663 l 519 507 q 481 522 504 515 q 425 528 457 528 q 312 483 357 528 q 267 335 267 438 l 267 0 l 83 0 m 83 -176 q 110 -115 83 -140 q 174 -89 138 -89 q 238 -115 213 -89 q 264 -176 264 -140 q 238 -242 264 -215 q 174 -268 213 -268 q 110 -242 138 -268 q 83 -176 83 -215 z "},"Ṝ":{"ha":793,"x_min":96,"x_max":772,"o":"m 96 875 l 428 875 q 558 853 501 875 q 651 795 614 832 q 708 709 689 758 q 726 603 726 660 q 710 509 726 550 q 670 438 694 468 q 616 388 646 408 q 558 356 586 368 l 772 0 l 554 0 l 386 322 l 285 322 l 285 0 l 96 0 l 96 875 m 285 468 l 360 468 q 483 499 435 468 q 531 600 531 529 q 492 697 531 663 q 381 731 454 731 l 285 731 l 285 468 m 574 1126 l 574 1022 l 219 1022 l 219 1126 l 574 1126 m 324 -176 q 351 -115 324 -140 q 414 -89 378 -89 q 478 -115 453 -89 q 504 -176 504 -140 q 478 -242 504 -215 q 414 -268 453 -268 q 351 -242 378 -268 q 324 -176 324 -215 z "},"ṝ":{"ha":542,"x_min":83,"x_max":550,"o":"m 83 0 l 83 663 l 226 663 l 247 543 q 322 636 271 596 q 451 676 374 676 q 508 669 483 676 q 550 653 533 663 l 519 507 q 481 522 504 515 q 425 528 457 528 q 312 483 357 528 q 267 335 267 438 l 267 0 l 83 0 m 447 918 l 447 814 l 93 814 l 93 918 l 447 918 m 83 -176 q 110 -115 83 -140 q 174 -89 138 -89 q 238 -115 213 -89 q 264 -176 264 -140 q 238 -242 264 -215 q 174 -268 213 -268 q 110 -242 138 -268 q 83 -176 83 -215 z "},"Ṟ":{"ha":793,"x_min":96,"x_max":772,"o":"m 96 875 l 428 875 q 558 853 501 875 q 651 795 614 832 q 708 709 689 758 q 726 603 726 660 q 710 509 726 550 q 670 438 694 468 q 616 388 646 408 q 558 356 586 368 l 772 0 l 554 0 l 386 322 l 285 322 l 285 0 l 96 0 l 96 875 m 285 468 l 360 468 q 483 499 435 468 q 531 600 531 529 q 492 697 531 663 q 381 731 454 731 l 285 731 l 285 468 m 594 -125 l 594 -229 l 240 -229 l 240 -125 l 594 -125 z "},"ṟ":{"ha":542,"x_min":83,"x_max":550,"o":"m 83 0 l 83 663 l 226 663 l 247 543 q 322 636 271 596 q 451 676 374 676 q 508 669 483 676 q 550 653 533 663 l 519 507 q 481 522 504 515 q 425 528 457 528 q 312 483 357 528 q 267 335 267 438 l 267 0 l 83 0 m 476 -125 l 476 -229 l 122 -229 l 122 -125 l 476 -125 z "},"Ṣ":{"ha":744,"x_min":57,"x_max":690,"o":"m 379 890 q 529 874 464 890 q 646 831 594 857 l 603 689 q 493 731 546 717 q 390 746 440 746 q 287 719 324 746 q 250 649 250 693 q 282 579 250 603 q 385 533 314 556 l 468 507 q 631 408 572 472 q 690 251 690 344 q 669 147 690 196 q 607 63 649 99 q 503 6 565 26 q 357 -15 440 -15 q 69 49 200 -15 l 113 190 q 229 145 172 161 q 349 129 286 129 q 460 156 422 129 q 497 232 497 183 q 491 265 497 249 q 468 295 485 281 q 423 324 451 310 q 349 353 394 339 l 275 378 q 186 417 226 394 q 117 468 146 439 q 73 537 89 497 q 57 629 57 576 q 78 734 57 686 q 140 817 99 782 q 241 871 181 851 q 379 890 301 890 m 263 -176 q 290 -115 263 -140 q 353 -89 317 -89 q 417 -115 392 -89 q 443 -176 443 -140 q 417 -242 443 -215 q 353 -268 392 -268 q 290 -242 317 -268 q 263 -176 263 -215 z "},"ṣ":{"ha":604,"x_min":50,"x_max":557,"o":"m 483 504 q 325 543 401 543 q 256 528 281 543 q 232 486 232 513 q 253 443 232 460 q 340 407 275 426 l 382 394 q 513 322 468 369 q 557 200 557 275 q 481 43 557 101 q 276 -15 406 -15 q 50 32 144 -15 l 92 168 q 176 134 132 147 q 267 121 221 121 q 348 138 322 121 q 374 183 374 156 q 349 228 374 213 q 254 264 324 244 l 211 276 q 89 350 128 304 q 50 472 50 396 q 118 619 50 563 q 308 676 186 676 q 522 633 429 676 l 483 504 m 200 -176 q 227 -115 200 -140 q 290 -89 254 -89 q 355 -115 329 -89 q 381 -176 381 -140 q 355 -242 381 -215 q 290 -268 329 -268 q 227 -242 254 -268 q 200 -176 200 -215 z "},"Ṭ":{"ha":706,"x_min":14,"x_max":693,"o":"m 693 875 l 693 725 l 446 725 l 446 0 l 256 0 l 256 725 l 14 725 l 14 875 l 693 875 m 264 -176 q 291 -115 264 -140 q 354 -89 318 -89 q 419 -115 393 -89 q 444 -176 444 -140 q 419 -242 444 -215 q 354 -268 393 -268 q 291 -242 318 -268 q 264 -176 264 -215 z "},"ṭ":{"ha":531,"x_min":17,"x_max":514,"o":"m 479 529 l 303 529 l 303 224 q 324 159 303 176 q 382 142 346 142 q 439 147 410 142 q 486 163 468 153 l 514 33 q 443 11 490 22 q 343 0 396 0 q 171 48 222 0 q 119 192 119 96 l 119 529 l 17 529 l 17 663 l 119 663 l 119 867 l 303 867 l 303 663 l 479 663 l 479 529 m 214 -176 q 241 -115 214 -140 q 304 -89 268 -89 q 369 -115 343 -89 q 394 -176 394 -140 q 369 -242 394 -215 q 304 -268 343 -268 q 241 -242 268 -268 q 214 -176 214 -215 z "},"Ṯ":{"ha":706,"x_min":14,"x_max":693,"o":"m 693 875 l 693 725 l 446 725 l 446 0 l 256 0 l 256 725 l 14 725 l 14 875 l 693 875 m 532 -125 l 532 -229 l 178 -229 l 178 -125 l 532 -125 z "},"ṯ":{"ha":531,"x_min":17,"x_max":514,"o":"m 479 529 l 303 529 l 303 224 q 324 159 303 176 q 382 142 346 142 q 439 147 410 142 q 486 163 468 153 l 514 33 q 443 11 490 22 q 343 0 396 0 q 171 48 222 0 q 119 192 119 96 l 119 529 l 17 529 l 17 663 l 119 663 l 119 867 l 303 867 l 303 663 l 479 663 l 479 529 m 485 -125 l 485 -229 l 131 -229 l 131 -125 l 485 -125 z "},"Ẏ":{"ha":815,"x_min":13,"x_max":808,"o":"m 325 1046 q 352 1108 325 1082 q 415 1133 379 1133 q 480 1108 454 1133 q 506 1046 506 1082 q 480 981 506 1007 q 415 954 454 954 q 352 981 379 954 q 325 1046 325 1007 m 226 875 l 413 535 l 601 875 l 808 875 l 503 361 l 503 0 l 313 0 l 313 361 l 13 875 l 226 875 z "},"ẏ":{"ha":722,"x_min":10,"x_max":714,"o":"m 10 663 l 211 663 l 329 347 l 374 186 l 379 186 l 422 349 l 525 663 l 714 663 l 471 -24 q 424 -133 450 -81 q 362 -229 399 -185 q 275 -308 325 -274 q 157 -365 225 -343 l 81 -222 q 211 -142 158 -194 q 283 -15 264 -89 l 289 3 l 10 663 m 279 863 q 306 926 279 899 q 371 954 333 954 q 436 926 411 954 q 461 863 461 899 q 436 796 461 822 q 371 769 411 769 q 306 796 333 769 q 279 863 279 822 z "},"·":{"ha":263,"x_min":43,"x_max":219,"o":"m 43 481 q 68 547 43 519 q 133 575 93 575 q 194 548 169 575 q 219 481 219 521 q 194 415 219 443 q 133 386 169 386 q 68 415 93 386 q 43 481 43 443 z "},"⁰":{"ha":544,"x_min":29,"x_max":513,"o":"m 278 1192 q 382 1169 338 1192 q 456 1106 426 1146 q 499 1013 485 1067 q 513 899 513 960 q 447 689 513 767 q 268 611 381 611 q 174 631 218 611 q 98 688 131 650 q 47 778 65 725 q 29 899 29 832 q 97 1115 29 1038 q 278 1192 165 1192 m 169 900 q 196 758 169 806 q 271 711 222 711 q 348 756 324 711 q 372 899 372 801 q 351 1042 372 990 q 274 1093 331 1093 q 197 1049 224 1093 q 169 900 169 1004 z "},"¹":{"ha":417,"x_min":31,"x_max":325,"o":"m 203 1182 l 325 1182 l 325 618 l 178 618 l 178 1038 l 63 983 l 31 1103 l 203 1182 z "},"²":{"ha":457,"x_min":21,"x_max":417,"o":"m 196 1090 q 141 1083 169 1090 q 78 1051 113 1075 l 31 1139 q 117 1179 72 1167 q 207 1192 161 1192 q 362 1141 307 1192 q 417 1014 417 1090 q 381 897 417 956 q 274 782 346 838 l 192 719 l 417 719 l 417 618 l 47 618 l 21 708 l 132 803 q 201 865 174 838 q 246 917 229 893 q 270 963 263 942 q 278 1008 278 985 q 253 1067 278 1044 q 196 1090 229 1090 z "},"³":{"ha":425,"x_min":13,"x_max":394,"o":"m 28 1161 q 109 1186 72 1181 q 182 1192 146 1192 q 256 1181 221 1192 q 318 1149 292 1169 q 360 1101 344 1129 q 375 1039 375 1074 q 265 908 375 940 l 265 906 q 359 860 324 894 q 394 775 394 826 q 376 703 394 733 q 326 651 357 672 q 255 621 296 631 q 171 611 214 611 q 86 617 131 611 q 13 638 42 624 l 39 732 q 97 717 71 721 q 156 713 124 713 q 226 733 200 713 q 251 788 251 753 q 228 834 251 815 q 153 853 206 853 l 78 853 l 78 949 l 132 949 q 208 969 182 949 q 235 1026 235 990 q 209 1077 235 1061 q 154 1093 183 1093 q 106 1088 131 1093 q 56 1071 82 1083 l 28 1161 z "},"⁴":{"ha":543,"x_min":26,"x_max":513,"o":"m 271 1182 l 429 1182 l 429 854 l 513 854 l 513 760 l 429 760 l 429 618 l 294 618 l 294 760 l 26 760 l 26 842 l 271 1182 m 251 983 l 160 854 l 294 854 l 294 981 l 297 1058 l 294 1058 l 251 983 z "},"⁵":{"ha":474,"x_min":31,"x_max":432,"o":"m 410 1185 l 410 1086 l 183 1086 l 171 976 q 219 981 193 981 q 376 933 321 981 q 432 810 432 885 q 363 664 432 717 q 185 611 294 611 q 107 617 147 611 q 31 638 67 622 l 58 733 q 175 713 108 713 q 263 740 233 713 q 292 806 292 767 q 259 867 292 847 q 174 888 226 888 q 110 883 139 888 q 60 872 82 879 l 88 1182 l 410 1185 z "},"⁶":{"ha":506,"x_min":31,"x_max":475,"o":"m 169 963 q 217 993 189 982 q 274 1004 246 1004 q 356 990 319 1004 q 419 952 393 976 q 460 893 446 928 q 475 817 475 858 q 460 735 475 772 q 419 670 446 697 q 351 627 392 643 q 258 611 310 611 q 174 626 215 611 q 101 675 133 642 q 50 760 69 708 q 31 883 31 811 q 106 1119 31 1046 q 307 1192 182 1192 q 376 1185 340 1192 q 436 1167 411 1178 l 406 1068 q 360 1085 382 1079 q 308 1092 338 1092 q 206 1054 239 1092 q 167 964 172 1017 l 169 963 m 167 821 q 190 744 167 776 q 257 713 213 713 q 314 740 293 713 q 335 813 335 768 q 313 883 335 860 q 250 906 290 906 q 210 896 229 906 q 179 867 190 886 q 169 849 172 858 q 167 821 167 839 z "},"⁷":{"ha":447,"x_min":31,"x_max":428,"o":"m 428 1182 l 428 1093 l 168 596 l 54 644 l 290 1079 l 31 1079 l 31 1182 l 428 1182 z "},"⁸":{"ha":506,"x_min":32,"x_max":472,"o":"m 143 910 q 71 967 90 933 q 51 1036 51 1000 q 63 1093 51 1065 q 100 1142 75 1121 q 163 1178 125 1164 q 253 1192 201 1192 q 347 1178 308 1192 q 410 1142 386 1164 q 446 1092 435 1119 q 457 1036 457 1064 q 435 966 457 999 q 358 914 413 933 l 358 911 q 446 855 419 892 q 472 776 472 818 q 417 658 472 704 q 250 611 361 611 q 160 624 200 611 q 91 658 119 636 q 47 708 63 679 q 32 771 32 738 q 56 853 32 819 q 143 907 79 888 l 143 910 m 185 1033 q 202 985 185 1004 q 254 956 219 967 q 307 987 292 967 q 322 1033 322 1007 q 306 1075 322 1057 q 253 1093 289 1093 q 201 1075 218 1093 q 185 1033 185 1057 m 251 864 q 172 783 172 844 q 191 736 172 760 q 253 713 210 713 q 313 735 293 713 q 333 785 333 757 q 311 836 333 815 q 251 864 289 857 z "},"⁹":{"ha":503,"x_min":31,"x_max":472,"o":"m 335 839 q 285 809 315 819 q 226 799 254 799 q 86 849 142 799 q 31 992 31 900 q 46 1072 31 1035 q 90 1135 61 1108 q 159 1176 118 1161 q 253 1192 200 1192 q 338 1176 297 1192 q 408 1129 378 1161 q 455 1047 438 1097 q 472 924 472 996 q 397 687 472 763 q 193 611 321 611 q 131 616 164 611 q 74 631 97 621 l 99 728 q 190 711 144 711 q 254 722 228 711 q 299 749 281 732 q 326 790 317 767 q 339 838 335 813 l 335 839 m 333 982 q 328 1022 333 1003 q 314 1057 324 1042 q 288 1081 304 1072 q 250 1090 272 1090 q 193 1065 215 1090 q 171 994 171 1039 q 196 922 171 946 q 258 897 221 897 q 326 932 308 897 q 333 982 333 947 z "},"⁽":{"ha":318,"x_min":51,"x_max":292,"o":"m 290 1243 q 237 1163 260 1203 q 199 1083 214 1124 q 177 997 185 1042 q 169 900 169 951 q 197 717 169 801 q 292 550 224 633 l 222 496 q 97 678 142 579 q 51 899 51 776 q 97 1119 51 1021 q 224 1299 143 1217 l 290 1243 z "},"⁾":{"ha":318,"x_min":25,"x_max":265,"o":"m 26 550 q 118 711 89 632 q 147 894 147 790 q 120 1077 147 993 q 25 1243 93 1161 l 94 1299 q 220 1117 175 1215 q 265 896 265 1018 q 219 676 265 774 q 93 496 174 578 l 26 550 z "},"₀":{"ha":544,"x_min":29,"x_max":513,"o":"m 278 351 q 382 328 338 351 q 456 266 426 306 q 499 173 485 226 q 513 58 513 119 q 447 -151 513 -74 q 268 -229 381 -229 q 174 -210 218 -229 q 98 -153 131 -190 q 47 -62 65 -115 q 29 58 29 -8 q 97 274 29 197 q 278 351 165 351 m 169 60 q 196 -82 169 -35 q 271 -129 222 -129 q 348 -84 324 -129 q 372 58 372 -39 q 351 201 372 150 q 274 253 331 253 q 197 208 224 253 q 169 60 169 164 z "},"₁":{"ha":417,"x_min":31,"x_max":325,"o":"m 203 342 l 325 342 l 325 -222 l 178 -222 l 178 197 l 63 143 l 31 263 l 203 342 z "},"₂":{"ha":457,"x_min":21,"x_max":417,"o":"m 196 250 q 141 242 169 250 q 78 211 113 235 l 31 299 q 117 339 72 326 q 207 351 161 351 q 362 301 307 351 q 417 174 417 250 q 381 56 417 115 q 274 -58 346 -3 l 192 -121 l 417 -121 l 417 -222 l 47 -222 l 21 -132 l 132 -37 q 201 25 174 -3 q 246 77 229 53 q 270 123 263 101 q 278 168 278 144 q 253 227 278 204 q 196 250 229 250 z "},"₃":{"ha":425,"x_min":13,"x_max":394,"o":"m 28 321 q 109 346 72 340 q 182 351 146 351 q 256 340 221 351 q 318 309 292 329 q 360 261 344 289 q 375 199 375 233 q 265 68 375 100 l 265 65 q 359 20 324 54 q 394 -65 394 -14 q 376 -137 394 -107 q 326 -189 357 -168 q 255 -219 296 -210 q 171 -229 214 -229 q 86 -223 131 -229 q 13 -203 42 -217 l 39 -108 q 97 -124 71 -119 q 156 -128 124 -128 q 226 -108 200 -128 q 251 -53 251 -87 q 228 -6 251 -25 q 153 13 206 13 l 78 13 l 78 108 l 132 108 q 208 129 182 108 q 235 186 235 150 q 209 237 235 221 q 154 253 183 253 q 106 248 131 253 q 56 231 82 243 l 28 321 z "},"₄":{"ha":543,"x_min":26,"x_max":513,"o":"m 271 342 l 429 342 l 429 14 l 513 14 l 513 -81 l 429 -81 l 429 -222 l 294 -222 l 294 -81 l 26 -81 l 26 1 l 271 342 m 251 143 l 160 14 l 294 14 l 294 140 l 297 218 l 294 218 l 251 143 z "},"₅":{"ha":474,"x_min":31,"x_max":432,"o":"m 410 344 l 410 246 l 183 246 l 171 136 q 219 140 193 140 q 376 92 321 140 q 432 -31 432 44 q 363 -176 432 -124 q 185 -229 294 -229 q 107 -224 147 -229 q 31 -203 67 -218 l 58 -107 q 175 -128 108 -128 q 263 -101 233 -128 q 292 -35 292 -74 q 259 27 292 7 q 174 47 226 47 q 110 43 139 47 q 60 32 82 39 l 88 342 l 410 344 z "},"₆":{"ha":506,"x_min":31,"x_max":475,"o":"m 169 122 q 217 153 189 142 q 274 164 246 164 q 356 150 319 164 q 419 112 393 136 q 460 53 446 88 q 475 -24 475 18 q 460 -106 475 -68 q 419 -170 446 -143 q 351 -213 392 -197 q 258 -229 310 -229 q 174 -214 215 -229 q 101 -165 133 -199 q 50 -81 69 -132 q 31 43 31 -29 q 106 278 31 206 q 307 351 182 351 q 376 344 340 351 q 436 326 411 338 l 406 228 q 360 245 382 239 q 308 251 338 251 q 206 214 239 251 q 167 124 172 176 l 169 122 m 167 -19 q 190 -96 167 -64 q 257 -128 213 -128 q 314 -100 293 -128 q 335 -28 335 -72 q 313 42 335 19 q 250 65 290 65 q 210 56 229 65 q 179 26 190 46 q 169 8 172 18 q 167 -19 167 -1 z "},"₇":{"ha":447,"x_min":31,"x_max":428,"o":"m 428 342 l 428 253 l 168 -244 l 54 -196 l 290 239 l 31 239 l 31 342 l 428 342 z "},"₈":{"ha":506,"x_min":32,"x_max":472,"o":"m 143 69 q 71 126 90 93 q 51 196 51 160 q 63 253 51 225 q 100 302 75 281 q 163 338 125 324 q 253 351 201 351 q 347 338 308 351 q 410 301 386 324 q 446 251 435 279 q 457 196 457 224 q 435 126 457 158 q 358 74 413 93 l 358 71 q 446 15 419 51 q 472 -64 472 -22 q 417 -183 472 -136 q 250 -229 361 -229 q 160 -217 200 -229 q 91 -183 119 -204 q 47 -132 63 -161 q 32 -69 32 -103 q 56 13 32 -21 q 143 67 79 47 l 143 69 m 185 193 q 202 145 185 164 q 254 115 219 126 q 307 147 292 126 q 322 193 322 167 q 306 235 322 217 q 253 253 289 253 q 201 235 218 253 q 185 193 185 217 m 251 24 q 172 -57 172 4 q 191 -104 172 -81 q 253 -128 210 -128 q 313 -106 293 -128 q 333 -56 333 -83 q 311 -4 333 -25 q 251 24 289 17 z "},"₉":{"ha":503,"x_min":31,"x_max":472,"o":"m 335 -1 q 285 -31 315 -21 q 226 -42 254 -42 q 86 9 142 -42 q 31 151 31 60 q 46 231 31 194 q 90 294 61 268 q 159 336 118 321 q 253 351 200 351 q 338 336 297 351 q 408 289 378 321 q 455 206 438 257 q 472 83 472 156 q 397 -153 472 -78 q 193 -229 321 -229 q 131 -224 164 -229 q 74 -210 97 -219 l 99 -112 q 190 -129 144 -129 q 254 -119 228 -129 q 299 -91 281 -108 q 326 -51 317 -74 q 339 -3 335 -28 l 335 -1 m 333 142 q 328 182 333 163 q 314 217 324 201 q 288 241 304 232 q 250 250 272 250 q 193 224 215 250 q 171 154 171 199 q 196 81 171 106 q 258 57 221 57 q 326 92 308 57 q 333 142 333 107 z "},"₍":{"ha":318,"x_min":51,"x_max":292,"o":"m 290 410 q 237 330 260 369 q 199 249 214 290 q 177 163 185 208 q 169 67 169 118 q 197 -116 169 -32 q 292 -283 224 -200 l 222 -337 q 97 -156 142 -254 q 51 65 51 -57 q 97 285 51 188 q 224 465 143 383 l 290 410 z "},"₎":{"ha":318,"x_min":25,"x_max":265,"o":"m 26 -283 q 118 -122 89 -201 q 147 61 147 -43 q 120 244 147 160 q 25 410 93 328 l 94 465 q 220 283 175 382 q 265 63 265 185 q 219 -158 265 -60 q 93 -337 174 -256 l 26 -283 z "}}}
